<svg xmlns="http://www.w3.org/2000/svg" xmlns:xlink="http://www.w3.org/1999/xlink" width="1080" zoomAndPan="magnify" viewBox="0 0 810 809.999993" height="1080" preserveAspectRatio="xMidYMid meet" version="1.0"><defs><g/><clipPath id="36cec036ec"><path d="M 441 283 L 729 283 L 729 504.75 L 441 504.75 Z M 441 283 " clip-rule="nonzero"/></clipPath><clipPath id="e517b9000b"><rect x="0" width="459" y="0" height="140"/></clipPath></defs><rect x="-81" width="972" fill="#ffffff" y="-80.999999" height="971.999992" fill-opacity="1"/><rect x="-81" width="972" fill="#ffffff" y="-80.999999" height="971.999992" fill-opacity="1"/><path fill="#ce9f0f" d="M 382.453125 220.730469 C 390.226562 205.160156 399.65625 188.929688 410.988281 172.035156 C 420.238281 185.769531 428.21875 199.066406 435.078125 211.929688 C 443.347656 200.96875 452.617188 189.882812 462.980469 178.710938 C 451.1875 148.484375 434.289062 115.996094 410.914062 81.289062 C 384.816406 120.175781 366.824219 156.273438 355.023438 189.519531 C 365.183594 199.972656 374.296875 210.394531 382.453125 220.730469 " fill-opacity="1" fill-rule="nonzero"/><path fill="#ce9f0f" d="M 388.785156 295.109375 C 392.347656 285.445312 396.582031 275.582031 401.59375 265.546875 C 377.292969 223.570312 338.070312 179.195312 276.707031 135.449219 C 237.078125 302.992188 286.558594 396.875 336.558594 446.683594 C 305.082031 402.917969 282.238281 332.003906 308.640625 220.390625 C 343.625 245.332031 369.644531 270.523438 388.785156 295.109375 " fill-opacity="1" fill-rule="nonzero"/><path fill="#ce9f0f" d="M 158.460938 340.816406 C 201.386719 338.929688 237.402344 342.765625 267.617188 350.351562 C 264.476562 340.546875 261.746094 330.167969 259.515625 319.171875 C 214.519531 301.054688 156.289062 290.234375 81.003906 293.539062 C 152.921875 449.964844 249.71875 493.484375 319.78125 501.949219 C 268.035156 486.835938 206.375 445.027344 158.460938 340.816406 " fill-opacity="1" fill-rule="nonzero"/><path fill="#ce9f0f" d="M 501.121094 217.953125 C 513.335938 259.148438 518.328125 295.019531 518.277344 326.171875 C 527.03125 320.753906 536.441406 315.589844 546.566406 310.765625 C 553.261719 262.726562 549.679688 203.609375 528.257812 131.355469 C 393.875 238.984375 375.066406 343.433594 383.804688 413.464844 C 385.945312 359.59375 411.601562 289.65625 501.121094 217.953125 " fill-opacity="1" fill-rule="nonzero"/><g clip-path="url(#36cec036ec)"><path fill="#ce9f0f" d="M 654.300781 334.539062 C 612.289062 441.265625 553.066406 486.457031 502.242188 504.441406 C 571.726562 492.070312 665.933594 443.207031 728.996094 283.003906 C 556.839844 285.078125 477.714844 355.808594 441.484375 416.371094 C 476.335938 375.242188 539.613281 335.921875 654.300781 334.539062 " fill-opacity="1" fill-rule="nonzero"/></g><g transform="matrix(1, 0, 0, 1, 175, 518)"><g clip-path="url(#e517b9000b)"><g fill="#472d24" fill-opacity="1"><g transform="translate(56.769921, 54.682404)"><g><path d="M 16.796875 1.265625 C 12.359375 1.265625 8.96875 0.492188 6.625 -1.046875 C 4.28125 -2.585938 3.109375 -4.859375 3.109375 -7.859375 C 3.109375 -9.378906 3.625 -10.632812 4.65625 -11.625 C 5.6875 -12.613281 7.03125 -13.109375 8.6875 -13.109375 C 9.65625 -13.066406 10.390625 -12.820312 10.890625 -12.375 C 11.398438 -11.9375 11.65625 -11.53125 11.65625 -11.15625 C 11.65625 -11.113281 11.441406 -10.960938 11.015625 -10.703125 C 10.597656 -10.453125 10.21875 -10.070312 9.875 -9.5625 C 9.539062 -9.0625 9.375 -8.363281 9.375 -7.46875 C 9.375 -5.488281 9.972656 -3.957031 11.171875 -2.875 C 12.378906 -1.800781 14.253906 -1.265625 16.796875 -1.265625 C 18.523438 -1.265625 20.039062 -1.601562 21.34375 -2.28125 C 22.65625 -2.957031 23.660156 -3.851562 24.359375 -4.96875 C 25.054688 -6.09375 25.40625 -7.265625 25.40625 -8.484375 C 25.40625 -10.003906 24.972656 -11.3125 24.109375 -12.40625 C 23.242188 -13.507812 22.175781 -14.429688 20.90625 -15.171875 C 19.632812 -15.910156 17.90625 -16.765625 15.71875 -17.734375 C 13.175781 -18.878906 11.125 -19.914062 9.5625 -20.84375 C 8 -21.769531 6.664062 -23.003906 5.5625 -24.546875 C 4.46875 -26.085938 3.921875 -28 3.921875 -30.28125 C 3.921875 -33.957031 5.175781 -36.703125 7.6875 -38.515625 C 10.207031 -40.335938 13.515625 -41.25 17.609375 -41.25 C 20.816406 -41.25 23.613281 -40.570312 26 -39.21875 C 28.394531 -37.863281 29.59375 -35.878906 29.59375 -33.265625 C 29.59375 -31.742188 29.070312 -30.484375 28.03125 -29.484375 C 27 -28.492188 25.660156 -28 24.015625 -28 C 23.046875 -28.039062 22.304688 -28.285156 21.796875 -28.734375 C 21.285156 -29.179688 21.03125 -29.59375 21.03125 -29.96875 C 21.03125 -30.007812 21.316406 -30.15625 21.890625 -30.40625 C 22.460938 -30.664062 22.96875 -31.046875 23.40625 -31.546875 C 23.851562 -32.054688 24.078125 -32.753906 24.078125 -33.640625 C 24.078125 -35.203125 23.472656 -36.425781 22.265625 -37.3125 C 21.066406 -38.207031 19.535156 -38.65625 17.671875 -38.65625 C 15.097656 -38.65625 13.144531 -38.050781 11.8125 -36.84375 C 10.488281 -35.632812 9.828125 -34.144531 9.828125 -32.375 C 9.828125 -30.894531 10.226562 -29.660156 11.03125 -28.671875 C 11.832031 -27.679688 13.117188 -26.695312 14.890625 -25.71875 C 16.328125 -24.957031 17.890625 -24.195312 19.578125 -23.4375 C 22.285156 -22.21875 24.429688 -21.097656 26.015625 -20.078125 C 27.597656 -19.066406 28.925781 -17.738281 30 -16.09375 C 31.070312 -14.445312 31.609375 -12.398438 31.609375 -9.953125 C 31.609375 -7.835938 30.941406 -5.921875 29.609375 -4.203125 C 28.285156 -2.492188 26.492188 -1.15625 24.234375 -0.1875 C 21.972656 0.78125 19.492188 1.265625 16.796875 1.265625 Z M 16.796875 1.265625 "/></g></g></g><g fill="#472d24" fill-opacity="1"><g transform="translate(91.2902, 54.682404)"><g><path d="M 0.375 0.1875 C 0 0.1875 -0.28125 0.0507812 -0.46875 -0.21875 C -0.664062 -0.5 -0.765625 -0.828125 -0.765625 -1.203125 C -0.722656 -1.835938 -0.59375 -2.21875 -0.375 -2.34375 C -0.164062 -2.46875 0.0820312 -2.53125 0.375 -2.53125 C 0.675781 -2.53125 0.867188 -2.53125 0.953125 -2.53125 C 2.210938 -2.53125 3.140625 -2.859375 3.734375 -3.515625 C 4.328125 -4.171875 4.800781 -4.910156 5.15625 -5.734375 C 5.519531 -6.554688 5.765625 -7.113281 5.890625 -7.40625 L 16.984375 -33.640625 C 17.234375 -34.273438 17.359375 -34.785156 17.359375 -35.171875 C 17.359375 -35.929688 17.0625 -36.476562 16.46875 -36.8125 C 15.882812 -37.144531 15.0625 -37.421875 14 -37.640625 C 13.28125 -37.765625 12.835938 -37.890625 12.671875 -38.015625 C 12.503906 -38.140625 12.421875 -38.5 12.421875 -39.09375 C 12.421875 -39.601562 12.554688 -39.941406 12.828125 -40.109375 C 13.097656 -40.273438 13.53125 -40.359375 14.125 -40.359375 C 16.238281 -40.359375 17.914062 -40.195312 19.15625 -39.875 C 20.40625 -39.5625 21.492188 -38.929688 22.421875 -37.984375 C 23.359375 -37.035156 24.226562 -35.585938 25.03125 -33.640625 L 35.671875 -7.40625 C 36.304688 -5.800781 36.914062 -4.597656 37.5 -3.796875 C 38.09375 -2.992188 38.984375 -2.570312 40.171875 -2.53125 L 40.546875 -2.53125 C 40.972656 -2.53125 41.269531 -2.457031 41.4375 -2.3125 C 41.601562 -2.164062 41.707031 -1.796875 41.75 -1.203125 C 41.75 -0.828125 41.65625 -0.5 41.46875 -0.21875 C 41.28125 0.0507812 40.992188 0.1875 40.609375 0.1875 C 37.910156 0.0625 35.585938 0 33.640625 0 C 31.109375 0 28.488281 0.0625 25.78125 0.1875 C 25.40625 0.1875 25.117188 0.0507812 24.921875 -0.21875 C 24.734375 -0.5 24.640625 -0.828125 24.640625 -1.203125 C 24.679688 -1.796875 24.785156 -2.164062 24.953125 -2.3125 C 25.128906 -2.457031 25.425781 -2.53125 25.84375 -2.53125 C 27.28125 -2.53125 28.296875 -2.664062 28.890625 -2.9375 C 29.484375 -3.21875 29.78125 -3.71875 29.78125 -4.4375 C 29.78125 -4.988281 29.523438 -5.976562 29.015625 -7.40625 L 26.859375 -12.671875 L 11.21875 -12.671875 C 10.15625 -10.054688 9.550781 -8.535156 9.40625 -8.109375 C 9.257812 -7.679688 9.1875 -7.445312 9.1875 -7.40625 C 8.675781 -5.800781 8.421875 -4.769531 8.421875 -4.3125 C 8.421875 -3.59375 8.738281 -3.113281 9.375 -2.875 C 10.007812 -2.644531 11.210938 -2.53125 12.984375 -2.53125 L 13.375 -2.53125 C 13.789062 -2.53125 14.082031 -2.457031 14.25 -2.3125 C 14.425781 -2.164062 14.535156 -1.796875 14.578125 -1.203125 C 14.578125 -0.828125 14.476562 -0.5 14.28125 -0.21875 C 14.09375 0.0507812 13.8125 0.1875 13.4375 0.1875 C 10.726562 0.0625 8.425781 0 6.53125 0 C 5.175781 0 3.125 0.0625 0.375 0.1875 Z M 12.421875 -15.390625 L 25.71875 -15.390625 L 19.328125 -31.671875 L 19.140625 -31.671875 Z M 12.421875 -15.390625 "/></g></g></g><g fill="#472d24" fill-opacity="1"><g transform="translate(132.651231, 54.682404)"><g><path d="M 7.15625 -32.3125 C 6.4375 -34.125 5.738281 -35.390625 5.0625 -36.109375 C 4.394531 -36.828125 3.40625 -37.316406 2.09375 -37.578125 C 1.925781 -37.617188 1.671875 -37.671875 1.328125 -37.734375 C 0.992188 -37.796875 0.769531 -37.921875 0.65625 -38.109375 C 0.550781 -38.296875 0.5 -38.601562 0.5 -39.03125 C 0.5 -39.539062 0.632812 -39.878906 0.90625 -40.046875 C 1.1875 -40.210938 1.625 -40.296875 2.21875 -40.296875 C 5.382812 -40.296875 7.789062 -39.804688 9.4375 -38.828125 C 11.082031 -37.859375 12.394531 -36.128906 13.375 -33.640625 L 20.59375 -10.453125 L 20.84375 -10.453125 L 28.578125 -39.984375 L 31.875 -39.984375 L 42.203125 -10.453125 L 42.390625 -10.453125 L 49.546875 -34.34375 C 49.710938 -34.976562 49.796875 -35.523438 49.796875 -35.984375 C 49.796875 -36.578125 49.582031 -36.96875 49.15625 -37.15625 C 48.738281 -37.351562 47.941406 -37.453125 46.765625 -37.453125 L 46.375 -37.453125 C 45.957031 -37.453125 45.660156 -37.523438 45.484375 -37.671875 C 45.316406 -37.816406 45.210938 -38.1875 45.171875 -38.78125 C 45.171875 -39.15625 45.265625 -39.476562 45.453125 -39.75 C 45.648438 -40.03125 45.914062 -40.171875 46.25 -40.171875 C 49 -40.046875 51.300781 -39.984375 53.15625 -39.984375 C 53.957031 -39.984375 55.5 -40.023438 57.78125 -40.109375 L 59.109375 -40.171875 C 59.492188 -40.171875 59.78125 -40.03125 59.96875 -39.75 C 60.15625 -39.476562 60.25 -39.15625 60.25 -38.78125 C 60.207031 -38.1875 60.101562 -37.816406 59.9375 -37.671875 C 59.769531 -37.523438 59.472656 -37.453125 59.046875 -37.453125 C 57.191406 -37.453125 55.742188 -37.144531 54.703125 -36.53125 C 53.671875 -35.914062 52.925781 -34.785156 52.46875 -33.140625 L 42.078125 0.640625 L 39.09375 0.640625 L 28.828125 -29.59375 L 20.65625 0.640625 L 17.671875 0.640625 Z M 7.15625 -32.3125 "/></g></g></g><g fill="#472d24" fill-opacity="1"><g transform="translate(191.810802, 54.682404)"><g><path d="M 0.375 0.1875 C 0 0.1875 -0.28125 0.0507812 -0.46875 -0.21875 C -0.664062 -0.5 -0.765625 -0.828125 -0.765625 -1.203125 C -0.722656 -1.835938 -0.59375 -2.21875 -0.375 -2.34375 C -0.164062 -2.46875 0.0820312 -2.53125 0.375 -2.53125 C 0.675781 -2.53125 0.867188 -2.53125 0.953125 -2.53125 C 2.210938 -2.53125 3.140625 -2.859375 3.734375 -3.515625 C 4.328125 -4.171875 4.800781 -4.910156 5.15625 -5.734375 C 5.519531 -6.554688 5.765625 -7.113281 5.890625 -7.40625 L 16.984375 -33.640625 C 17.234375 -34.273438 17.359375 -34.785156 17.359375 -35.171875 C 17.359375 -35.929688 17.0625 -36.476562 16.46875 -36.8125 C 15.882812 -37.144531 15.0625 -37.421875 14 -37.640625 C 13.28125 -37.765625 12.835938 -37.890625 12.671875 -38.015625 C 12.503906 -38.140625 12.421875 -38.5 12.421875 -39.09375 C 12.421875 -39.601562 12.554688 -39.941406 12.828125 -40.109375 C 13.097656 -40.273438 13.53125 -40.359375 14.125 -40.359375 C 16.238281 -40.359375 17.914062 -40.195312 19.15625 -39.875 C 20.40625 -39.5625 21.492188 -38.929688 22.421875 -37.984375 C 23.359375 -37.035156 24.226562 -35.585938 25.03125 -33.640625 L 35.671875 -7.40625 C 36.304688 -5.800781 36.914062 -4.597656 37.5 -3.796875 C 38.09375 -2.992188 38.984375 -2.570312 40.171875 -2.53125 L 40.546875 -2.53125 C 40.972656 -2.53125 41.269531 -2.457031 41.4375 -2.3125 C 41.601562 -2.164062 41.707031 -1.796875 41.75 -1.203125 C 41.75 -0.828125 41.65625 -0.5 41.46875 -0.21875 C 41.28125 0.0507812 40.992188 0.1875 40.609375 0.1875 C 37.910156 0.0625 35.585938 0 33.640625 0 C 31.109375 0 28.488281 0.0625 25.78125 0.1875 C 25.40625 0.1875 25.117188 0.0507812 24.921875 -0.21875 C 24.734375 -0.5 24.640625 -0.828125 24.640625 -1.203125 C 24.679688 -1.796875 24.785156 -2.164062 24.953125 -2.3125 C 25.128906 -2.457031 25.425781 -2.53125 25.84375 -2.53125 C 27.28125 -2.53125 28.296875 -2.664062 28.890625 -2.9375 C 29.484375 -3.21875 29.78125 -3.71875 29.78125 -4.4375 C 29.78125 -4.988281 29.523438 -5.976562 29.015625 -7.40625 L 26.859375 -12.671875 L 11.21875 -12.671875 C 10.15625 -10.054688 9.550781 -8.535156 9.40625 -8.109375 C 9.257812 -7.679688 9.1875 -7.445312 9.1875 -7.40625 C 8.675781 -5.800781 8.421875 -4.769531 8.421875 -4.3125 C 8.421875 -3.59375 8.738281 -3.113281 9.375 -2.875 C 10.007812 -2.644531 11.210938 -2.53125 12.984375 -2.53125 L 13.375 -2.53125 C 13.789062 -2.53125 14.082031 -2.457031 14.25 -2.3125 C 14.425781 -2.164062 14.535156 -1.796875 14.578125 -1.203125 C 14.578125 -0.828125 14.476562 -0.5 14.28125 -0.21875 C 14.09375 0.0507812 13.8125 0.1875 13.4375 0.1875 C 10.726562 0.0625 8.425781 0 6.53125 0 C 5.175781 0 3.125 0.0625 0.375 0.1875 Z M 12.421875 -15.390625 L 25.71875 -15.390625 L 19.328125 -31.671875 L 19.140625 -31.671875 Z M 12.421875 -15.390625 "/></g></g></g><g fill="#472d24" fill-opacity="1"><g transform="translate(233.171833, 54.682404)"><g><path d="M 16.796875 1.265625 C 12.359375 1.265625 8.96875 0.492188 6.625 -1.046875 C 4.28125 -2.585938 3.109375 -4.859375 3.109375 -7.859375 C 3.109375 -9.378906 3.625 -10.632812 4.65625 -11.625 C 5.6875 -12.613281 7.03125 -13.109375 8.6875 -13.109375 C 9.65625 -13.066406 10.390625 -12.820312 10.890625 -12.375 C 11.398438 -11.9375 11.65625 -11.53125 11.65625 -11.15625 C 11.65625 -11.113281 11.441406 -10.960938 11.015625 -10.703125 C 10.597656 -10.453125 10.21875 -10.070312 9.875 -9.5625 C 9.539062 -9.0625 9.375 -8.363281 9.375 -7.46875 C 9.375 -5.488281 9.972656 -3.957031 11.171875 -2.875 C 12.378906 -1.800781 14.253906 -1.265625 16.796875 -1.265625 C 18.523438 -1.265625 20.039062 -1.601562 21.34375 -2.28125 C 22.65625 -2.957031 23.660156 -3.851562 24.359375 -4.96875 C 25.054688 -6.09375 25.40625 -7.265625 25.40625 -8.484375 C 25.40625 -10.003906 24.972656 -11.3125 24.109375 -12.40625 C 23.242188 -13.507812 22.175781 -14.429688 20.90625 -15.171875 C 19.632812 -15.910156 17.90625 -16.765625 15.71875 -17.734375 C 13.175781 -18.878906 11.125 -19.914062 9.5625 -20.84375 C 8 -21.769531 6.664062 -23.003906 5.5625 -24.546875 C 4.46875 -26.085938 3.921875 -28 3.921875 -30.28125 C 3.921875 -33.957031 5.175781 -36.703125 7.6875 -38.515625 C 10.207031 -40.335938 13.515625 -41.25 17.609375 -41.25 C 20.816406 -41.25 23.613281 -40.570312 26 -39.21875 C 28.394531 -37.863281 29.59375 -35.878906 29.59375 -33.265625 C 29.59375 -31.742188 29.070312 -30.484375 28.03125 -29.484375 C 27 -28.492188 25.660156 -28 24.015625 -28 C 23.046875 -28.039062 22.304688 -28.285156 21.796875 -28.734375 C 21.285156 -29.179688 21.03125 -29.59375 21.03125 -29.96875 C 21.03125 -30.007812 21.316406 -30.15625 21.890625 -30.40625 C 22.460938 -30.664062 22.96875 -31.046875 23.40625 -31.546875 C 23.851562 -32.054688 24.078125 -32.753906 24.078125 -33.640625 C 24.078125 -35.203125 23.472656 -36.425781 22.265625 -37.3125 C 21.066406 -38.207031 19.535156 -38.65625 17.671875 -38.65625 C 15.097656 -38.65625 13.144531 -38.050781 11.8125 -36.84375 C 10.488281 -35.632812 9.828125 -34.144531 9.828125 -32.375 C 9.828125 -30.894531 10.226562 -29.660156 11.03125 -28.671875 C 11.832031 -27.679688 13.117188 -26.695312 14.890625 -25.71875 C 16.328125 -24.957031 17.890625 -24.195312 19.578125 -23.4375 C 22.285156 -22.21875 24.429688 -21.097656 26.015625 -20.078125 C 27.597656 -19.066406 28.925781 -17.738281 30 -16.09375 C 31.070312 -14.445312 31.609375 -12.398438 31.609375 -9.953125 C 31.609375 -7.835938 30.941406 -5.921875 29.609375 -4.203125 C 28.285156 -2.492188 26.492188 -1.15625 24.234375 -0.1875 C 21.972656 0.78125 19.492188 1.265625 16.796875 1.265625 Z M 16.796875 1.265625 "/></g></g></g><g fill="#472d24" fill-opacity="1"><g transform="translate(267.692112, 54.682404)"><g><path d="M 3.796875 0.1875 C 3.460938 0.1875 3.195312 0.0507812 3 -0.21875 C 2.8125 -0.5 2.71875 -0.828125 2.71875 -1.203125 C 2.757812 -1.835938 2.882812 -2.21875 3.09375 -2.34375 C 3.3125 -2.46875 3.71875 -2.53125 4.3125 -2.53125 C 5.53125 -2.53125 6.4375 -2.75 7.03125 -3.1875 C 7.625 -3.632812 7.992188 -4.1875 8.140625 -4.84375 C 8.285156 -5.5 8.378906 -6.351562 8.421875 -7.40625 L 8.421875 -32.5625 C 8.378906 -33.625 8.285156 -34.476562 8.140625 -35.125 C 7.992188 -35.78125 7.625 -36.332031 7.03125 -36.78125 C 6.4375 -37.226562 5.53125 -37.453125 4.3125 -37.453125 L 3.921875 -37.453125 C 3.503906 -37.453125 3.207031 -37.523438 3.03125 -37.671875 C 2.863281 -37.816406 2.757812 -38.1875 2.71875 -38.78125 C 2.71875 -39.15625 2.8125 -39.476562 3 -39.75 C 3.195312 -40.03125 3.460938 -40.171875 3.796875 -40.171875 C 6.585938 -40.046875 9.101562 -39.984375 11.34375 -39.984375 L 21.21875 -39.984375 C 25.28125 -39.984375 28.96875 -39.164062 32.28125 -37.53125 C 35.59375 -35.90625 38.207031 -33.570312 40.125 -30.53125 C 42.050781 -27.5 43.015625 -23.910156 43.015625 -19.765625 C 43.015625 -15.460938 41.925781 -11.820312 39.75 -8.84375 C 37.582031 -5.863281 34.753906 -3.644531 31.265625 -2.1875 C 27.785156 -0.726562 24.054688 0 20.078125 0 L 11.34375 0 C 9.101562 0 6.585938 0.0625 3.796875 0.1875 Z M 21.03125 -2.34375 C 25.976562 -2.34375 29.601562 -3.875 31.90625 -6.9375 C 34.207031 -10 35.359375 -14.273438 35.359375 -19.765625 C 35.359375 -23.234375 34.734375 -26.328125 33.484375 -29.046875 C 32.234375 -31.773438 30.425781 -33.898438 28.0625 -35.421875 C 25.695312 -36.941406 22.890625 -37.703125 19.640625 -37.703125 L 14.703125 -37.640625 L 14.703125 -6.65625 C 14.703125 -5.007812 15.195312 -3.878906 16.1875 -3.265625 C 17.175781 -2.648438 18.789062 -2.34375 21.03125 -2.34375 Z M 21.03125 -2.34375 "/></g></g></g><g fill="#472d24" fill-opacity="1"><g transform="translate(313.803651, 54.682404)"><g><path d="M 3.796875 0.1875 C 3.460938 0.1875 3.195312 0.0507812 3 -0.21875 C 2.8125 -0.5 2.71875 -0.828125 2.71875 -1.203125 C 2.757812 -1.835938 2.882812 -2.21875 3.09375 -2.34375 C 3.3125 -2.46875 3.71875 -2.53125 4.3125 -2.53125 C 5.53125 -2.53125 6.4375 -2.75 7.03125 -3.1875 C 7.625 -3.632812 7.992188 -4.1875 8.140625 -4.84375 C 8.285156 -5.5 8.378906 -6.351562 8.421875 -7.40625 L 8.421875 -32.5625 C 8.378906 -33.625 8.285156 -34.476562 8.140625 -35.125 C 7.992188 -35.78125 7.625 -36.332031 7.03125 -36.78125 C 6.4375 -37.226562 5.53125 -37.453125 4.3125 -37.453125 L 3.921875 -37.453125 C 3.503906 -37.453125 3.207031 -37.523438 3.03125 -37.671875 C 2.863281 -37.816406 2.757812 -38.1875 2.71875 -38.78125 C 2.71875 -39.15625 2.8125 -39.476562 3 -39.75 C 3.195312 -40.03125 3.460938 -40.171875 3.796875 -40.171875 C 6.585938 -40.046875 9.101562 -39.984375 11.34375 -39.984375 L 31.234375 -39.984375 C 32.335938 -39.984375 32.890625 -39.472656 32.890625 -38.453125 L 33.078125 -29.59375 C 33.078125 -29.207031 32.882812 -28.898438 32.5 -28.671875 C 32.125 -28.441406 31.742188 -28.328125 31.359375 -28.328125 C 30.859375 -28.328125 30.414062 -28.421875 30.03125 -28.609375 C 29.65625 -28.796875 29.445312 -29.082031 29.40625 -29.46875 C 29.0625 -31.53125 28.6875 -33.097656 28.28125 -34.171875 C 27.882812 -35.253906 27.296875 -36.054688 26.515625 -36.578125 C 25.734375 -37.109375 24.625 -37.398438 23.1875 -37.453125 L 14.703125 -37.453125 L 14.703125 -21.359375 L 26.171875 -21.359375 C 26.460938 -21.304688 26.691406 -21.144531 26.859375 -20.875 C 27.035156 -20.601562 27.125 -20.273438 27.125 -19.890625 C 27.125 -19.554688 27.035156 -19.257812 26.859375 -19 C 26.691406 -18.75 26.460938 -18.625 26.171875 -18.625 L 14.703125 -18.625 L 14.703125 -6.65625 C 14.785156 -5.769531 14.890625 -5.0625 15.015625 -4.53125 C 15.140625 -4 15.519531 -3.519531 16.15625 -3.09375 C 16.789062 -2.675781 17.785156 -2.488281 19.140625 -2.53125 L 24.96875 -2.53125 C 26.445312 -2.570312 27.566406 -2.8125 28.328125 -3.25 C 29.085938 -3.695312 29.6875 -4.382812 30.125 -5.3125 C 30.570312 -6.25 31.113281 -7.773438 31.75 -9.890625 C 32.039062 -10.648438 32.753906 -10.941406 33.890625 -10.765625 C 34.316406 -10.679688 34.6875 -10.515625 35 -10.265625 C 35.320312 -10.015625 35.460938 -9.695312 35.421875 -9.3125 L 34.15625 -1.328125 C 34.019531 -0.773438 33.828125 -0.414062 33.578125 -0.25 C 33.328125 -0.0820312 32.90625 0 32.3125 0 L 11.40625 0 C 9.125 0 6.585938 0.0625 3.796875 0.1875 Z M 3.796875 0.1875 "/></g></g></g><g fill="#472d24" fill-opacity="1"><g transform="translate(351.427614, 54.682404)"><g><path d="M 3.796875 0.1875 C 3.460938 0.1875 3.195312 0.0507812 3 -0.21875 C 2.8125 -0.5 2.71875 -0.828125 2.71875 -1.203125 C 2.757812 -1.835938 2.882812 -2.21875 3.09375 -2.34375 C 3.3125 -2.46875 3.71875 -2.53125 4.3125 -2.53125 C 5.53125 -2.53125 6.4375 -2.75 7.03125 -3.1875 C 7.625 -3.632812 7.992188 -4.1875 8.140625 -4.84375 C 8.285156 -5.5 8.378906 -6.351562 8.421875 -7.40625 L 8.421875 -32.5625 C 8.378906 -33.625 8.285156 -34.476562 8.140625 -35.125 C 7.992188 -35.78125 7.625 -36.332031 7.03125 -36.78125 C 6.4375 -37.226562 5.53125 -37.453125 4.3125 -37.453125 L 3.921875 -37.453125 C 3.503906 -37.453125 3.207031 -37.523438 3.03125 -37.671875 C 2.863281 -37.816406 2.757812 -38.1875 2.71875 -38.78125 C 2.71875 -39.15625 2.8125 -39.476562 3 -39.75 C 3.195312 -40.03125 3.460938 -40.171875 3.796875 -40.171875 C 6.585938 -40.046875 9.101562 -39.984375 11.34375 -39.984375 L 31.234375 -39.984375 C 32.335938 -39.984375 32.890625 -39.472656 32.890625 -38.453125 L 33.078125 -29.59375 C 33.078125 -29.207031 32.882812 -28.898438 32.5 -28.671875 C 32.125 -28.441406 31.742188 -28.328125 31.359375 -28.328125 C 30.859375 -28.328125 30.414062 -28.421875 30.03125 -28.609375 C 29.65625 -28.796875 29.445312 -29.082031 29.40625 -29.46875 C 29.0625 -31.53125 28.6875 -33.097656 28.28125 -34.171875 C 27.882812 -35.253906 27.296875 -36.054688 26.515625 -36.578125 C 25.734375 -37.109375 24.625 -37.398438 23.1875 -37.453125 L 14.703125 -37.453125 L 14.703125 -21.359375 L 26.171875 -21.359375 C 26.460938 -21.304688 26.691406 -21.144531 26.859375 -20.875 C 27.035156 -20.601562 27.125 -20.273438 27.125 -19.890625 C 27.125 -19.554688 27.035156 -19.257812 26.859375 -19 C 26.691406 -18.75 26.460938 -18.625 26.171875 -18.625 L 14.703125 -18.625 L 14.703125 -6.65625 C 14.785156 -5.769531 14.890625 -5.0625 15.015625 -4.53125 C 15.140625 -4 15.519531 -3.519531 16.15625 -3.09375 C 16.789062 -2.675781 17.785156 -2.488281 19.140625 -2.53125 L 24.96875 -2.53125 C 26.445312 -2.570312 27.566406 -2.8125 28.328125 -3.25 C 29.085938 -3.695312 29.6875 -4.382812 30.125 -5.3125 C 30.570312 -6.25 31.113281 -7.773438 31.75 -9.890625 C 32.039062 -10.648438 32.753906 -10.941406 33.890625 -10.765625 C 34.316406 -10.679688 34.6875 -10.515625 35 -10.265625 C 35.320312 -10.015625 35.460938 -9.695312 35.421875 -9.3125 L 34.15625 -1.328125 C 34.019531 -0.773438 33.828125 -0.414062 33.578125 -0.25 C 33.328125 -0.0820312 32.90625 0 32.3125 0 L 11.40625 0 C 9.125 0 6.585938 0.0625 3.796875 0.1875 Z M 3.796875 0.1875 "/></g></g></g><g fill="#472d24" fill-opacity="1"><g transform="translate(389.051664, 54.682404)"><g/></g></g><g fill="#472d24" fill-opacity="1"><g transform="translate(2.345985, 122.480592)"><g><path d="M 11.34375 0.1875 C 10.957031 0.1875 10.671875 0.0507812 10.484375 -0.21875 C 10.296875 -0.5 10.203125 -0.828125 10.203125 -1.203125 C 10.242188 -1.835938 10.367188 -2.21875 10.578125 -2.34375 C 10.785156 -2.46875 11.1875 -2.53125 11.78125 -2.53125 C 13.007812 -2.53125 13.914062 -2.75 14.5 -3.1875 C 15.09375 -3.632812 15.460938 -4.1875 15.609375 -4.84375 C 15.765625 -5.5 15.863281 -6.351562 15.90625 -7.40625 L 15.90625 -37.640625 L 11.53125 -37.640625 C 10.09375 -37.597656 8.984375 -37.289062 8.203125 -36.71875 C 7.421875 -36.144531 6.828125 -35.296875 6.421875 -34.171875 C 6.023438 -33.054688 5.679688 -31.46875 5.390625 -29.40625 C 5.347656 -29.0625 5.09375 -28.785156 4.625 -28.578125 C 4.15625 -28.367188 3.671875 -28.265625 3.171875 -28.265625 C 2.785156 -28.265625 2.429688 -28.378906 2.109375 -28.609375 C 1.796875 -28.835938 1.640625 -29.144531 1.640625 -29.53125 L 1.84375 -38.453125 C 1.84375 -39.472656 2.410156 -39.984375 3.546875 -39.984375 L 34.53125 -39.984375 C 35.625 -39.984375 36.171875 -39.472656 36.171875 -38.453125 L 36.4375 -29.53125 C 36.4375 -29.144531 36.265625 -28.835938 35.921875 -28.609375 C 35.585938 -28.378906 35.226562 -28.265625 34.84375 -28.265625 C 34.34375 -28.265625 33.867188 -28.367188 33.421875 -28.578125 C 32.972656 -28.785156 32.726562 -29.0625 32.6875 -29.40625 C 32.351562 -31.507812 31.992188 -33.109375 31.609375 -34.203125 C 31.234375 -35.304688 30.644531 -36.144531 29.84375 -36.71875 C 29.039062 -37.289062 27.921875 -37.597656 26.484375 -37.640625 L 22.171875 -37.640625 L 22.171875 -7.40625 C 22.210938 -6.351562 22.304688 -5.5 22.453125 -4.84375 C 22.609375 -4.1875 22.976562 -3.632812 23.5625 -3.1875 C 24.15625 -2.75 25.066406 -2.53125 26.296875 -2.53125 L 26.671875 -2.53125 C 27.054688 -2.53125 27.34375 -2.457031 27.53125 -2.3125 C 27.71875 -2.164062 27.832031 -1.796875 27.875 -1.203125 C 27.875 -0.828125 27.78125 -0.5 27.59375 -0.21875 C 27.40625 0.0507812 27.117188 0.1875 26.734375 0.1875 C 24.035156 0.0625 21.546875 0 19.265625 0 C 16.722656 0 14.082031 0.0625 11.34375 0.1875 Z M 11.34375 0.1875 "/></g></g></g><g fill="#472d24" fill-opacity="1"><g transform="translate(40.350004, 122.480592)"><g><path d="M 3.859375 0.1875 C 3.484375 0.1875 3.195312 0.0507812 3 -0.21875 C 2.8125 -0.5 2.71875 -0.828125 2.71875 -1.203125 C 2.757812 -1.835938 2.882812 -2.21875 3.09375 -2.34375 C 3.3125 -2.46875 3.71875 -2.53125 4.3125 -2.53125 C 5.53125 -2.53125 6.4375 -2.75 7.03125 -3.1875 C 7.625 -3.632812 7.992188 -4.1875 8.140625 -4.84375 C 8.285156 -5.5 8.378906 -6.351562 8.421875 -7.40625 L 8.421875 -32.5625 C 8.378906 -33.625 8.285156 -34.476562 8.140625 -35.125 C 7.992188 -35.78125 7.625 -36.332031 7.03125 -36.78125 C 6.4375 -37.226562 5.53125 -37.453125 4.3125 -37.453125 L 3.921875 -37.453125 C 3.503906 -37.453125 3.207031 -37.523438 3.03125 -37.671875 C 2.863281 -37.816406 2.757812 -38.1875 2.71875 -38.78125 C 2.71875 -39.15625 2.8125 -39.476562 3 -39.75 C 3.195312 -40.03125 3.484375 -40.171875 3.859375 -40.171875 C 6.609375 -40.046875 9.101562 -39.984375 11.34375 -39.984375 C 13.875 -39.984375 16.515625 -40.046875 19.265625 -40.171875 C 19.640625 -40.171875 19.921875 -40.03125 20.109375 -39.75 C 20.304688 -39.476562 20.40625 -39.15625 20.40625 -38.78125 C 20.363281 -38.144531 20.234375 -37.765625 20.015625 -37.640625 C 19.804688 -37.515625 19.40625 -37.453125 18.8125 -37.453125 C 17.59375 -37.453125 16.6875 -37.226562 16.09375 -36.78125 C 15.5 -36.332031 15.128906 -35.78125 14.984375 -35.125 C 14.835938 -34.476562 14.742188 -33.625 14.703125 -32.5625 L 14.703125 -21.359375 L 34.59375 -21.359375 L 34.59375 -32.5625 C 34.550781 -33.625 34.457031 -34.476562 34.3125 -35.125 C 34.164062 -35.78125 33.796875 -36.332031 33.203125 -36.78125 C 32.609375 -37.226562 31.695312 -37.453125 30.46875 -37.453125 L 30.09375 -37.453125 C 29.675781 -37.453125 29.367188 -37.523438 29.171875 -37.671875 C 28.984375 -37.816406 28.867188 -38.1875 28.828125 -38.78125 C 28.828125 -39.15625 28.929688 -39.476562 29.140625 -39.75 C 29.359375 -40.03125 29.632812 -40.171875 29.96875 -40.171875 C 32.71875 -40.046875 35.359375 -39.984375 37.890625 -39.984375 C 40.210938 -39.984375 42.722656 -40.046875 45.421875 -40.171875 C 45.804688 -40.171875 46.09375 -40.03125 46.28125 -39.75 C 46.46875 -39.476562 46.5625 -39.15625 46.5625 -38.78125 C 46.519531 -38.144531 46.382812 -37.765625 46.15625 -37.640625 C 45.925781 -37.515625 45.535156 -37.453125 44.984375 -37.453125 C 43.753906 -37.453125 42.832031 -37.226562 42.21875 -36.78125 C 41.613281 -36.332031 41.234375 -35.78125 41.078125 -35.125 C 40.929688 -34.476562 40.835938 -33.625 40.796875 -32.5625 L 40.796875 -7.40625 C 40.835938 -6.351562 40.929688 -5.5 41.078125 -4.84375 C 41.234375 -4.1875 41.613281 -3.632812 42.21875 -3.1875 C 42.832031 -2.75 43.753906 -2.53125 44.984375 -2.53125 L 45.359375 -2.53125 C 45.742188 -2.53125 46.03125 -2.457031 46.21875 -2.3125 C 46.40625 -2.164062 46.519531 -1.796875 46.5625 -1.203125 C 46.5625 -0.828125 46.46875 -0.5 46.28125 -0.21875 C 46.09375 0.0507812 45.804688 0.1875 45.421875 0.1875 C 42.722656 0.0625 40.191406 0 37.828125 0 C 35.335938 0 32.71875 0.0625 29.96875 0.1875 C 29.632812 0.1875 29.359375 0.0507812 29.140625 -0.21875 C 28.929688 -0.5 28.828125 -0.828125 28.828125 -1.203125 C 28.867188 -1.835938 29.003906 -2.21875 29.234375 -2.34375 C 29.472656 -2.46875 29.882812 -2.53125 30.46875 -2.53125 C 31.695312 -2.53125 32.609375 -2.75 33.203125 -3.1875 C 33.796875 -3.632812 34.164062 -4.1875 34.3125 -4.84375 C 34.457031 -5.5 34.550781 -6.351562 34.59375 -7.40625 L 34.59375 -18.625 L 14.703125 -18.625 L 14.703125 -7.40625 C 14.742188 -6.351562 14.835938 -5.5 14.984375 -4.84375 C 15.128906 -4.1875 15.5 -3.632812 16.09375 -3.1875 C 16.6875 -2.75 17.59375 -2.53125 18.8125 -2.53125 L 19.203125 -2.53125 C 19.617188 -2.53125 19.910156 -2.457031 20.078125 -2.3125 C 20.253906 -2.164062 20.363281 -1.796875 20.40625 -1.203125 C 20.40625 -0.828125 20.304688 -0.5 20.109375 -0.21875 C 19.921875 0.0507812 19.640625 0.1875 19.265625 0.1875 C 16.554688 0.0625 13.9375 0 11.40625 0 C 9.125 0 6.609375 0.0625 3.859375 0.1875 Z M 3.859375 0.1875 "/></g></g></g><g fill="#472d24" fill-opacity="1"><g transform="translate(89.565183, 122.480592)"><g><path d="M 0.375 0.1875 C 0 0.1875 -0.28125 0.0507812 -0.46875 -0.21875 C -0.664062 -0.5 -0.765625 -0.828125 -0.765625 -1.203125 C -0.722656 -1.835938 -0.59375 -2.21875 -0.375 -2.34375 C -0.164062 -2.46875 0.0820312 -2.53125 0.375 -2.53125 C 0.675781 -2.53125 0.867188 -2.53125 0.953125 -2.53125 C 2.210938 -2.53125 3.140625 -2.859375 3.734375 -3.515625 C 4.328125 -4.171875 4.800781 -4.910156 5.15625 -5.734375 C 5.519531 -6.554688 5.765625 -7.113281 5.890625 -7.40625 L 16.984375 -33.640625 C 17.234375 -34.273438 17.359375 -34.785156 17.359375 -35.171875 C 17.359375 -35.929688 17.0625 -36.476562 16.46875 -36.8125 C 15.882812 -37.144531 15.0625 -37.421875 14 -37.640625 C 13.28125 -37.765625 12.835938 -37.890625 12.671875 -38.015625 C 12.503906 -38.140625 12.421875 -38.5 12.421875 -39.09375 C 12.421875 -39.601562 12.554688 -39.941406 12.828125 -40.109375 C 13.097656 -40.273438 13.53125 -40.359375 14.125 -40.359375 C 16.238281 -40.359375 17.914062 -40.195312 19.15625 -39.875 C 20.40625 -39.5625 21.492188 -38.929688 22.421875 -37.984375 C 23.359375 -37.035156 24.226562 -35.585938 25.03125 -33.640625 L 35.671875 -7.40625 C 36.304688 -5.800781 36.914062 -4.597656 37.5 -3.796875 C 38.09375 -2.992188 38.984375 -2.570312 40.171875 -2.53125 L 40.546875 -2.53125 C 40.972656 -2.53125 41.269531 -2.457031 41.4375 -2.3125 C 41.601562 -2.164062 41.707031 -1.796875 41.75 -1.203125 C 41.75 -0.828125 41.65625 -0.5 41.46875 -0.21875 C 41.28125 0.0507812 40.992188 0.1875 40.609375 0.1875 C 37.910156 0.0625 35.585938 0 33.640625 0 C 31.109375 0 28.488281 0.0625 25.78125 0.1875 C 25.40625 0.1875 25.117188 0.0507812 24.921875 -0.21875 C 24.734375 -0.5 24.640625 -0.828125 24.640625 -1.203125 C 24.679688 -1.796875 24.785156 -2.164062 24.953125 -2.3125 C 25.128906 -2.457031 25.425781 -2.53125 25.84375 -2.53125 C 27.28125 -2.53125 28.296875 -2.664062 28.890625 -2.9375 C 29.484375 -3.21875 29.78125 -3.71875 29.78125 -4.4375 C 29.78125 -4.988281 29.523438 -5.976562 29.015625 -7.40625 L 26.859375 -12.671875 L 11.21875 -12.671875 C 10.15625 -10.054688 9.550781 -8.535156 9.40625 -8.109375 C 9.257812 -7.679688 9.1875 -7.445312 9.1875 -7.40625 C 8.675781 -5.800781 8.421875 -4.769531 8.421875 -4.3125 C 8.421875 -3.59375 8.738281 -3.113281 9.375 -2.875 C 10.007812 -2.644531 11.210938 -2.53125 12.984375 -2.53125 L 13.375 -2.53125 C 13.789062 -2.53125 14.082031 -2.457031 14.25 -2.3125 C 14.425781 -2.164062 14.535156 -1.796875 14.578125 -1.203125 C 14.578125 -0.828125 14.476562 -0.5 14.28125 -0.21875 C 14.09375 0.0507812 13.8125 0.1875 13.4375 0.1875 C 10.726562 0.0625 8.425781 0 6.53125 0 C 5.175781 0 3.125 0.0625 0.375 0.1875 Z M 12.421875 -15.390625 L 25.71875 -15.390625 L 19.328125 -31.671875 L 19.140625 -31.671875 Z M 12.421875 -15.390625 "/></g></g></g><g fill="#472d24" fill-opacity="1"><g transform="translate(130.926214, 122.480592)"><g><path d="M 3.796875 0.1875 C 3.421875 0.1875 3.132812 0.0507812 2.9375 -0.21875 C 2.75 -0.5 2.65625 -0.828125 2.65625 -1.203125 C 2.695312 -1.835938 2.832031 -2.21875 3.0625 -2.34375 C 3.300781 -2.46875 3.695312 -2.53125 4.25 -2.53125 C 5.46875 -2.53125 6.375 -2.75 6.96875 -3.1875 C 7.5625 -3.632812 7.941406 -4.175781 8.109375 -4.8125 C 8.273438 -5.445312 8.378906 -6.3125 8.421875 -7.40625 L 8.421875 -32.5625 C 8.378906 -33.664062 8.273438 -34.53125 8.109375 -35.15625 C 7.941406 -35.789062 7.5625 -36.332031 6.96875 -36.78125 C 6.375 -37.226562 5.46875 -37.453125 4.25 -37.453125 L 3.859375 -37.453125 C 3.484375 -37.453125 3.195312 -37.523438 3 -37.671875 C 2.8125 -37.816406 2.695312 -38.1875 2.65625 -38.78125 C 2.65625 -39.15625 2.75 -39.476562 2.9375 -39.75 C 3.132812 -40.03125 3.421875 -40.171875 3.796875 -40.171875 C 6.546875 -40.046875 9.0625 -39.984375 11.34375 -39.984375 C 13.875 -39.984375 16.515625 -40.046875 19.265625 -40.171875 C 19.640625 -40.171875 19.921875 -40.03125 20.109375 -39.75 C 20.304688 -39.476562 20.40625 -39.15625 20.40625 -38.78125 C 20.363281 -38.144531 20.222656 -37.765625 19.984375 -37.640625 C 19.753906 -37.515625 19.34375 -37.453125 18.75 -37.453125 C 17.53125 -37.453125 16.625 -37.226562 16.03125 -36.78125 C 15.4375 -36.332031 15.066406 -35.78125 14.921875 -35.125 C 14.773438 -34.476562 14.679688 -33.625 14.640625 -32.5625 L 14.640625 -7.40625 C 14.679688 -6.351562 14.773438 -5.5 14.921875 -4.84375 C 15.066406 -4.1875 15.4375 -3.632812 16.03125 -3.1875 C 16.625 -2.75 17.53125 -2.53125 18.75 -2.53125 L 19.140625 -2.53125 C 19.554688 -2.53125 19.859375 -2.457031 20.046875 -2.3125 C 20.242188 -2.164062 20.363281 -1.796875 20.40625 -1.203125 C 20.40625 -0.828125 20.304688 -0.5 20.109375 -0.21875 C 19.921875 0.0507812 19.640625 0.1875 19.265625 0.1875 C 16.554688 0.0625 13.9375 0 11.40625 0 C 9.082031 0 6.546875 0.0625 3.796875 0.1875 Z M 3.796875 0.1875 "/></g></g></g><g fill="#472d24" fill-opacity="1"><g transform="translate(153.981962, 122.480592)"><g/></g></g><g fill="#472d24" fill-opacity="1"><g transform="translate(168.1068, 122.480592)"><g><path d="M 27.125 0.3125 C 26.488281 0.3125 26.039062 0.101562 25.78125 -0.3125 L 11.53125 -32.5625 L 11.34375 -32.5625 L 11.46875 -7.40625 C 11.507812 -6.269531 11.59375 -5.394531 11.71875 -4.78125 C 11.84375 -4.164062 12.191406 -3.632812 12.765625 -3.1875 C 13.335938 -2.75 14.234375 -2.53125 15.453125 -2.53125 L 15.84375 -2.53125 C 16.257812 -2.53125 16.5625 -2.457031 16.75 -2.3125 C 16.945312 -2.164062 17.066406 -1.796875 17.109375 -1.203125 C 17.109375 -0.828125 17.007812 -0.5 16.8125 -0.21875 C 16.625 0.0507812 16.34375 0.1875 15.96875 0.1875 L 14.375 0.125 C 12.4375 0.0390625 11.046875 0 10.203125 0 C 8.765625 0 6.671875 0.0625 3.921875 0.1875 C 3.546875 0.1875 3.257812 0.0507812 3.0625 -0.21875 C 2.875 -0.5 2.78125 -0.828125 2.78125 -1.203125 C 2.820312 -1.835938 2.945312 -2.21875 3.15625 -2.34375 C 3.375 -2.46875 3.78125 -2.53125 4.375 -2.53125 C 5.59375 -2.53125 6.488281 -2.75 7.0625 -3.1875 C 7.632812 -3.632812 7.984375 -4.164062 8.109375 -4.78125 C 8.234375 -5.394531 8.316406 -6.269531 8.359375 -7.40625 L 8.484375 -32.5625 C 8.484375 -33.875 8.335938 -34.859375 8.046875 -35.515625 C 7.753906 -36.171875 7.320312 -36.632812 6.75 -36.90625 C 6.175781 -37.175781 5.34375 -37.421875 4.25 -37.640625 C 4.070312 -37.679688 3.816406 -37.734375 3.484375 -37.796875 C 3.148438 -37.859375 2.925781 -37.984375 2.8125 -38.171875 C 2.707031 -38.359375 2.65625 -38.664062 2.65625 -39.09375 C 2.65625 -39.601562 2.789062 -39.941406 3.0625 -40.109375 C 3.34375 -40.273438 3.78125 -40.359375 4.375 -40.359375 C 6.863281 -40.359375 8.910156 -40.195312 10.515625 -39.875 C 12.117188 -39.5625 13.519531 -38.921875 14.71875 -37.953125 C 15.925781 -36.984375 16.929688 -35.546875 17.734375 -33.640625 L 28.640625 -9.1875 L 28.828125 -9.1875 L 41.3125 -39.984375 L 44.921875 -39.984375 C 47.242188 -39.984375 49.757812 -40.046875 52.46875 -40.171875 C 52.84375 -40.171875 53.125 -40.03125 53.3125 -39.75 C 53.507812 -39.476562 53.609375 -39.15625 53.609375 -38.78125 C 53.554688 -38.144531 53.414062 -37.765625 53.1875 -37.640625 C 52.957031 -37.515625 52.566406 -37.453125 52.015625 -37.453125 C 50.796875 -37.453125 49.890625 -37.226562 49.296875 -36.78125 C 48.703125 -36.332031 48.332031 -35.78125 48.1875 -35.125 C 48.039062 -34.476562 47.945312 -33.625 47.90625 -32.5625 L 47.90625 -7.40625 C 47.945312 -6.351562 48.039062 -5.5 48.1875 -4.84375 C 48.332031 -4.1875 48.703125 -3.632812 49.296875 -3.1875 C 49.890625 -2.75 50.796875 -2.53125 52.015625 -2.53125 L 52.390625 -2.53125 C 52.773438 -2.53125 53.0625 -2.457031 53.25 -2.3125 C 53.4375 -2.164062 53.554688 -1.796875 53.609375 -1.203125 C 53.609375 -0.828125 53.507812 -0.5 53.3125 -0.21875 C 53.125 0.0507812 52.84375 0.1875 52.46875 0.1875 C 49.757812 0.0625 47.222656 0 44.859375 0 C 42.410156 0 39.8125 0.0625 37.0625 0.1875 C 36.6875 0.1875 36.398438 0.0507812 36.203125 -0.21875 C 36.015625 -0.5 35.921875 -0.828125 35.921875 -1.203125 C 35.960938 -1.835938 36.085938 -2.21875 36.296875 -2.34375 C 36.515625 -2.46875 36.921875 -2.53125 37.515625 -2.53125 C 38.734375 -2.53125 39.640625 -2.75 40.234375 -3.1875 C 40.828125 -3.632812 41.195312 -4.1875 41.34375 -4.84375 C 41.488281 -5.5 41.582031 -6.351562 41.625 -7.40625 L 41.625 -32.5625 L 41.4375 -32.5625 L 28.390625 -0.3125 C 28.210938 0.101562 27.789062 0.3125 27.125 0.3125 Z M 27.125 0.3125 "/></g></g></g><g fill="#472d24" fill-opacity="1"><g transform="translate(224.416059, 122.480592)"><g><path d="M 0.375 0.1875 C 0 0.1875 -0.28125 0.0507812 -0.46875 -0.21875 C -0.664062 -0.5 -0.765625 -0.828125 -0.765625 -1.203125 C -0.722656 -1.835938 -0.59375 -2.21875 -0.375 -2.34375 C -0.164062 -2.46875 0.0820312 -2.53125 0.375 -2.53125 C 0.675781 -2.53125 0.867188 -2.53125 0.953125 -2.53125 C 2.210938 -2.53125 3.140625 -2.859375 3.734375 -3.515625 C 4.328125 -4.171875 4.800781 -4.910156 5.15625 -5.734375 C 5.519531 -6.554688 5.765625 -7.113281 5.890625 -7.40625 L 16.984375 -33.640625 C 17.234375 -34.273438 17.359375 -34.785156 17.359375 -35.171875 C 17.359375 -35.929688 17.0625 -36.476562 16.46875 -36.8125 C 15.882812 -37.144531 15.0625 -37.421875 14 -37.640625 C 13.28125 -37.765625 12.835938 -37.890625 12.671875 -38.015625 C 12.503906 -38.140625 12.421875 -38.5 12.421875 -39.09375 C 12.421875 -39.601562 12.554688 -39.941406 12.828125 -40.109375 C 13.097656 -40.273438 13.53125 -40.359375 14.125 -40.359375 C 16.238281 -40.359375 17.914062 -40.195312 19.15625 -39.875 C 20.40625 -39.5625 21.492188 -38.929688 22.421875 -37.984375 C 23.359375 -37.035156 24.226562 -35.585938 25.03125 -33.640625 L 35.671875 -7.40625 C 36.304688 -5.800781 36.914062 -4.597656 37.5 -3.796875 C 38.09375 -2.992188 38.984375 -2.570312 40.171875 -2.53125 L 40.546875 -2.53125 C 40.972656 -2.53125 41.269531 -2.457031 41.4375 -2.3125 C 41.601562 -2.164062 41.707031 -1.796875 41.75 -1.203125 C 41.75 -0.828125 41.65625 -0.5 41.46875 -0.21875 C 41.28125 0.0507812 40.992188 0.1875 40.609375 0.1875 C 37.910156 0.0625 35.585938 0 33.640625 0 C 31.109375 0 28.488281 0.0625 25.78125 0.1875 C 25.40625 0.1875 25.117188 0.0507812 24.921875 -0.21875 C 24.734375 -0.5 24.640625 -0.828125 24.640625 -1.203125 C 24.679688 -1.796875 24.785156 -2.164062 24.953125 -2.3125 C 25.128906 -2.457031 25.425781 -2.53125 25.84375 -2.53125 C 27.28125 -2.53125 28.296875 -2.664062 28.890625 -2.9375 C 29.484375 -3.21875 29.78125 -3.71875 29.78125 -4.4375 C 29.78125 -4.988281 29.523438 -5.976562 29.015625 -7.40625 L 26.859375 -12.671875 L 11.21875 -12.671875 C 10.15625 -10.054688 9.550781 -8.535156 9.40625 -8.109375 C 9.257812 -7.679688 9.1875 -7.445312 9.1875 -7.40625 C 8.675781 -5.800781 8.421875 -4.769531 8.421875 -4.3125 C 8.421875 -3.59375 8.738281 -3.113281 9.375 -2.875 C 10.007812 -2.644531 11.210938 -2.53125 12.984375 -2.53125 L 13.375 -2.53125 C 13.789062 -2.53125 14.082031 -2.457031 14.25 -2.3125 C 14.425781 -2.164062 14.535156 -1.796875 14.578125 -1.203125 C 14.578125 -0.828125 14.476562 -0.5 14.28125 -0.21875 C 14.09375 0.0507812 13.8125 0.1875 13.4375 0.1875 C 10.726562 0.0625 8.425781 0 6.53125 0 C 5.175781 0 3.125 0.0625 0.375 0.1875 Z M 12.421875 -15.390625 L 25.71875 -15.390625 L 19.328125 -31.671875 L 19.140625 -31.671875 Z M 12.421875 -15.390625 "/></g></g></g><g fill="#472d24" fill-opacity="1"><g transform="translate(265.77709, 122.480592)"><g><path d="M 16.796875 1.265625 C 12.359375 1.265625 8.96875 0.492188 6.625 -1.046875 C 4.28125 -2.585938 3.109375 -4.859375 3.109375 -7.859375 C 3.109375 -9.378906 3.625 -10.632812 4.65625 -11.625 C 5.6875 -12.613281 7.03125 -13.109375 8.6875 -13.109375 C 9.65625 -13.066406 10.390625 -12.820312 10.890625 -12.375 C 11.398438 -11.9375 11.65625 -11.53125 11.65625 -11.15625 C 11.65625 -11.113281 11.441406 -10.960938 11.015625 -10.703125 C 10.597656 -10.453125 10.21875 -10.070312 9.875 -9.5625 C 9.539062 -9.0625 9.375 -8.363281 9.375 -7.46875 C 9.375 -5.488281 9.972656 -3.957031 11.171875 -2.875 C 12.378906 -1.800781 14.253906 -1.265625 16.796875 -1.265625 C 18.523438 -1.265625 20.039062 -1.601562 21.34375 -2.28125 C 22.65625 -2.957031 23.660156 -3.851562 24.359375 -4.96875 C 25.054688 -6.09375 25.40625 -7.265625 25.40625 -8.484375 C 25.40625 -10.003906 24.972656 -11.3125 24.109375 -12.40625 C 23.242188 -13.507812 22.175781 -14.429688 20.90625 -15.171875 C 19.632812 -15.910156 17.90625 -16.765625 15.71875 -17.734375 C 13.175781 -18.878906 11.125 -19.914062 9.5625 -20.84375 C 8 -21.769531 6.664062 -23.003906 5.5625 -24.546875 C 4.46875 -26.085938 3.921875 -28 3.921875 -30.28125 C 3.921875 -33.957031 5.175781 -36.703125 7.6875 -38.515625 C 10.207031 -40.335938 13.515625 -41.25 17.609375 -41.25 C 20.816406 -41.25 23.613281 -40.570312 26 -39.21875 C 28.394531 -37.863281 29.59375 -35.878906 29.59375 -33.265625 C 29.59375 -31.742188 29.070312 -30.484375 28.03125 -29.484375 C 27 -28.492188 25.660156 -28 24.015625 -28 C 23.046875 -28.039062 22.304688 -28.285156 21.796875 -28.734375 C 21.285156 -29.179688 21.03125 -29.59375 21.03125 -29.96875 C 21.03125 -30.007812 21.316406 -30.15625 21.890625 -30.40625 C 22.460938 -30.664062 22.96875 -31.046875 23.40625 -31.546875 C 23.851562 -32.054688 24.078125 -32.753906 24.078125 -33.640625 C 24.078125 -35.203125 23.472656 -36.425781 22.265625 -37.3125 C 21.066406 -38.207031 19.535156 -38.65625 17.671875 -38.65625 C 15.097656 -38.65625 13.144531 -38.050781 11.8125 -36.84375 C 10.488281 -35.632812 9.828125 -34.144531 9.828125 -32.375 C 9.828125 -30.894531 10.226562 -29.660156 11.03125 -28.671875 C 11.832031 -27.679688 13.117188 -26.695312 14.890625 -25.71875 C 16.328125 -24.957031 17.890625 -24.195312 19.578125 -23.4375 C 22.285156 -22.21875 24.429688 -21.097656 26.015625 -20.078125 C 27.597656 -19.066406 28.925781 -17.738281 30 -16.09375 C 31.070312 -14.445312 31.609375 -12.398438 31.609375 -9.953125 C 31.609375 -7.835938 30.941406 -5.921875 29.609375 -4.203125 C 28.285156 -2.492188 26.492188 -1.15625 24.234375 -0.1875 C 21.972656 0.78125 19.492188 1.265625 16.796875 1.265625 Z M 16.796875 1.265625 "/></g></g></g><g fill="#472d24" fill-opacity="1"><g transform="translate(300.297369, 122.480592)"><g><path d="M 16.796875 1.265625 C 12.359375 1.265625 8.96875 0.492188 6.625 -1.046875 C 4.28125 -2.585938 3.109375 -4.859375 3.109375 -7.859375 C 3.109375 -9.378906 3.625 -10.632812 4.65625 -11.625 C 5.6875 -12.613281 7.03125 -13.109375 8.6875 -13.109375 C 9.65625 -13.066406 10.390625 -12.820312 10.890625 -12.375 C 11.398438 -11.9375 11.65625 -11.53125 11.65625 -11.15625 C 11.65625 -11.113281 11.441406 -10.960938 11.015625 -10.703125 C 10.597656 -10.453125 10.21875 -10.070312 9.875 -9.5625 C 9.539062 -9.0625 9.375 -8.363281 9.375 -7.46875 C 9.375 -5.488281 9.972656 -3.957031 11.171875 -2.875 C 12.378906 -1.800781 14.253906 -1.265625 16.796875 -1.265625 C 18.523438 -1.265625 20.039062 -1.601562 21.34375 -2.28125 C 22.65625 -2.957031 23.660156 -3.851562 24.359375 -4.96875 C 25.054688 -6.09375 25.40625 -7.265625 25.40625 -8.484375 C 25.40625 -10.003906 24.972656 -11.3125 24.109375 -12.40625 C 23.242188 -13.507812 22.175781 -14.429688 20.90625 -15.171875 C 19.632812 -15.910156 17.90625 -16.765625 15.71875 -17.734375 C 13.175781 -18.878906 11.125 -19.914062 9.5625 -20.84375 C 8 -21.769531 6.664062 -23.003906 5.5625 -24.546875 C 4.46875 -26.085938 3.921875 -28 3.921875 -30.28125 C 3.921875 -33.957031 5.175781 -36.703125 7.6875 -38.515625 C 10.207031 -40.335938 13.515625 -41.25 17.609375 -41.25 C 20.816406 -41.25 23.613281 -40.570312 26 -39.21875 C 28.394531 -37.863281 29.59375 -35.878906 29.59375 -33.265625 C 29.59375 -31.742188 29.070312 -30.484375 28.03125 -29.484375 C 27 -28.492188 25.660156 -28 24.015625 -28 C 23.046875 -28.039062 22.304688 -28.285156 21.796875 -28.734375 C 21.285156 -29.179688 21.03125 -29.59375 21.03125 -29.96875 C 21.03125 -30.007812 21.316406 -30.15625 21.890625 -30.40625 C 22.460938 -30.664062 22.96875 -31.046875 23.40625 -31.546875 C 23.851562 -32.054688 24.078125 -32.753906 24.078125 -33.640625 C 24.078125 -35.203125 23.472656 -36.425781 22.265625 -37.3125 C 21.066406 -38.207031 19.535156 -38.65625 17.671875 -38.65625 C 15.097656 -38.65625 13.144531 -38.050781 11.8125 -36.84375 C 10.488281 -35.632812 9.828125 -34.144531 9.828125 -32.375 C 9.828125 -30.894531 10.226562 -29.660156 11.03125 -28.671875 C 11.832031 -27.679688 13.117188 -26.695312 14.890625 -25.71875 C 16.328125 -24.957031 17.890625 -24.195312 19.578125 -23.4375 C 22.285156 -22.21875 24.429688 -21.097656 26.015625 -20.078125 C 27.597656 -19.066406 28.925781 -17.738281 30 -16.09375 C 31.070312 -14.445312 31.609375 -12.398438 31.609375 -9.953125 C 31.609375 -7.835938 30.941406 -5.921875 29.609375 -4.203125 C 28.285156 -2.492188 26.492188 -1.15625 24.234375 -0.1875 C 21.972656 0.78125 19.492188 1.265625 16.796875 1.265625 Z M 16.796875 1.265625 "/></g></g></g><g fill="#472d24" fill-opacity="1"><g transform="translate(334.817648, 122.480592)"><g><path d="M 0.375 0.1875 C 0 0.1875 -0.28125 0.0507812 -0.46875 -0.21875 C -0.664062 -0.5 -0.765625 -0.828125 -0.765625 -1.203125 C -0.722656 -1.835938 -0.59375 -2.21875 -0.375 -2.34375 C -0.164062 -2.46875 0.0820312 -2.53125 0.375 -2.53125 C 0.675781 -2.53125 0.867188 -2.53125 0.953125 -2.53125 C 2.210938 -2.53125 3.140625 -2.859375 3.734375 -3.515625 C 4.328125 -4.171875 4.800781 -4.910156 5.15625 -5.734375 C 5.519531 -6.554688 5.765625 -7.113281 5.890625 -7.40625 L 16.984375 -33.640625 C 17.234375 -34.273438 17.359375 -34.785156 17.359375 -35.171875 C 17.359375 -35.929688 17.0625 -36.476562 16.46875 -36.8125 C 15.882812 -37.144531 15.0625 -37.421875 14 -37.640625 C 13.28125 -37.765625 12.835938 -37.890625 12.671875 -38.015625 C 12.503906 -38.140625 12.421875 -38.5 12.421875 -39.09375 C 12.421875 -39.601562 12.554688 -39.941406 12.828125 -40.109375 C 13.097656 -40.273438 13.53125 -40.359375 14.125 -40.359375 C 16.238281 -40.359375 17.914062 -40.195312 19.15625 -39.875 C 20.40625 -39.5625 21.492188 -38.929688 22.421875 -37.984375 C 23.359375 -37.035156 24.226562 -35.585938 25.03125 -33.640625 L 35.671875 -7.40625 C 36.304688 -5.800781 36.914062 -4.597656 37.5 -3.796875 C 38.09375 -2.992188 38.984375 -2.570312 40.171875 -2.53125 L 40.546875 -2.53125 C 40.972656 -2.53125 41.269531 -2.457031 41.4375 -2.3125 C 41.601562 -2.164062 41.707031 -1.796875 41.75 -1.203125 C 41.75 -0.828125 41.65625 -0.5 41.46875 -0.21875 C 41.28125 0.0507812 40.992188 0.1875 40.609375 0.1875 C 37.910156 0.0625 35.585938 0 33.640625 0 C 31.109375 0 28.488281 0.0625 25.78125 0.1875 C 25.40625 0.1875 25.117188 0.0507812 24.921875 -0.21875 C 24.734375 -0.5 24.640625 -0.828125 24.640625 -1.203125 C 24.679688 -1.796875 24.785156 -2.164062 24.953125 -2.3125 C 25.128906 -2.457031 25.425781 -2.53125 25.84375 -2.53125 C 27.28125 -2.53125 28.296875 -2.664062 28.890625 -2.9375 C 29.484375 -3.21875 29.78125 -3.71875 29.78125 -4.4375 C 29.78125 -4.988281 29.523438 -5.976562 29.015625 -7.40625 L 26.859375 -12.671875 L 11.21875 -12.671875 C 10.15625 -10.054688 9.550781 -8.535156 9.40625 -8.109375 C 9.257812 -7.679688 9.1875 -7.445312 9.1875 -7.40625 C 8.675781 -5.800781 8.421875 -4.769531 8.421875 -4.3125 C 8.421875 -3.59375 8.738281 -3.113281 9.375 -2.875 C 10.007812 -2.644531 11.210938 -2.53125 12.984375 -2.53125 L 13.375 -2.53125 C 13.789062 -2.53125 14.082031 -2.457031 14.25 -2.3125 C 14.425781 -2.164062 14.535156 -1.796875 14.578125 -1.203125 C 14.578125 -0.828125 14.476562 -0.5 14.28125 -0.21875 C 14.09375 0.0507812 13.8125 0.1875 13.4375 0.1875 C 10.726562 0.0625 8.425781 0 6.53125 0 C 5.175781 0 3.125 0.0625 0.375 0.1875 Z M 12.421875 -15.390625 L 25.71875 -15.390625 L 19.328125 -31.671875 L 19.140625 -31.671875 Z M 12.421875 -15.390625 "/></g></g></g><g fill="#472d24" fill-opacity="1"><g transform="translate(376.178679, 122.480592)"><g><path d="M 22.75 1.265625 C 19.070312 1.265625 15.742188 0.492188 12.765625 -1.046875 C 9.785156 -2.585938 7.429688 -4.929688 5.703125 -8.078125 C 3.972656 -11.222656 3.109375 -15.097656 3.109375 -19.703125 C 3.109375 -23.972656 4.046875 -27.734375 5.921875 -30.984375 C 7.804688 -34.234375 10.414062 -36.753906 13.75 -38.546875 C 17.082031 -40.347656 20.90625 -41.25 25.21875 -41.25 C 27.332031 -41.25 29.421875 -40.929688 31.484375 -40.296875 C 33.554688 -39.660156 35.269531 -38.664062 36.625 -37.3125 C 37.976562 -35.96875 38.65625 -34.300781 38.65625 -32.3125 C 38.65625 -30.457031 38.101562 -28.851562 37 -27.5 C 35.90625 -26.144531 34.445312 -25.46875 32.625 -25.46875 C 31.738281 -25.46875 30.882812 -25.675781 30.0625 -26.09375 C 29.238281 -26.519531 28.804688 -27.070312 28.765625 -27.75 C 28.765625 -27.789062 29.046875 -28.019531 29.609375 -28.4375 C 30.179688 -28.863281 30.710938 -29.4375 31.203125 -30.15625 C 31.691406 -30.875 31.9375 -31.738281 31.9375 -32.75 C 31.9375 -34.53125 31.238281 -35.96875 29.84375 -37.0625 C 28.445312 -38.164062 26.648438 -38.71875 24.453125 -38.71875 C 21.835938 -38.71875 19.472656 -37.988281 17.359375 -36.53125 C 15.242188 -35.070312 13.570312 -32.9375 12.34375 -30.125 C 11.125 -27.3125 10.515625 -23.960938 10.515625 -20.078125 C 10.515625 -16.328125 11.113281 -13.078125 12.3125 -10.328125 C 13.519531 -7.578125 15.210938 -5.472656 17.390625 -4.015625 C 19.566406 -2.566406 22.09375 -1.84375 24.96875 -1.84375 C 26.3125 -1.84375 27.488281 -1.914062 28.5 -2.0625 C 29.519531 -2.207031 30.625 -2.46875 31.8125 -2.84375 L 31.8125 -9.3125 C 31.8125 -10.789062 31.753906 -11.828125 31.640625 -12.421875 C 31.535156 -13.015625 31.195312 -13.457031 30.625 -13.75 C 30.0625 -14.039062 29.101562 -14.1875 27.75 -14.1875 C 27.28125 -14.1875 26.941406 -14.257812 26.734375 -14.40625 C 26.523438 -14.5625 26.398438 -14.929688 26.359375 -15.515625 C 26.359375 -15.898438 26.472656 -16.226562 26.703125 -16.5 C 26.929688 -16.78125 27.257812 -16.921875 27.6875 -16.921875 C 30.34375 -16.796875 32.664062 -16.734375 34.65625 -16.734375 C 36.5625 -16.734375 38.84375 -16.796875 41.5 -16.921875 C 41.882812 -16.921875 42.179688 -16.78125 42.390625 -16.5 C 42.597656 -16.226562 42.703125 -15.898438 42.703125 -15.515625 C 42.660156 -14.929688 42.53125 -14.5625 42.3125 -14.40625 C 42.101562 -14.257812 41.769531 -14.1875 41.3125 -14.1875 C 40.039062 -14.1875 39.128906 -14.015625 38.578125 -13.671875 C 38.035156 -13.335938 37.695312 -12.863281 37.5625 -12.25 C 37.4375 -11.644531 37.375 -10.664062 37.375 -9.3125 L 37.375 -1.84375 C 34.882812 -0.65625 32.601562 0.15625 30.53125 0.59375 C 28.46875 1.039062 25.875 1.265625 22.75 1.265625 Z M 22.75 1.265625 "/></g></g></g><g fill="#472d24" fill-opacity="1"><g transform="translate(420.009967, 122.480592)"><g><path d="M 3.796875 0.1875 C 3.460938 0.1875 3.195312 0.0507812 3 -0.21875 C 2.8125 -0.5 2.71875 -0.828125 2.71875 -1.203125 C 2.757812 -1.835938 2.882812 -2.21875 3.09375 -2.34375 C 3.3125 -2.46875 3.71875 -2.53125 4.3125 -2.53125 C 5.53125 -2.53125 6.4375 -2.75 7.03125 -3.1875 C 7.625 -3.632812 7.992188 -4.1875 8.140625 -4.84375 C 8.285156 -5.5 8.378906 -6.351562 8.421875 -7.40625 L 8.421875 -32.5625 C 8.378906 -33.625 8.285156 -34.476562 8.140625 -35.125 C 7.992188 -35.78125 7.625 -36.332031 7.03125 -36.78125 C 6.4375 -37.226562 5.53125 -37.453125 4.3125 -37.453125 L 3.921875 -37.453125 C 3.503906 -37.453125 3.207031 -37.523438 3.03125 -37.671875 C 2.863281 -37.816406 2.757812 -38.1875 2.71875 -38.78125 C 2.71875 -39.15625 2.8125 -39.476562 3 -39.75 C 3.195312 -40.03125 3.460938 -40.171875 3.796875 -40.171875 C 6.585938 -40.046875 9.101562 -39.984375 11.34375 -39.984375 L 31.234375 -39.984375 C 32.335938 -39.984375 32.890625 -39.472656 32.890625 -38.453125 L 33.078125 -29.59375 C 33.078125 -29.207031 32.882812 -28.898438 32.5 -28.671875 C 32.125 -28.441406 31.742188 -28.328125 31.359375 -28.328125 C 30.859375 -28.328125 30.414062 -28.421875 30.03125 -28.609375 C 29.65625 -28.796875 29.445312 -29.082031 29.40625 -29.46875 C 29.0625 -31.53125 28.6875 -33.097656 28.28125 -34.171875 C 27.882812 -35.253906 27.296875 -36.054688 26.515625 -36.578125 C 25.734375 -37.109375 24.625 -37.398438 23.1875 -37.453125 L 14.703125 -37.453125 L 14.703125 -21.359375 L 26.171875 -21.359375 C 26.460938 -21.304688 26.691406 -21.144531 26.859375 -20.875 C 27.035156 -20.601562 27.125 -20.273438 27.125 -19.890625 C 27.125 -19.554688 27.035156 -19.257812 26.859375 -19 C 26.691406 -18.75 26.460938 -18.625 26.171875 -18.625 L 14.703125 -18.625 L 14.703125 -6.65625 C 14.785156 -5.769531 14.890625 -5.0625 15.015625 -4.53125 C 15.140625 -4 15.519531 -3.519531 16.15625 -3.09375 C 16.789062 -2.675781 17.785156 -2.488281 19.140625 -2.53125 L 24.96875 -2.53125 C 26.445312 -2.570312 27.566406 -2.8125 28.328125 -3.25 C 29.085938 -3.695312 29.6875 -4.382812 30.125 -5.3125 C 30.570312 -6.25 31.113281 -7.773438 31.75 -9.890625 C 32.039062 -10.648438 32.753906 -10.941406 33.890625 -10.765625 C 34.316406 -10.679688 34.6875 -10.515625 35 -10.265625 C 35.320312 -10.015625 35.460938 -9.695312 35.421875 -9.3125 L 34.15625 -1.328125 C 34.019531 -0.773438 33.828125 -0.414062 33.578125 -0.25 C 33.328125 -0.0820312 32.90625 0 32.3125 0 L 11.40625 0 C 9.125 0 6.585938 0.0625 3.796875 0.1875 Z M 3.796875 0.1875 "/></g></g></g></g></g></svg>