<svg xmlns="http://www.w3.org/2000/svg" xmlns:xlink="http://www.w3.org/1999/xlink" width="500" zoomAndPan="magnify" viewBox="0 0 375 374.999991" height="500" preserveAspectRatio="xMidYMid meet" version="1.0"><defs><clipPath id="f103ac76fa"><path d="M 115 193 L 260 193 L 260 374.785156 L 115 374.785156 Z M 115 193 " clip-rule="nonzero"/></clipPath><clipPath id="bbc1973088"><path d="M 193 115 L 374.785156 115 L 374.785156 260 L 193 260 Z M 193 115 " clip-rule="nonzero"/></clipPath><clipPath id="643f577892"><path d="M 162 121.800781 L 213 121.800781 L 213 186 L 162 186 Z M 162 121.800781 " clip-rule="nonzero"/></clipPath><clipPath id="db02605f92"><path d="M 121.800781 162 L 186 162 L 186 213 L 121.800781 213 Z M 121.800781 162 " clip-rule="nonzero"/></clipPath><clipPath id="fbac3bbace"><rect x="0" width="375" y="0" height="375"/></clipPath></defs><g transform="matrix(1, 0, 0, 1, 0, 0)"><g clip-path="url(#fbac3bbace)"><path fill="#6a8e4e" d="M 187.511719 0 L 246.53125 59.019531 C 264.132812 76.621094 264.132812 105.199219 246.53125 122.796875 L 187.511719 181.816406 L 128.492188 122.796875 C 110.890625 105.199219 110.890625 76.621094 128.492188 59.019531 Z M 187.511719 0 " fill-opacity="1" fill-rule="nonzero"/><path fill="#2c473e" d="M 187.511719 39.148438 L 226.957031 78.59375 C 244.554688 96.195312 244.554688 124.773438 226.957031 142.371094 L 187.511719 181.816406 L 148.066406 142.371094 C 130.464844 124.773438 130.464844 96.195312 148.066406 78.59375 Z M 187.511719 39.148438 " fill-opacity="1" fill-rule="nonzero"/><g clip-path="url(#f103ac76fa)"><path fill="#6a8e4e" d="M 187.511719 375.023438 L 128.492188 316 C 110.890625 298.402344 110.890625 269.824219 128.492188 252.222656 L 187.511719 193.203125 L 246.53125 252.222656 C 264.132812 269.824219 264.132812 298.402344 246.53125 316 Z M 187.511719 375.023438 " fill-opacity="1" fill-rule="nonzero"/></g><path fill="#2c473e" d="M 187.511719 335.875 L 148.066406 296.429688 C 130.464844 278.828125 130.464844 250.25 148.066406 232.652344 L 187.511719 193.207031 L 226.957031 232.652344 C 244.554688 250.25 244.554688 278.828125 226.957031 296.429688 Z M 187.511719 335.875 " fill-opacity="1" fill-rule="nonzero"/><g clip-path="url(#bbc1973088)"><path fill="#6a8e4e" d="M 375.023438 187.511719 L 316 246.53125 C 298.402344 264.132812 269.824219 264.132812 252.222656 246.53125 L 193.203125 187.511719 L 252.222656 128.492188 C 269.824219 110.890625 298.402344 110.890625 316 128.492188 Z M 375.023438 187.511719 " fill-opacity="1" fill-rule="nonzero"/></g><path fill="#2c473e" d="M 335.875 187.511719 L 296.429688 226.957031 C 278.828125 244.554688 250.25 244.554688 232.652344 226.957031 L 193.207031 187.511719 L 232.652344 148.066406 C 250.25 130.464844 278.828125 130.464844 296.429688 148.066406 Z M 335.875 187.511719 " fill-opacity="1" fill-rule="nonzero"/><path fill="#6a8e4e" d="M 0 187.511719 L 59.019531 128.492188 C 76.621094 110.890625 105.199219 110.890625 122.796875 128.492188 L 181.816406 187.511719 L 122.796875 246.53125 C 105.199219 264.132812 76.621094 264.132812 59.019531 246.53125 Z M 0 187.511719 " fill-opacity="1" fill-rule="nonzero"/><path fill="#2c473e" d="M 39.148438 187.511719 L 78.59375 148.066406 C 96.195312 130.464844 124.773438 130.464844 142.371094 148.066406 L 181.816406 187.511719 L 142.371094 226.957031 C 124.773438 244.554688 96.195312 244.554688 78.59375 226.957031 Z M 39.148438 187.511719 " fill-opacity="1" fill-rule="nonzero"/><g clip-path="url(#643f577892)"><path fill="#2c473e" d="M 187.476562 121.800781 L 208.148438 142.472656 C 214.3125 148.636719 214.3125 158.644531 208.148438 164.808594 L 187.476562 185.480469 L 166.804688 164.808594 C 160.640625 158.644531 160.640625 148.636719 166.804688 142.472656 Z M 187.476562 121.800781 " fill-opacity="1" fill-rule="nonzero"/></g><path fill="#ffffff" d="M 187.476562 135.511719 L 201.292969 149.328125 C 207.457031 155.492188 207.457031 165.5 201.292969 171.664062 L 187.476562 185.480469 L 173.660156 171.664062 C 167.496094 165.5 167.496094 155.492188 173.660156 149.328125 Z M 187.476562 135.511719 " fill-opacity="1" fill-rule="nonzero"/><path fill="#2c473e" d="M 187.476562 253.152344 L 166.804688 232.480469 C 160.640625 226.316406 160.640625 216.304688 166.804688 210.140625 L 187.476562 189.46875 L 208.148438 210.140625 C 214.3125 216.304688 214.3125 226.316406 208.148438 232.480469 Z M 187.476562 253.152344 " fill-opacity="1" fill-rule="nonzero"/><path fill="#ffffff" d="M 187.476562 239.441406 L 173.660156 225.625 C 167.496094 219.460938 167.496094 209.449219 173.660156 203.285156 L 187.476562 189.46875 L 201.292969 203.285156 C 207.457031 209.449219 207.457031 219.460938 201.292969 225.625 Z M 187.476562 239.441406 " fill-opacity="1" fill-rule="nonzero"/><path fill="#2c473e" d="M 253.152344 187.476562 L 232.480469 208.148438 C 226.316406 214.3125 216.304688 214.3125 210.140625 208.148438 L 189.46875 187.476562 L 210.140625 166.804688 C 216.304688 160.640625 226.316406 160.640625 232.480469 166.804688 Z M 253.152344 187.476562 " fill-opacity="1" fill-rule="nonzero"/><path fill="#ffffff" d="M 239.441406 187.476562 L 225.625 201.292969 C 219.460938 207.457031 209.449219 207.457031 203.285156 201.292969 L 189.46875 187.476562 L 203.285156 173.660156 C 209.449219 167.496094 219.460938 167.496094 225.625 173.660156 Z M 239.441406 187.476562 " fill-opacity="1" fill-rule="nonzero"/><g clip-path="url(#db02605f92)"><path fill="#2c473e" d="M 121.800781 187.476562 L 142.472656 166.804688 C 148.636719 160.640625 158.644531 160.640625 164.808594 166.804688 L 185.480469 187.476562 L 164.808594 208.148438 C 158.644531 214.3125 148.636719 214.3125 142.472656 208.148438 Z M 121.800781 187.476562 " fill-opacity="1" fill-rule="nonzero"/></g><path fill="#ffffff" d="M 135.511719 187.476562 L 149.328125 173.660156 C 155.492188 167.496094 165.5 167.496094 171.664062 173.660156 L 185.480469 187.476562 L 171.664062 201.292969 C 165.5 207.457031 155.492188 207.457031 149.328125 201.292969 Z M 135.511719 187.476562 " fill-opacity="1" fill-rule="nonzero"/></g></g></svg>