<svg xmlns="http://www.w3.org/2000/svg" xmlns:xlink="http://www.w3.org/1999/xlink" width="1500" zoomAndPan="magnify" viewBox="0 0 1125 374.999991" height="500" preserveAspectRatio="xMidYMid meet" version="1.0"><defs><g/><clipPath id="272ee15215"><path d="M 0.40625 0 L 375.40625 0 L 375.40625 375 L 0.40625 375 Z M 0.40625 0 " clip-rule="nonzero"/></clipPath><clipPath id="ea40c756d5"><path d="M 187.90625 0 C 84.351562 0 0.40625 83.945312 0.40625 187.5 C 0.40625 291.054688 84.351562 375 187.90625 375 C 291.460938 375 375.40625 291.054688 375.40625 187.5 C 375.40625 83.945312 291.460938 0 187.90625 0 Z M 187.90625 0 " clip-rule="nonzero"/></clipPath><clipPath id="c3e5ed28c5"><path d="M 0.40625 0 L 375.40625 0 L 375.40625 375 L 0.40625 375 Z M 0.40625 0 " clip-rule="nonzero"/></clipPath><clipPath id="1a348e2302"><path d="M 187.90625 0 C 84.351562 0 0.40625 83.945312 0.40625 187.5 C 0.40625 291.054688 84.351562 375 187.90625 375 C 291.460938 375 375.40625 291.054688 375.40625 187.5 C 375.40625 83.945312 291.460938 0 187.90625 0 Z M 187.90625 0 " clip-rule="nonzero"/></clipPath><clipPath id="6ac16d083b"><rect x="0" width="376" y="0" height="375"/></clipPath><clipPath id="6715691726"><path d="M 345 54.644531 L 372 54.644531 L 372 87 L 345 87 Z M 345 54.644531 " clip-rule="nonzero"/></clipPath><clipPath id="9d66c9b9e2"><path d="M 345 88 L 372 88 L 372 119.527344 L 345 119.527344 Z M 345 88 " clip-rule="nonzero"/></clipPath><clipPath id="21e51d4d01"><path d="M 359 74 L 390.765625 74 L 390.765625 100 L 359 100 Z M 359 74 " clip-rule="nonzero"/></clipPath><clipPath id="48e7d37c54"><path d="M 325.882812 74 L 358 74 L 358 100 L 325.882812 100 Z M 325.882812 74 " clip-rule="nonzero"/></clipPath><clipPath id="81fa217ae0"><path d="M 823.839844 262.523438 L 1058.1875 262.523438 L 1058.1875 356.457031 L 823.839844 356.457031 Z M 823.839844 262.523438 " clip-rule="nonzero"/></clipPath><clipPath id="c141d47764"><path d="M 823.839844 267 L 1058.1875 267 L 1058.1875 353 L 823.839844 353 Z M 823.839844 267 " clip-rule="nonzero"/></clipPath><clipPath id="1e882b11c9"><rect x="0" width="190" y="0" height="66"/></clipPath><clipPath id="1086f2bb76"><rect x="0" width="1045" y="0" height="300"/></clipPath><clipPath id="ed62822393"><rect x="0" width="1105" y="0" height="375"/></clipPath></defs><g transform="matrix(1, 0, 0, 1, 20, 0)"><g clip-path="url(#ed62822393)"><g clip-path="url(#272ee15215)"><g clip-path="url(#ea40c756d5)"><g><g clip-path="url(#6ac16d083b)"><g clip-path="url(#c3e5ed28c5)"><g clip-path="url(#1a348e2302)"><path fill="#6a8e4e" d="M 0.40625 0 L 375.40625 0 L 375.40625 375 L 0.40625 375 Z M 0.40625 0 " fill-opacity="1" fill-rule="nonzero"/></g></g></g></g></g></g><g clip-path="url(#6715691726)"><path fill="#6a8e4e" d="M 358.492188 54.644531 L 368.757812 64.910156 C 371.816406 67.96875 371.816406 72.9375 368.757812 76 L 358.492188 86.265625 L 348.230469 76 C 345.167969 72.9375 345.167969 67.96875 348.230469 64.910156 Z M 358.492188 54.644531 " fill-opacity="1" fill-rule="nonzero"/></g><path fill="#ffffff" d="M 358.492188 61.453125 L 365.351562 68.3125 C 368.414062 71.375 368.414062 76.34375 365.351562 79.40625 L 358.492188 86.265625 L 351.632812 79.40625 C 348.574219 76.34375 348.574219 71.375 351.632812 68.3125 Z M 358.492188 61.453125 " fill-opacity="1" fill-rule="nonzero"/><g clip-path="url(#9d66c9b9e2)"><path fill="#6a8e4e" d="M 358.492188 119.863281 L 348.230469 109.601562 C 345.167969 106.539062 345.167969 101.570312 348.230469 98.507812 L 358.492188 88.246094 L 368.757812 98.507812 C 371.820312 101.570312 371.820312 106.539062 368.757812 109.601562 Z M 358.492188 119.863281 " fill-opacity="1" fill-rule="nonzero"/></g><path fill="#ffffff" d="M 358.492188 113.054688 L 351.632812 106.195312 C 348.574219 103.136719 348.574219 98.164062 351.632812 95.105469 L 358.492188 88.246094 L 365.351562 95.105469 C 368.414062 98.164062 368.414062 103.136719 365.351562 106.195312 Z M 358.492188 113.054688 " fill-opacity="1" fill-rule="nonzero"/><g clip-path="url(#21e51d4d01)"><path fill="#6a8e4e" d="M 391.101562 87.253906 L 380.839844 97.519531 C 377.777344 100.578125 372.808594 100.578125 369.746094 97.519531 L 359.484375 87.253906 L 369.746094 76.992188 C 372.808594 73.929688 377.777344 73.929688 380.839844 76.992188 Z M 391.101562 87.253906 " fill-opacity="1" fill-rule="nonzero"/></g><path fill="#ffffff" d="M 384.296875 87.253906 L 377.433594 94.113281 C 374.375 97.175781 369.40625 97.175781 366.34375 94.113281 L 359.484375 87.253906 L 366.34375 80.394531 C 369.40625 77.332031 374.375 77.332031 377.433594 80.394531 Z M 384.296875 87.253906 " fill-opacity="1" fill-rule="nonzero"/><g clip-path="url(#48e7d37c54)"><path fill="#6a8e4e" d="M 325.882812 87.253906 L 336.148438 76.992188 C 339.207031 73.929688 344.179688 73.929688 347.238281 76.992188 L 357.503906 87.253906 L 347.238281 97.519531 C 344.179688 100.578125 339.207031 100.578125 336.148438 97.519531 Z M 325.882812 87.253906 " fill-opacity="1" fill-rule="nonzero"/></g><path fill="#ffffff" d="M 332.691406 87.253906 L 339.550781 80.394531 C 342.613281 77.332031 347.582031 77.332031 350.644531 80.394531 L 357.503906 87.253906 L 350.644531 94.113281 C 347.582031 97.175781 342.613281 97.175781 339.550781 94.113281 Z M 332.691406 87.253906 " fill-opacity="1" fill-rule="nonzero"/><g clip-path="url(#81fa217ae0)"><path fill="#6a8e4e" d="M 685.417969 312.441406 C 689.597656 308.820312 695.1875 307.40625 698.921875 303.21875 C 700.5 301.453125 701.886719 299.648438 703.234375 297.890625 C 707.714844 292.050781 711.792969 286.742188 720.378906 285.175781 C 720.582031 277.683594 725.816406 272.179688 732.375 268.46875 C 739.058594 264.6875 747.148438 262.765625 752.5 262.53125 C 752.511719 262.53125 752.566406 262.527344 752.671875 262.523438 L 1128.445312 262.523438 C 1128.550781 262.527344 1128.605469 262.53125 1128.617188 262.53125 C 1133.96875 262.765625 1142.058594 264.683594 1148.742188 268.46875 C 1155.300781 272.179688 1160.539062 277.683594 1160.742188 285.175781 C 1169.324219 286.742188 1173.402344 292.050781 1177.886719 297.890625 C 1179.078125 299.441406 1180.296875 301.035156 1181.65625 302.605469 C 1181.226562 302.113281 1180.890625 301.734375 1182.191406 303.21875 L 1182.195312 303.21875 C 1182.011719 303.011719 1181.832031 302.808594 1181.65625 302.605469 C 1181.898438 302.878906 1182.171875 303.1875 1182.195312 303.21875 L 1182.199219 303.214844 C 1182.671875 303.746094 1183.234375 304.261719 1183.84375 304.757812 C 1184.46875 305.257812 1185.1875 305.773438 1185.960938 306.285156 C 1188.585938 308.011719 1195.019531 311.71875 1196.492188 312.441406 C 1193.058594 314.699219 1187.484375 318.011719 1184.390625 320.761719 C 1182.953125 322.039062 1181.636719 323.632812 1180.246094 325.3125 C 1176.09375 330.328125 1171.359375 336.050781 1160.59375 337.769531 C 1160.339844 339.46875 1159.878906 341.035156 1159.238281 342.472656 C 1158.464844 344.210938 1157.4375 345.753906 1156.203125 347.117188 C 1150.03125 353.960938 1138.71875 356.417969 1128.972656 356.679688 L 752.140625 356.679688 C 750.277344 356.632812 748.34375 356.5 746.386719 356.269531 C 744.449219 356.042969 742.492188 355.714844 740.5625 355.277344 C 730.769531 353.039062 722.015625 347.886719 720.523438 337.769531 C 709.757812 336.050781 705.023438 330.328125 700.871094 325.308594 C 699.484375 323.632812 698.164062 322.035156 696.726562 320.761719 C 696.597656 320.648438 696.484375 320.542969 696.375 320.449219 C 693.085938 317.605469 689.070312 314.851562 685.414062 312.441406 Z M 685.417969 312.441406 " fill-opacity="1" fill-rule="nonzero"/></g><g clip-path="url(#c141d47764)"><path fill="#2c473e" d="M 693.703125 312.535156 C 695.660156 313.941406 697.574219 315.410156 699.382812 316.972656 C 699.515625 317.089844 699.648438 317.207031 699.78125 317.328125 C 701.492188 318.847656 702.957031 320.621094 704.414062 322.378906 C 706.425781 324.816406 708.414062 327.191406 710.964844 329.09375 C 714.046875 331.390625 717.472656 332.628906 721.25 333.234375 L 724.582031 333.765625 L 725.070312 337.101562 C 726.296875 345.414062 734.199219 349.109375 741.585938 350.796875 C 743.347656 351.199219 745.132812 351.496094 746.925781 351.707031 C 748.679688 351.910156 750.445312 352.035156 752.210938 352.085938 L 1128.910156 352.085938 C 1136.664062 351.871094 1147.390625 350.03125 1152.792969 344.039062 C 1153.71875 343.011719 1154.480469 341.867188 1155.042969 340.601562 C 1155.542969 339.484375 1155.867188 338.304688 1156.046875 337.09375 L 1156.542969 333.761719 L 1159.871094 333.230469 C 1163.648438 332.628906 1167.074219 331.390625 1170.15625 329.089844 C 1172.707031 327.1875 1174.691406 324.8125 1176.707031 322.378906 C 1178.164062 320.621094 1179.628906 318.84375 1181.339844 317.324219 C 1183.253906 315.625 1185.472656 314.105469 1187.617188 312.691406 C 1186.210938 311.859375 1184.796875 311.011719 1183.4375 310.117188 C 1183.042969 309.859375 1182.652344 309.59375 1182.265625 309.316406 L 1181.550781 308.761719 C 1181.550781 308.761719 1179.4375 307.042969 1179.089844 306.644531 L 1178.742188 306.25 C 1178.5 305.972656 1178.257812 305.699219 1178.015625 305.421875 C 1177.964844 305.363281 1177.910156 305.304688 1177.859375 305.242188 C 1177.84375 305.222656 1177.828125 305.207031 1177.8125 305.191406 C 1177.804688 305.179688 1177.796875 305.171875 1177.789062 305.160156 C 1177.773438 305.144531 1177.761719 305.125 1177.746094 305.109375 C 1177.71875 305.078125 1177.695312 305.046875 1177.671875 305.019531 C 1177.644531 304.980469 1177.613281 304.945312 1177.585938 304.90625 C 1176.433594 303.53125 1175.335938 302.109375 1174.242188 300.6875 C 1170.183594 295.398438 1166.894531 290.964844 1159.917969 289.695312 L 1156.25 289.027344 L 1156.148438 285.296875 C 1155.992188 279.363281 1151.300781 275.191406 1146.480469 272.464844 C 1145.703125 272.023438 1144.910156 271.617188 1144.105469 271.234375 C 1139.523438 269.070312 1133.511719 267.34375 1128.425781 267.121094 C 1128.402344 267.121094 1128.382812 267.117188 1128.363281 267.117188 L 752.757812 267.117188 C 752.738281 267.117188 752.71875 267.121094 752.695312 267.121094 C 747.609375 267.34375 741.597656 269.070312 737.015625 271.234375 C 736.210938 271.613281 735.414062 272.023438 734.640625 272.464844 C 729.820312 275.191406 725.128906 279.363281 724.96875 285.296875 L 724.871094 289.023438 L 721.203125 289.695312 C 714.226562 290.964844 710.9375 295.394531 706.878906 300.683594 C 705.414062 302.589844 703.953125 304.480469 702.351562 306.273438 C 701.125 307.648438 699.722656 308.816406 698.207031 309.855469 C 696.753906 310.84375 695.230469 311.6875 693.703125 312.535156 Z M 693.703125 312.535156 " fill-opacity="1" fill-rule="evenodd"/></g><g transform="matrix(1, 0, 0, 1, 847, 275)"><g clip-path="url(#1e882b11c9)"><g fill="#ffffff" fill-opacity="1"><g transform="translate(3.979144, 50.643702)"><g><path d="M 41.875 0.59375 L 30.75 -27.0625 L 20.59375 0.59375 L 18.875 0.59375 L 4.65625 -34.875 C 4.476562 -35.332031 4.289062 -35.640625 4.09375 -35.796875 C 3.894531 -35.960938 3.582031 -36.082031 3.15625 -36.15625 L 1.171875 -36.375 L 1.171875 -37.4375 L 18.71875 -37.4375 L 18.71875 -36.375 L 16.640625 -36.15625 C 16.140625 -36.082031 15.890625 -35.796875 15.890625 -35.296875 C 15.890625 -35.191406 15.921875 -35 15.984375 -34.71875 L 24.125 -13.53125 L 29.84375 -29.359375 L 27.65625 -34.875 C 27.476562 -35.332031 27.289062 -35.640625 27.09375 -35.796875 C 26.894531 -35.960938 26.582031 -36.082031 26.15625 -36.15625 L 24.28125 -36.375 L 24.28125 -37.4375 L 41.828125 -37.4375 L 41.828125 -36.375 L 39.625 -36.15625 C 39.132812 -36.082031 38.890625 -35.796875 38.890625 -35.296875 C 38.890625 -35.191406 38.921875 -35 38.984375 -34.71875 L 47.125 -13.53125 L 54.875 -34.921875 C 54.976562 -35.210938 55.03125 -35.410156 55.03125 -35.515625 C 55.03125 -35.910156 54.765625 -36.125 54.234375 -36.15625 L 51.984375 -36.375 L 51.984375 -37.4375 L 60.109375 -37.4375 L 60.109375 -36.375 L 58.140625 -36.15625 C 57.710938 -36.125 57.40625 -36.015625 57.21875 -35.828125 C 57.039062 -35.648438 56.847656 -35.332031 56.640625 -34.875 L 43.59375 0.59375 Z M 41.875 0.59375 "/></g></g></g><g fill="#ffffff" fill-opacity="1"><g transform="translate(68.120304, 50.643702)"><g><path d="M 3.375 -1.5 C 3.90625 -1.601562 4.25 -1.722656 4.40625 -1.859375 C 4.570312 -2.003906 4.65625 -2.273438 4.65625 -2.671875 L 4.65625 -34.765625 C 4.65625 -35.160156 4.570312 -35.425781 4.40625 -35.5625 C 4.25 -35.707031 3.90625 -35.832031 3.375 -35.9375 L 1.390625 -36.375 L 1.390625 -37.4375 L 34.34375 -37.4375 L 34.34375 -27.015625 L 33 -27.015625 C 32.25 -29.328125 31.539062 -31.070312 30.875 -32.25 C 30.21875 -33.425781 29.300781 -34.316406 28.125 -34.921875 C 26.957031 -35.523438 25.300781 -35.828125 23.15625 -35.828125 L 15.5625 -35.828125 L 15.5625 -19.953125 L 29.359375 -19.953125 L 29.359375 -18.34375 L 15.5625 -18.34375 L 15.5625 -1.609375 L 23.6875 -1.609375 C 25.789062 -1.609375 27.445312 -1.925781 28.65625 -2.5625 C 29.875 -3.207031 30.832031 -4.132812 31.53125 -5.34375 C 32.226562 -6.5625 32.945312 -8.328125 33.6875 -10.640625 L 35.078125 -10.640625 L 35.078125 0 L 1.390625 0 L 1.390625 -1.0625 Z M 3.375 -1.5 "/></g></g></g><g fill="#ffffff" fill-opacity="1"><g transform="translate(109.492041, 50.643702)"><g><path d="M 4.65625 -34.765625 C 4.65625 -35.160156 4.570312 -35.425781 4.40625 -35.5625 C 4.25 -35.707031 3.90625 -35.832031 3.375 -35.9375 L 1.390625 -36.375 L 1.390625 -37.4375 L 19.140625 -37.4375 L 19.140625 -36.375 L 16.84375 -35.890625 C 16.3125 -35.785156 15.960938 -35.660156 15.796875 -35.515625 C 15.640625 -35.367188 15.5625 -35.101562 15.5625 -34.71875 L 15.5625 -1.609375 L 22.296875 -1.609375 C 24.398438 -1.609375 26.039062 -1.925781 27.21875 -2.5625 C 28.394531 -3.207031 29.3125 -4.117188 29.96875 -5.296875 C 30.632812 -6.472656 31.378906 -8.253906 32.203125 -10.640625 L 33.6875 -10.640625 L 33.6875 0 L 1.390625 0 L 1.390625 -1.0625 L 3.375 -1.5 C 3.90625 -1.601562 4.25 -1.722656 4.40625 -1.859375 C 4.570312 -2.003906 4.65625 -2.273438 4.65625 -2.671875 Z M 4.65625 -34.765625 "/></g></g></g><g fill="#ffffff" fill-opacity="1"><g transform="translate(148.084381, 50.643702)"><g><path d="M 4.65625 -34.765625 C 4.65625 -35.160156 4.570312 -35.425781 4.40625 -35.5625 C 4.25 -35.707031 3.90625 -35.832031 3.375 -35.9375 L 1.390625 -36.375 L 1.390625 -37.4375 L 19.140625 -37.4375 L 19.140625 -36.375 L 16.84375 -35.890625 C 16.3125 -35.785156 15.960938 -35.660156 15.796875 -35.515625 C 15.640625 -35.367188 15.5625 -35.101562 15.5625 -34.71875 L 15.5625 -1.609375 L 22.296875 -1.609375 C 24.398438 -1.609375 26.039062 -1.925781 27.21875 -2.5625 C 28.394531 -3.207031 29.3125 -4.117188 29.96875 -5.296875 C 30.632812 -6.472656 31.378906 -8.253906 32.203125 -10.640625 L 33.6875 -10.640625 L 33.6875 0 L 1.390625 0 L 1.390625 -1.0625 L 3.375 -1.5 C 3.90625 -1.601562 4.25 -1.722656 4.40625 -1.859375 C 4.570312 -2.003906 4.65625 -2.273438 4.65625 -2.671875 Z M 4.65625 -34.765625 "/></g></g></g></g></g><g transform="matrix(1, 0, 0, 1, 19, 56)"><g clip-path="url(#1086f2bb76)"><g fill="#000000" fill-opacity="0.2392"><g transform="translate(3.79625, 197.388917)"><g><path d="M 1.5 -104.578125 L 88.4375 -104.578125 L 88.4375 -74.703125 L 86.953125 -74.703125 C 86.953125 -84.859375 84.582031 -92.101562 79.84375 -96.4375 C 75.113281 -100.769531 67.722656 -102.984375 57.671875 -103.078125 L 57.671875 -9.859375 C 57.671875 -6.273438 58.191406 -3.984375 59.234375 -2.984375 C 60.273438 -1.992188 62.59375 -1.5 66.1875 -1.5 L 66.1875 0 L 23.90625 0 L 23.90625 -1.5 C 27.488281 -1.5 29.773438 -1.992188 30.765625 -2.984375 C 31.765625 -3.984375 32.265625 -6.273438 32.265625 -9.859375 L 32.265625 -103.078125 C 22.304688 -102.984375 14.9375 -100.742188 10.15625 -96.359375 C 5.375 -91.972656 2.984375 -84.753906 2.984375 -74.703125 L 1.5 -74.703125 Z M 1.5 -104.578125 "/></g></g></g><g fill="#000000" fill-opacity="0.2392"><g transform="translate(84.457456, 197.388917)"><g><path d="M 2.390625 -104.578125 L 44.515625 -104.578125 L 44.515625 -103.078125 C 40.929688 -103.078125 38.640625 -102.578125 37.640625 -101.578125 C 36.648438 -100.585938 36.15625 -98.300781 36.15625 -94.71875 L 36.15625 -53.1875 L 76.1875 -53.1875 L 76.1875 -94.71875 C 76.1875 -98.300781 75.6875 -100.585938 74.6875 -101.578125 C 73.695312 -102.578125 71.410156 -103.078125 67.828125 -103.078125 L 67.828125 -104.578125 L 109.953125 -104.578125 L 109.953125 -103.078125 C 106.367188 -103.078125 104.078125 -102.578125 103.078125 -101.578125 C 102.078125 -100.585938 101.578125 -98.300781 101.578125 -94.71875 L 101.578125 -9.859375 C 101.578125 -6.273438 102.078125 -3.984375 103.078125 -2.984375 C 104.078125 -1.992188 106.367188 -1.5 109.953125 -1.5 L 109.953125 0 L 67.828125 0 L 67.828125 -1.5 C 71.410156 -1.5 73.695312 -1.992188 74.6875 -2.984375 C 75.6875 -3.984375 76.1875 -6.273438 76.1875 -9.859375 L 76.1875 -51.546875 L 36.15625 -51.546875 L 36.15625 -9.859375 C 36.15625 -6.273438 36.648438 -3.984375 37.640625 -2.984375 C 38.640625 -1.992188 40.929688 -1.5 44.515625 -1.5 L 44.515625 0 L 2.390625 0 L 2.390625 -1.5 C 5.972656 -1.5 8.257812 -1.992188 9.25 -2.984375 C 10.25 -3.984375 10.75 -6.273438 10.75 -9.859375 L 10.75 -94.71875 C 10.75 -98.300781 10.25 -100.585938 9.25 -101.578125 C 8.257812 -102.578125 5.972656 -103.078125 2.390625 -103.078125 Z M 2.390625 -104.578125 "/></g></g></g><g fill="#000000" fill-opacity="0.2392"><g transform="translate(187.525224, 197.388917)"><g><path d="M 24.203125 -104.578125 L 65.875 -104.578125 L 92.171875 -14.34375 C 93.671875 -9.164062 95.238281 -5.726562 96.875 -4.03125 C 98.519531 -2.34375 101.1875 -1.5 104.875 -1.5 L 104.875 0 L 52.4375 0 L 52.4375 -1.5 C 57.019531 -1.5 60.378906 -2.191406 62.515625 -3.578125 C 64.660156 -4.972656 65.734375 -7.515625 65.734375 -11.203125 C 65.734375 -13.992188 65.132812 -17.53125 63.9375 -21.8125 L 59.609375 -36.453125 L 22.265625 -36.453125 L 18.96875 -26.140625 C 17.375 -20.460938 16.578125 -15.882812 16.578125 -12.40625 C 16.578125 -8.21875 17.722656 -5.351562 20.015625 -3.8125 C 22.304688 -2.269531 25.894531 -1.5 30.78125 -1.5 L 30.78125 0 L 1.5 0 L 1.5 -1.5 C 3.789062 -1.5 5.726562 -2.046875 7.3125 -3.140625 C 8.90625 -4.234375 10.398438 -6.148438 11.796875 -8.890625 C 13.191406 -11.628906 14.6875 -15.535156 16.28125 -20.609375 L 38.84375 -98.890625 C 37.25 -100.484375 35.28125 -101.578125 32.9375 -102.171875 C 30.601562 -102.773438 27.691406 -103.078125 24.203125 -103.078125 Z M 59.015625 -38.25 L 43.921875 -89.328125 C 42.828125 -92.921875 41.53125 -95.710938 40.03125 -97.703125 L 27.78125 -54.828125 C 27.1875 -52.640625 26.890625 -50.597656 26.890625 -48.703125 C 26.890625 -41.734375 31.519531 -38.25 40.78125 -38.25 Z M 59.015625 -38.25 "/></g></g></g><g fill="#000000" fill-opacity="0.2392"><g transform="translate(284.319176, 197.388917)"><g><path d="M 2.390625 -104.578125 L 44.515625 -104.578125 L 44.515625 -103.078125 C 40.929688 -103.078125 38.640625 -102.578125 37.640625 -101.578125 C 36.648438 -100.585938 36.15625 -98.300781 36.15625 -94.71875 L 36.15625 -9.859375 C 36.15625 -6.273438 36.648438 -3.984375 37.640625 -2.984375 C 38.640625 -1.992188 40.929688 -1.5 44.515625 -1.5 L 44.515625 0 L 2.390625 0 L 2.390625 -1.5 C 5.972656 -1.5 8.257812 -1.992188 9.25 -2.984375 C 10.25 -3.984375 10.75 -6.273438 10.75 -9.859375 L 10.75 -94.71875 C 10.75 -98.300781 10.25 -100.585938 9.25 -101.578125 C 8.257812 -102.578125 5.972656 -103.078125 2.390625 -103.078125 Z M 2.390625 -104.578125 "/></g></g></g><g fill="#000000" fill-opacity="0.2392"><g transform="translate(321.985593, 197.388917)"><g/></g></g><g fill="#000000" fill-opacity="0.2392"><g transform="translate(355.444678, 197.388917)"><g/></g></g><g fill="#000000" fill-opacity="0.2392"><g transform="translate(386.238531, 197.388917)"><g><path d="M 3.734375 -104.578125 L 29.578125 -104.578125 L 65.4375 -19.125 L 100.84375 -104.578125 L 124.890625 -104.578125 L 124.890625 -103.078125 C 122.003906 -103.078125 119.863281 -102.851562 118.46875 -102.40625 C 117.070312 -101.957031 116.148438 -101.035156 115.703125 -99.640625 C 115.253906 -98.242188 115.03125 -96.101562 115.03125 -93.21875 L 115.03125 -11.0625 C 115.03125 -8.269531 115.253906 -6.203125 115.703125 -4.859375 C 116.148438 -3.515625 117.070312 -2.617188 118.46875 -2.171875 C 119.863281 -1.722656 122.003906 -1.5 124.890625 -1.5 L 124.890625 0 L 91.125 0 L 91.125 -1.5 C 94.007812 -1.5 96.148438 -1.722656 97.546875 -2.171875 C 98.941406 -2.617188 99.863281 -3.515625 100.3125 -4.859375 C 100.757812 -6.203125 100.984375 -8.269531 100.984375 -11.0625 L 100.984375 -100.546875 L 59.3125 1.5 L 57.8125 1.5 L 20.015625 -91.28125 C 18.617188 -94.46875 17.222656 -96.90625 15.828125 -98.59375 L 15.828125 -11.65625 C 15.828125 -8.664062 16.050781 -6.445312 16.5 -5 C 16.957031 -3.5625 17.929688 -2.617188 19.421875 -2.171875 C 20.910156 -1.722656 23.203125 -1.5 26.296875 -1.5 L 26.296875 0 L 3.890625 0 L 3.890625 -1.5 C 6.972656 -1.5 9.257812 -1.722656 10.75 -2.171875 C 12.25 -2.617188 13.222656 -3.5625 13.671875 -5 C 14.117188 -6.445312 14.34375 -8.664062 14.34375 -11.65625 L 14.34375 -100.09375 C 13.050781 -101.1875 11.554688 -101.957031 9.859375 -102.40625 C 8.160156 -102.851562 6.117188 -103.078125 3.734375 -103.078125 Z M 3.734375 -104.578125 "/></g></g></g><g fill="#000000" fill-opacity="0.2392"><g transform="translate(505.140247, 197.388917)"><g><path d="M 28.6875 -104.578125 L 57.8125 -104.578125 L 85.15625 -14.640625 C 86.25 -10.953125 87.367188 -8.160156 88.515625 -6.265625 C 89.660156 -4.378906 91.101562 -3.113281 92.84375 -2.46875 C 94.582031 -1.820312 96.898438 -1.5 99.796875 -1.5 L 99.796875 0 L 57.8125 0 L 57.8125 -1.5 C 62.59375 -1.5 66.050781 -1.992188 68.1875 -2.984375 C 70.332031 -3.984375 71.40625 -5.976562 71.40625 -8.96875 C 71.40625 -11.257812 70.804688 -14.394531 69.609375 -18.375 L 64.09375 -36.453125 L 24.203125 -36.453125 L 19.125 -20.609375 C 17.625 -15.828125 16.875 -12.144531 16.875 -9.5625 C 16.875 -6.375 17.992188 -4.234375 20.234375 -3.140625 C 22.484375 -2.046875 26.097656 -1.5 31.078125 -1.5 L 31.078125 0 L 1.5 0 L 1.5 -1.5 C 4.382812 -1.5 6.671875 -1.921875 8.359375 -2.765625 C 10.054688 -3.609375 11.550781 -5.203125 12.84375 -7.546875 C 14.144531 -9.890625 15.539062 -13.300781 17.03125 -17.78125 L 41.984375 -99.9375 C 40.585938 -101.132812 38.84375 -101.957031 36.75 -102.40625 C 34.65625 -102.851562 31.96875 -103.078125 28.6875 -103.078125 Z M 63.484375 -38.25 L 47.359375 -90.234375 C 46.160156 -94.117188 44.765625 -97.003906 43.171875 -98.890625 L 29.28125 -52.578125 C 28.476562 -49.890625 28.078125 -47.75 28.078125 -46.15625 C 28.078125 -40.882812 31.960938 -38.25 39.734375 -38.25 Z M 63.484375 -38.25 "/></g></g></g><g fill="#000000" fill-opacity="0.2392"><g transform="translate(596.556614, 197.388917)"><g><path d="M 50.1875 -106.0625 C 56.070312 -106.0625 61.398438 -105.289062 66.171875 -103.75 C 70.953125 -102.207031 74.757812 -99.914062 77.59375 -96.875 C 80.4375 -93.84375 81.859375 -90.035156 81.859375 -85.453125 C 81.859375 -82.960938 81.085938 -80.96875 79.546875 -79.46875 C 78.003906 -77.976562 75.988281 -77.234375 73.5 -77.234375 C 71.007812 -77.234375 69.039062 -77.976562 67.59375 -79.46875 C 66.15625 -80.96875 65.4375 -82.960938 65.4375 -85.453125 C 65.4375 -87.742188 66.15625 -89.707031 67.59375 -91.34375 C 69.039062 -92.988281 71.007812 -93.8125 73.5 -93.8125 C 76.09375 -93.8125 78.132812 -92.664062 79.625 -90.375 C 78.132812 -95.15625 74.695312 -98.71875 69.3125 -101.0625 C 63.9375 -103.40625 57.5625 -104.578125 50.1875 -104.578125 C 41.425781 -104.578125 34.703125 -103.054688 30.015625 -100.015625 C 25.335938 -96.972656 23 -91.867188 23 -84.703125 C 23 -78.328125 25.316406 -73.320312 29.953125 -69.6875 C 34.585938 -66.050781 41.382812 -62.539062 50.34375 -59.15625 C 59.601562 -55.46875 66.722656 -52.03125 71.703125 -48.84375 C 76.679688 -45.65625 80.140625 -42.21875 82.078125 -38.53125 C 84.023438 -34.851562 85 -30.425781 85 -25.25 C 85 -20.96875 84.203125 -17.109375 82.609375 -13.671875 C 81.015625 -10.234375 78.378906 -7.367188 74.703125 -5.078125 C 67.722656 -0.691406 57.0625 1.5 42.71875 1.5 C 35.945312 1.5 29.921875 0.628906 24.640625 -1.109375 C 19.367188 -2.859375 15.238281 -5.472656 12.25 -8.953125 C 9.257812 -12.441406 7.765625 -16.828125 7.765625 -22.109375 C 7.765625 -24.597656 8.484375 -26.5625 9.921875 -28 C 11.367188 -29.445312 13.335938 -30.171875 15.828125 -30.171875 C 17.921875 -30.171875 19.835938 -29.546875 21.578125 -28.296875 C 23.328125 -27.054688 24.203125 -24.992188 24.203125 -22.109375 C 24.203125 -19.316406 23.328125 -17.222656 21.578125 -15.828125 C 19.835938 -14.441406 17.921875 -13.75 15.828125 -13.75 C 13.046875 -13.75 11.003906 -14.742188 9.703125 -16.734375 C 11.203125 -11.054688 14.890625 -6.847656 20.765625 -4.109375 C 26.640625 -1.367188 33.957031 0 42.71875 0 C 52.882812 0 60.359375 -1.816406 65.140625 -5.453125 C 69.921875 -9.085938 72.3125 -14.039062 72.3125 -20.3125 C 72.3125 -24.101562 71.5625 -27.363281 70.0625 -30.09375 C 68.570312 -32.832031 65.882812 -35.375 62 -37.71875 C 58.113281 -40.0625 52.535156 -42.578125 45.265625 -45.265625 C 36.992188 -48.546875 30.296875 -51.78125 25.171875 -54.96875 C 20.046875 -58.15625 16.285156 -61.71875 13.890625 -65.65625 C 11.503906 -69.59375 10.3125 -74.347656 10.3125 -79.921875 C 10.3125 -84.304688 11.03125 -88.113281 12.46875 -91.34375 C 13.914062 -94.582031 16.234375 -97.300781 19.421875 -99.5 C 22.703125 -101.882812 26.90625 -103.570312 32.03125 -104.5625 C 37.164062 -105.5625 43.21875 -106.0625 50.1875 -106.0625 Z M 50.1875 -106.0625 "/></g></g></g><g fill="#000000" fill-opacity="0.2392"><g transform="translate(679.607851, 197.388917)"><g><path d="M 50.1875 -106.0625 C 56.070312 -106.0625 61.398438 -105.289062 66.171875 -103.75 C 70.953125 -102.207031 74.757812 -99.914062 77.59375 -96.875 C 80.4375 -93.84375 81.859375 -90.035156 81.859375 -85.453125 C 81.859375 -82.960938 81.085938 -80.96875 79.546875 -79.46875 C 78.003906 -77.976562 75.988281 -77.234375 73.5 -77.234375 C 71.007812 -77.234375 69.039062 -77.976562 67.59375 -79.46875 C 66.15625 -80.96875 65.4375 -82.960938 65.4375 -85.453125 C 65.4375 -87.742188 66.15625 -89.707031 67.59375 -91.34375 C 69.039062 -92.988281 71.007812 -93.8125 73.5 -93.8125 C 76.09375 -93.8125 78.132812 -92.664062 79.625 -90.375 C 78.132812 -95.15625 74.695312 -98.71875 69.3125 -101.0625 C 63.9375 -103.40625 57.5625 -104.578125 50.1875 -104.578125 C 41.425781 -104.578125 34.703125 -103.054688 30.015625 -100.015625 C 25.335938 -96.972656 23 -91.867188 23 -84.703125 C 23 -78.328125 25.316406 -73.320312 29.953125 -69.6875 C 34.585938 -66.050781 41.382812 -62.539062 50.34375 -59.15625 C 59.601562 -55.46875 66.722656 -52.03125 71.703125 -48.84375 C 76.679688 -45.65625 80.140625 -42.21875 82.078125 -38.53125 C 84.023438 -34.851562 85 -30.425781 85 -25.25 C 85 -20.96875 84.203125 -17.109375 82.609375 -13.671875 C 81.015625 -10.234375 78.378906 -7.367188 74.703125 -5.078125 C 67.722656 -0.691406 57.0625 1.5 42.71875 1.5 C 35.945312 1.5 29.921875 0.628906 24.640625 -1.109375 C 19.367188 -2.859375 15.238281 -5.472656 12.25 -8.953125 C 9.257812 -12.441406 7.765625 -16.828125 7.765625 -22.109375 C 7.765625 -24.597656 8.484375 -26.5625 9.921875 -28 C 11.367188 -29.445312 13.335938 -30.171875 15.828125 -30.171875 C 17.921875 -30.171875 19.835938 -29.546875 21.578125 -28.296875 C 23.328125 -27.054688 24.203125 -24.992188 24.203125 -22.109375 C 24.203125 -19.316406 23.328125 -17.222656 21.578125 -15.828125 C 19.835938 -14.441406 17.921875 -13.75 15.828125 -13.75 C 13.046875 -13.75 11.003906 -14.742188 9.703125 -16.734375 C 11.203125 -11.054688 14.890625 -6.847656 20.765625 -4.109375 C 26.640625 -1.367188 33.957031 0 42.71875 0 C 52.882812 0 60.359375 -1.816406 65.140625 -5.453125 C 69.921875 -9.085938 72.3125 -14.039062 72.3125 -20.3125 C 72.3125 -24.101562 71.5625 -27.363281 70.0625 -30.09375 C 68.570312 -32.832031 65.882812 -35.375 62 -37.71875 C 58.113281 -40.0625 52.535156 -42.578125 45.265625 -45.265625 C 36.992188 -48.546875 30.296875 -51.78125 25.171875 -54.96875 C 20.046875 -58.15625 16.285156 -61.71875 13.890625 -65.65625 C 11.503906 -69.59375 10.3125 -74.347656 10.3125 -79.921875 C 10.3125 -84.304688 11.03125 -88.113281 12.46875 -91.34375 C 13.914062 -94.582031 16.234375 -97.300781 19.421875 -99.5 C 22.703125 -101.882812 26.90625 -103.570312 32.03125 -104.5625 C 37.164062 -105.5625 43.21875 -106.0625 50.1875 -106.0625 Z M 50.1875 -106.0625 "/></g></g></g><g fill="#000000" fill-opacity="0.2392"><g transform="translate(762.659088, 197.388917)"><g><path d="M 28.6875 -104.578125 L 57.8125 -104.578125 L 85.15625 -14.640625 C 86.25 -10.953125 87.367188 -8.160156 88.515625 -6.265625 C 89.660156 -4.378906 91.101562 -3.113281 92.84375 -2.46875 C 94.582031 -1.820312 96.898438 -1.5 99.796875 -1.5 L 99.796875 0 L 57.8125 0 L 57.8125 -1.5 C 62.59375 -1.5 66.050781 -1.992188 68.1875 -2.984375 C 70.332031 -3.984375 71.40625 -5.976562 71.40625 -8.96875 C 71.40625 -11.257812 70.804688 -14.394531 69.609375 -18.375 L 64.09375 -36.453125 L 24.203125 -36.453125 L 19.125 -20.609375 C 17.625 -15.828125 16.875 -12.144531 16.875 -9.5625 C 16.875 -6.375 17.992188 -4.234375 20.234375 -3.140625 C 22.484375 -2.046875 26.097656 -1.5 31.078125 -1.5 L 31.078125 0 L 1.5 0 L 1.5 -1.5 C 4.382812 -1.5 6.671875 -1.921875 8.359375 -2.765625 C 10.054688 -3.609375 11.550781 -5.203125 12.84375 -7.546875 C 14.144531 -9.890625 15.539062 -13.300781 17.03125 -17.78125 L 41.984375 -99.9375 C 40.585938 -101.132812 38.84375 -101.957031 36.75 -102.40625 C 34.65625 -102.851562 31.96875 -103.078125 28.6875 -103.078125 Z M 63.484375 -38.25 L 47.359375 -90.234375 C 46.160156 -94.117188 44.765625 -97.003906 43.171875 -98.890625 L 29.28125 -52.578125 C 28.476562 -49.890625 28.078125 -47.75 28.078125 -46.15625 C 28.078125 -40.882812 31.960938 -38.25 39.734375 -38.25 Z M 63.484375 -38.25 "/></g></g></g><g fill="#000000" fill-opacity="0.2392"><g transform="translate(854.075456, 197.388917)"><g><path d="M 7.765625 -52.28125 C 7.765625 -61.550781 8.957031 -69.695312 11.34375 -76.71875 C 13.738281 -83.738281 17.328125 -89.4375 22.109375 -93.8125 C 26.785156 -98.195312 32.410156 -101.332031 38.984375 -103.21875 C 45.554688 -105.113281 52.878906 -106.0625 60.953125 -106.0625 C 68.222656 -106.0625 74.421875 -104.988281 79.546875 -102.84375 C 84.679688 -100.707031 88.613281 -97.820312 91.34375 -94.1875 C 94.082031 -90.550781 95.453125 -86.492188 95.453125 -82.015625 C 95.453125 -79.328125 94.601562 -77.132812 92.90625 -75.4375 C 91.21875 -73.75 89.03125 -72.90625 86.34375 -72.90625 C 83.65625 -72.90625 81.460938 -73.75 79.765625 -75.4375 C 78.078125 -77.132812 77.234375 -79.328125 77.234375 -82.015625 C 77.234375 -84.703125 78.078125 -86.890625 79.765625 -88.578125 C 81.460938 -90.273438 83.65625 -91.125 86.34375 -91.125 C 89.238281 -91.125 91.429688 -89.976562 92.921875 -87.6875 C 91.328125 -92.570312 87.816406 -96.609375 82.390625 -99.796875 C 76.960938 -102.984375 69.816406 -104.578125 60.953125 -104.578125 C 53.085938 -104.578125 46.210938 -102.78125 40.328125 -99.1875 C 34.453125 -95.601562 29.894531 -90 26.65625 -82.375 C 23.425781 -74.757812 21.8125 -64.929688 21.8125 -52.890625 C 21.8125 -40.234375 23.328125 -30.019531 26.359375 -22.25 C 29.398438 -14.488281 33.632812 -8.835938 39.0625 -5.296875 C 44.488281 -1.765625 50.789062 0 57.96875 0 C 63.238281 0 67.566406 -0.421875 70.953125 -1.265625 C 74.347656 -2.117188 77.585938 -3.488281 80.671875 -5.375 L 80.671875 -40.9375 C 80.671875 -43.820312 80.367188 -45.960938 79.765625 -47.359375 C 79.171875 -48.753906 77.828125 -49.675781 75.734375 -50.125 C 73.648438 -50.570312 70.316406 -50.796875 65.734375 -50.796875 L 65.734375 -52.28125 L 104.71875 -52.28125 L 104.71875 -50.796875 C 101.832031 -50.796875 99.691406 -50.570312 98.296875 -50.125 C 96.898438 -49.675781 96.003906 -48.753906 95.609375 -47.359375 C 95.210938 -45.960938 95.015625 -43.820312 95.015625 -40.9375 L 94.859375 0.75 L 93.375 0.75 L 86.796875 -6.125 C 83.015625 -3.632812 78.859375 -1.738281 74.328125 -0.4375 C 69.796875 0.851562 64.34375 1.5 57.96875 1.5 C 47.800781 1.5 38.957031 -0.414062 31.4375 -4.25 C 23.925781 -8.09375 18.101562 -13.992188 13.96875 -21.953125 C 9.832031 -29.921875 7.765625 -40.03125 7.765625 -52.28125 Z M 7.765625 -52.28125 "/></g></g></g><g fill="#000000" fill-opacity="0.2392"><g transform="translate(953.856915, 197.388917)"><g><path d="M 27.78125 -103.078125 L 27.78125 -53.1875 L 57.671875 -53.1875 C 62.742188 -53.1875 66.5 -54.101562 68.9375 -55.9375 C 71.382812 -57.78125 72.609375 -61.691406 72.609375 -67.671875 L 74.09375 -67.671875 L 74.09375 -36.90625 L 72.609375 -36.90625 C 72.609375 -42.875 71.382812 -46.78125 68.9375 -48.625 C 66.5 -50.46875 62.742188 -51.390625 57.671875 -51.390625 L 27.78125 -51.390625 L 27.78125 -1.5 L 59.3125 -1.5 C 66.082031 -1.5 71.429688 -2.117188 75.359375 -3.359375 C 79.296875 -4.609375 82.085938 -6.875 83.734375 -10.15625 C 85.378906 -13.445312 86.203125 -18.128906 86.203125 -24.203125 L 87.6875 -24.203125 L 87.6875 0 L 3.890625 0 L 3.890625 -1.5 C 6.773438 -1.5 8.914062 -1.722656 10.3125 -2.171875 C 11.707031 -2.617188 12.601562 -3.535156 13 -4.921875 C 13.394531 -6.316406 13.59375 -8.460938 13.59375 -11.359375 L 13.59375 -93.21875 C 13.59375 -96.101562 13.394531 -98.242188 13 -99.640625 C 12.601562 -101.035156 11.707031 -101.957031 10.3125 -102.40625 C 8.914062 -102.851562 6.773438 -103.078125 3.890625 -103.078125 L 3.890625 -104.578125 L 87.6875 -104.578125 L 87.6875 -80.375 L 86.203125 -80.375 C 86.203125 -86.550781 85.378906 -91.253906 83.734375 -94.484375 C 82.085938 -97.722656 79.296875 -99.960938 75.359375 -101.203125 C 71.429688 -102.453125 66.082031 -103.078125 59.3125 -103.078125 Z M 27.78125 -103.078125 "/></g></g></g><g fill="#ffffff" fill-opacity="1"><g transform="translate(0.941959, 194.433207)"><g><path d="M 1.5 -104.578125 L 88.4375 -104.578125 L 88.4375 -74.703125 L 86.953125 -74.703125 C 86.953125 -84.859375 84.582031 -92.101562 79.84375 -96.4375 C 75.113281 -100.769531 67.722656 -102.984375 57.671875 -103.078125 L 57.671875 -9.859375 C 57.671875 -6.273438 58.191406 -3.984375 59.234375 -2.984375 C 60.273438 -1.992188 62.59375 -1.5 66.1875 -1.5 L 66.1875 0 L 23.90625 0 L 23.90625 -1.5 C 27.488281 -1.5 29.773438 -1.992188 30.765625 -2.984375 C 31.765625 -3.984375 32.265625 -6.273438 32.265625 -9.859375 L 32.265625 -103.078125 C 22.304688 -102.984375 14.9375 -100.742188 10.15625 -96.359375 C 5.375 -91.972656 2.984375 -84.753906 2.984375 -74.703125 L 1.5 -74.703125 Z M 1.5 -104.578125 "/></g></g></g><g fill="#ffffff" fill-opacity="1"><g transform="translate(81.603165, 194.433207)"><g><path d="M 2.390625 -104.578125 L 44.515625 -104.578125 L 44.515625 -103.078125 C 40.929688 -103.078125 38.640625 -102.578125 37.640625 -101.578125 C 36.648438 -100.585938 36.15625 -98.300781 36.15625 -94.71875 L 36.15625 -53.1875 L 76.1875 -53.1875 L 76.1875 -94.71875 C 76.1875 -98.300781 75.6875 -100.585938 74.6875 -101.578125 C 73.695312 -102.578125 71.410156 -103.078125 67.828125 -103.078125 L 67.828125 -104.578125 L 109.953125 -104.578125 L 109.953125 -103.078125 C 106.367188 -103.078125 104.078125 -102.578125 103.078125 -101.578125 C 102.078125 -100.585938 101.578125 -98.300781 101.578125 -94.71875 L 101.578125 -9.859375 C 101.578125 -6.273438 102.078125 -3.984375 103.078125 -2.984375 C 104.078125 -1.992188 106.367188 -1.5 109.953125 -1.5 L 109.953125 0 L 67.828125 0 L 67.828125 -1.5 C 71.410156 -1.5 73.695312 -1.992188 74.6875 -2.984375 C 75.6875 -3.984375 76.1875 -6.273438 76.1875 -9.859375 L 76.1875 -51.546875 L 36.15625 -51.546875 L 36.15625 -9.859375 C 36.15625 -6.273438 36.648438 -3.984375 37.640625 -2.984375 C 38.640625 -1.992188 40.929688 -1.5 44.515625 -1.5 L 44.515625 0 L 2.390625 0 L 2.390625 -1.5 C 5.972656 -1.5 8.257812 -1.992188 9.25 -2.984375 C 10.25 -3.984375 10.75 -6.273438 10.75 -9.859375 L 10.75 -94.71875 C 10.75 -98.300781 10.25 -100.585938 9.25 -101.578125 C 8.257812 -102.578125 5.972656 -103.078125 2.390625 -103.078125 Z M 2.390625 -104.578125 "/></g></g></g><g fill="#ffffff" fill-opacity="1"><g transform="translate(184.670933, 194.433207)"><g><path d="M 24.203125 -104.578125 L 65.875 -104.578125 L 92.171875 -14.34375 C 93.671875 -9.164062 95.238281 -5.726562 96.875 -4.03125 C 98.519531 -2.34375 101.1875 -1.5 104.875 -1.5 L 104.875 0 L 52.4375 0 L 52.4375 -1.5 C 57.019531 -1.5 60.378906 -2.191406 62.515625 -3.578125 C 64.660156 -4.972656 65.734375 -7.515625 65.734375 -11.203125 C 65.734375 -13.992188 65.132812 -17.53125 63.9375 -21.8125 L 59.609375 -36.453125 L 22.265625 -36.453125 L 18.96875 -26.140625 C 17.375 -20.460938 16.578125 -15.882812 16.578125 -12.40625 C 16.578125 -8.21875 17.722656 -5.351562 20.015625 -3.8125 C 22.304688 -2.269531 25.894531 -1.5 30.78125 -1.5 L 30.78125 0 L 1.5 0 L 1.5 -1.5 C 3.789062 -1.5 5.726562 -2.046875 7.3125 -3.140625 C 8.90625 -4.234375 10.398438 -6.148438 11.796875 -8.890625 C 13.191406 -11.628906 14.6875 -15.535156 16.28125 -20.609375 L 38.84375 -98.890625 C 37.25 -100.484375 35.28125 -101.578125 32.9375 -102.171875 C 30.601562 -102.773438 27.691406 -103.078125 24.203125 -103.078125 Z M 59.015625 -38.25 L 43.921875 -89.328125 C 42.828125 -92.921875 41.53125 -95.710938 40.03125 -97.703125 L 27.78125 -54.828125 C 27.1875 -52.640625 26.890625 -50.597656 26.890625 -48.703125 C 26.890625 -41.734375 31.519531 -38.25 40.78125 -38.25 Z M 59.015625 -38.25 "/></g></g></g><g fill="#ffffff" fill-opacity="1"><g transform="translate(281.464885, 194.433207)"><g><path d="M 2.390625 -104.578125 L 44.515625 -104.578125 L 44.515625 -103.078125 C 40.929688 -103.078125 38.640625 -102.578125 37.640625 -101.578125 C 36.648438 -100.585938 36.15625 -98.300781 36.15625 -94.71875 L 36.15625 -9.859375 C 36.15625 -6.273438 36.648438 -3.984375 37.640625 -2.984375 C 38.640625 -1.992188 40.929688 -1.5 44.515625 -1.5 L 44.515625 0 L 2.390625 0 L 2.390625 -1.5 C 5.972656 -1.5 8.257812 -1.992188 9.25 -2.984375 C 10.25 -3.984375 10.75 -6.273438 10.75 -9.859375 L 10.75 -94.71875 C 10.75 -98.300781 10.25 -100.585938 9.25 -101.578125 C 8.257812 -102.578125 5.972656 -103.078125 2.390625 -103.078125 Z M 2.390625 -104.578125 "/></g></g></g><g fill="#ffffff" fill-opacity="1"><g transform="translate(319.131302, 194.433207)"><g/></g></g><g fill="#ffffff" fill-opacity="1"><g transform="translate(352.590387, 194.433207)"><g/></g></g><g fill="#ffffff" fill-opacity="1"><g transform="translate(383.38424, 194.433207)"><g><path d="M 3.734375 -104.578125 L 29.578125 -104.578125 L 65.4375 -19.125 L 100.84375 -104.578125 L 124.890625 -104.578125 L 124.890625 -103.078125 C 122.003906 -103.078125 119.863281 -102.851562 118.46875 -102.40625 C 117.070312 -101.957031 116.148438 -101.035156 115.703125 -99.640625 C 115.253906 -98.242188 115.03125 -96.101562 115.03125 -93.21875 L 115.03125 -11.0625 C 115.03125 -8.269531 115.253906 -6.203125 115.703125 -4.859375 C 116.148438 -3.515625 117.070312 -2.617188 118.46875 -2.171875 C 119.863281 -1.722656 122.003906 -1.5 124.890625 -1.5 L 124.890625 0 L 91.125 0 L 91.125 -1.5 C 94.007812 -1.5 96.148438 -1.722656 97.546875 -2.171875 C 98.941406 -2.617188 99.863281 -3.515625 100.3125 -4.859375 C 100.757812 -6.203125 100.984375 -8.269531 100.984375 -11.0625 L 100.984375 -100.546875 L 59.3125 1.5 L 57.8125 1.5 L 20.015625 -91.28125 C 18.617188 -94.46875 17.222656 -96.90625 15.828125 -98.59375 L 15.828125 -11.65625 C 15.828125 -8.664062 16.050781 -6.445312 16.5 -5 C 16.957031 -3.5625 17.929688 -2.617188 19.421875 -2.171875 C 20.910156 -1.722656 23.203125 -1.5 26.296875 -1.5 L 26.296875 0 L 3.890625 0 L 3.890625 -1.5 C 6.972656 -1.5 9.257812 -1.722656 10.75 -2.171875 C 12.25 -2.617188 13.222656 -3.5625 13.671875 -5 C 14.117188 -6.445312 14.34375 -8.664062 14.34375 -11.65625 L 14.34375 -100.09375 C 13.050781 -101.1875 11.554688 -101.957031 9.859375 -102.40625 C 8.160156 -102.851562 6.117188 -103.078125 3.734375 -103.078125 Z M 3.734375 -104.578125 "/></g></g></g><g fill="#ffffff" fill-opacity="1"><g transform="translate(502.285956, 194.433207)"><g><path d="M 28.6875 -104.578125 L 57.8125 -104.578125 L 85.15625 -14.640625 C 86.25 -10.953125 87.367188 -8.160156 88.515625 -6.265625 C 89.660156 -4.378906 91.101562 -3.113281 92.84375 -2.46875 C 94.582031 -1.820312 96.898438 -1.5 99.796875 -1.5 L 99.796875 0 L 57.8125 0 L 57.8125 -1.5 C 62.59375 -1.5 66.050781 -1.992188 68.1875 -2.984375 C 70.332031 -3.984375 71.40625 -5.976562 71.40625 -8.96875 C 71.40625 -11.257812 70.804688 -14.394531 69.609375 -18.375 L 64.09375 -36.453125 L 24.203125 -36.453125 L 19.125 -20.609375 C 17.625 -15.828125 16.875 -12.144531 16.875 -9.5625 C 16.875 -6.375 17.992188 -4.234375 20.234375 -3.140625 C 22.484375 -2.046875 26.097656 -1.5 31.078125 -1.5 L 31.078125 0 L 1.5 0 L 1.5 -1.5 C 4.382812 -1.5 6.671875 -1.921875 8.359375 -2.765625 C 10.054688 -3.609375 11.550781 -5.203125 12.84375 -7.546875 C 14.144531 -9.890625 15.539062 -13.300781 17.03125 -17.78125 L 41.984375 -99.9375 C 40.585938 -101.132812 38.84375 -101.957031 36.75 -102.40625 C 34.65625 -102.851562 31.96875 -103.078125 28.6875 -103.078125 Z M 63.484375 -38.25 L 47.359375 -90.234375 C 46.160156 -94.117188 44.765625 -97.003906 43.171875 -98.890625 L 29.28125 -52.578125 C 28.476562 -49.890625 28.078125 -47.75 28.078125 -46.15625 C 28.078125 -40.882812 31.960938 -38.25 39.734375 -38.25 Z M 63.484375 -38.25 "/></g></g></g><g fill="#ffffff" fill-opacity="1"><g transform="translate(593.702323, 194.433207)"><g><path d="M 50.1875 -106.0625 C 56.070312 -106.0625 61.398438 -105.289062 66.171875 -103.75 C 70.953125 -102.207031 74.757812 -99.914062 77.59375 -96.875 C 80.4375 -93.84375 81.859375 -90.035156 81.859375 -85.453125 C 81.859375 -82.960938 81.085938 -80.96875 79.546875 -79.46875 C 78.003906 -77.976562 75.988281 -77.234375 73.5 -77.234375 C 71.007812 -77.234375 69.039062 -77.976562 67.59375 -79.46875 C 66.15625 -80.96875 65.4375 -82.960938 65.4375 -85.453125 C 65.4375 -87.742188 66.15625 -89.707031 67.59375 -91.34375 C 69.039062 -92.988281 71.007812 -93.8125 73.5 -93.8125 C 76.09375 -93.8125 78.132812 -92.664062 79.625 -90.375 C 78.132812 -95.15625 74.695312 -98.71875 69.3125 -101.0625 C 63.9375 -103.40625 57.5625 -104.578125 50.1875 -104.578125 C 41.425781 -104.578125 34.703125 -103.054688 30.015625 -100.015625 C 25.335938 -96.972656 23 -91.867188 23 -84.703125 C 23 -78.328125 25.316406 -73.320312 29.953125 -69.6875 C 34.585938 -66.050781 41.382812 -62.539062 50.34375 -59.15625 C 59.601562 -55.46875 66.722656 -52.03125 71.703125 -48.84375 C 76.679688 -45.65625 80.140625 -42.21875 82.078125 -38.53125 C 84.023438 -34.851562 85 -30.425781 85 -25.25 C 85 -20.96875 84.203125 -17.109375 82.609375 -13.671875 C 81.015625 -10.234375 78.378906 -7.367188 74.703125 -5.078125 C 67.722656 -0.691406 57.0625 1.5 42.71875 1.5 C 35.945312 1.5 29.921875 0.628906 24.640625 -1.109375 C 19.367188 -2.859375 15.238281 -5.472656 12.25 -8.953125 C 9.257812 -12.441406 7.765625 -16.828125 7.765625 -22.109375 C 7.765625 -24.597656 8.484375 -26.5625 9.921875 -28 C 11.367188 -29.445312 13.335938 -30.171875 15.828125 -30.171875 C 17.921875 -30.171875 19.835938 -29.546875 21.578125 -28.296875 C 23.328125 -27.054688 24.203125 -24.992188 24.203125 -22.109375 C 24.203125 -19.316406 23.328125 -17.222656 21.578125 -15.828125 C 19.835938 -14.441406 17.921875 -13.75 15.828125 -13.75 C 13.046875 -13.75 11.003906 -14.742188 9.703125 -16.734375 C 11.203125 -11.054688 14.890625 -6.847656 20.765625 -4.109375 C 26.640625 -1.367188 33.957031 0 42.71875 0 C 52.882812 0 60.359375 -1.816406 65.140625 -5.453125 C 69.921875 -9.085938 72.3125 -14.039062 72.3125 -20.3125 C 72.3125 -24.101562 71.5625 -27.363281 70.0625 -30.09375 C 68.570312 -32.832031 65.882812 -35.375 62 -37.71875 C 58.113281 -40.0625 52.535156 -42.578125 45.265625 -45.265625 C 36.992188 -48.546875 30.296875 -51.78125 25.171875 -54.96875 C 20.046875 -58.15625 16.285156 -61.71875 13.890625 -65.65625 C 11.503906 -69.59375 10.3125 -74.347656 10.3125 -79.921875 C 10.3125 -84.304688 11.03125 -88.113281 12.46875 -91.34375 C 13.914062 -94.582031 16.234375 -97.300781 19.421875 -99.5 C 22.703125 -101.882812 26.90625 -103.570312 32.03125 -104.5625 C 37.164062 -105.5625 43.21875 -106.0625 50.1875 -106.0625 Z M 50.1875 -106.0625 "/></g></g></g><g fill="#ffffff" fill-opacity="1"><g transform="translate(676.75356, 194.433207)"><g><path d="M 50.1875 -106.0625 C 56.070312 -106.0625 61.398438 -105.289062 66.171875 -103.75 C 70.953125 -102.207031 74.757812 -99.914062 77.59375 -96.875 C 80.4375 -93.84375 81.859375 -90.035156 81.859375 -85.453125 C 81.859375 -82.960938 81.085938 -80.96875 79.546875 -79.46875 C 78.003906 -77.976562 75.988281 -77.234375 73.5 -77.234375 C 71.007812 -77.234375 69.039062 -77.976562 67.59375 -79.46875 C 66.15625 -80.96875 65.4375 -82.960938 65.4375 -85.453125 C 65.4375 -87.742188 66.15625 -89.707031 67.59375 -91.34375 C 69.039062 -92.988281 71.007812 -93.8125 73.5 -93.8125 C 76.09375 -93.8125 78.132812 -92.664062 79.625 -90.375 C 78.132812 -95.15625 74.695312 -98.71875 69.3125 -101.0625 C 63.9375 -103.40625 57.5625 -104.578125 50.1875 -104.578125 C 41.425781 -104.578125 34.703125 -103.054688 30.015625 -100.015625 C 25.335938 -96.972656 23 -91.867188 23 -84.703125 C 23 -78.328125 25.316406 -73.320312 29.953125 -69.6875 C 34.585938 -66.050781 41.382812 -62.539062 50.34375 -59.15625 C 59.601562 -55.46875 66.722656 -52.03125 71.703125 -48.84375 C 76.679688 -45.65625 80.140625 -42.21875 82.078125 -38.53125 C 84.023438 -34.851562 85 -30.425781 85 -25.25 C 85 -20.96875 84.203125 -17.109375 82.609375 -13.671875 C 81.015625 -10.234375 78.378906 -7.367188 74.703125 -5.078125 C 67.722656 -0.691406 57.0625 1.5 42.71875 1.5 C 35.945312 1.5 29.921875 0.628906 24.640625 -1.109375 C 19.367188 -2.859375 15.238281 -5.472656 12.25 -8.953125 C 9.257812 -12.441406 7.765625 -16.828125 7.765625 -22.109375 C 7.765625 -24.597656 8.484375 -26.5625 9.921875 -28 C 11.367188 -29.445312 13.335938 -30.171875 15.828125 -30.171875 C 17.921875 -30.171875 19.835938 -29.546875 21.578125 -28.296875 C 23.328125 -27.054688 24.203125 -24.992188 24.203125 -22.109375 C 24.203125 -19.316406 23.328125 -17.222656 21.578125 -15.828125 C 19.835938 -14.441406 17.921875 -13.75 15.828125 -13.75 C 13.046875 -13.75 11.003906 -14.742188 9.703125 -16.734375 C 11.203125 -11.054688 14.890625 -6.847656 20.765625 -4.109375 C 26.640625 -1.367188 33.957031 0 42.71875 0 C 52.882812 0 60.359375 -1.816406 65.140625 -5.453125 C 69.921875 -9.085938 72.3125 -14.039062 72.3125 -20.3125 C 72.3125 -24.101562 71.5625 -27.363281 70.0625 -30.09375 C 68.570312 -32.832031 65.882812 -35.375 62 -37.71875 C 58.113281 -40.0625 52.535156 -42.578125 45.265625 -45.265625 C 36.992188 -48.546875 30.296875 -51.78125 25.171875 -54.96875 C 20.046875 -58.15625 16.285156 -61.71875 13.890625 -65.65625 C 11.503906 -69.59375 10.3125 -74.347656 10.3125 -79.921875 C 10.3125 -84.304688 11.03125 -88.113281 12.46875 -91.34375 C 13.914062 -94.582031 16.234375 -97.300781 19.421875 -99.5 C 22.703125 -101.882812 26.90625 -103.570312 32.03125 -104.5625 C 37.164062 -105.5625 43.21875 -106.0625 50.1875 -106.0625 Z M 50.1875 -106.0625 "/></g></g></g><g fill="#ffffff" fill-opacity="1"><g transform="translate(759.804797, 194.433207)"><g><path d="M 28.6875 -104.578125 L 57.8125 -104.578125 L 85.15625 -14.640625 C 86.25 -10.953125 87.367188 -8.160156 88.515625 -6.265625 C 89.660156 -4.378906 91.101562 -3.113281 92.84375 -2.46875 C 94.582031 -1.820312 96.898438 -1.5 99.796875 -1.5 L 99.796875 0 L 57.8125 0 L 57.8125 -1.5 C 62.59375 -1.5 66.050781 -1.992188 68.1875 -2.984375 C 70.332031 -3.984375 71.40625 -5.976562 71.40625 -8.96875 C 71.40625 -11.257812 70.804688 -14.394531 69.609375 -18.375 L 64.09375 -36.453125 L 24.203125 -36.453125 L 19.125 -20.609375 C 17.625 -15.828125 16.875 -12.144531 16.875 -9.5625 C 16.875 -6.375 17.992188 -4.234375 20.234375 -3.140625 C 22.484375 -2.046875 26.097656 -1.5 31.078125 -1.5 L 31.078125 0 L 1.5 0 L 1.5 -1.5 C 4.382812 -1.5 6.671875 -1.921875 8.359375 -2.765625 C 10.054688 -3.609375 11.550781 -5.203125 12.84375 -7.546875 C 14.144531 -9.890625 15.539062 -13.300781 17.03125 -17.78125 L 41.984375 -99.9375 C 40.585938 -101.132812 38.84375 -101.957031 36.75 -102.40625 C 34.65625 -102.851562 31.96875 -103.078125 28.6875 -103.078125 Z M 63.484375 -38.25 L 47.359375 -90.234375 C 46.160156 -94.117188 44.765625 -97.003906 43.171875 -98.890625 L 29.28125 -52.578125 C 28.476562 -49.890625 28.078125 -47.75 28.078125 -46.15625 C 28.078125 -40.882812 31.960938 -38.25 39.734375 -38.25 Z M 63.484375 -38.25 "/></g></g></g><g fill="#ffffff" fill-opacity="1"><g transform="translate(851.221165, 194.433207)"><g><path d="M 7.765625 -52.28125 C 7.765625 -61.550781 8.957031 -69.695312 11.34375 -76.71875 C 13.738281 -83.738281 17.328125 -89.4375 22.109375 -93.8125 C 26.785156 -98.195312 32.410156 -101.332031 38.984375 -103.21875 C 45.554688 -105.113281 52.878906 -106.0625 60.953125 -106.0625 C 68.222656 -106.0625 74.421875 -104.988281 79.546875 -102.84375 C 84.679688 -100.707031 88.613281 -97.820312 91.34375 -94.1875 C 94.082031 -90.550781 95.453125 -86.492188 95.453125 -82.015625 C 95.453125 -79.328125 94.601562 -77.132812 92.90625 -75.4375 C 91.21875 -73.75 89.03125 -72.90625 86.34375 -72.90625 C 83.65625 -72.90625 81.460938 -73.75 79.765625 -75.4375 C 78.078125 -77.132812 77.234375 -79.328125 77.234375 -82.015625 C 77.234375 -84.703125 78.078125 -86.890625 79.765625 -88.578125 C 81.460938 -90.273438 83.65625 -91.125 86.34375 -91.125 C 89.238281 -91.125 91.429688 -89.976562 92.921875 -87.6875 C 91.328125 -92.570312 87.816406 -96.609375 82.390625 -99.796875 C 76.960938 -102.984375 69.816406 -104.578125 60.953125 -104.578125 C 53.085938 -104.578125 46.210938 -102.78125 40.328125 -99.1875 C 34.453125 -95.601562 29.894531 -90 26.65625 -82.375 C 23.425781 -74.757812 21.8125 -64.929688 21.8125 -52.890625 C 21.8125 -40.234375 23.328125 -30.019531 26.359375 -22.25 C 29.398438 -14.488281 33.632812 -8.835938 39.0625 -5.296875 C 44.488281 -1.765625 50.789062 0 57.96875 0 C 63.238281 0 67.566406 -0.421875 70.953125 -1.265625 C 74.347656 -2.117188 77.585938 -3.488281 80.671875 -5.375 L 80.671875 -40.9375 C 80.671875 -43.820312 80.367188 -45.960938 79.765625 -47.359375 C 79.171875 -48.753906 77.828125 -49.675781 75.734375 -50.125 C 73.648438 -50.570312 70.316406 -50.796875 65.734375 -50.796875 L 65.734375 -52.28125 L 104.71875 -52.28125 L 104.71875 -50.796875 C 101.832031 -50.796875 99.691406 -50.570312 98.296875 -50.125 C 96.898438 -49.675781 96.003906 -48.753906 95.609375 -47.359375 C 95.210938 -45.960938 95.015625 -43.820312 95.015625 -40.9375 L 94.859375 0.75 L 93.375 0.75 L 86.796875 -6.125 C 83.015625 -3.632812 78.859375 -1.738281 74.328125 -0.4375 C 69.796875 0.851562 64.34375 1.5 57.96875 1.5 C 47.800781 1.5 38.957031 -0.414062 31.4375 -4.25 C 23.925781 -8.09375 18.101562 -13.992188 13.96875 -21.953125 C 9.832031 -29.921875 7.765625 -40.03125 7.765625 -52.28125 Z M 7.765625 -52.28125 "/></g></g></g><g fill="#ffffff" fill-opacity="1"><g transform="translate(951.002624, 194.433207)"><g><path d="M 27.78125 -103.078125 L 27.78125 -53.1875 L 57.671875 -53.1875 C 62.742188 -53.1875 66.5 -54.101562 68.9375 -55.9375 C 71.382812 -57.78125 72.609375 -61.691406 72.609375 -67.671875 L 74.09375 -67.671875 L 74.09375 -36.90625 L 72.609375 -36.90625 C 72.609375 -42.875 71.382812 -46.78125 68.9375 -48.625 C 66.5 -50.46875 62.742188 -51.390625 57.671875 -51.390625 L 27.78125 -51.390625 L 27.78125 -1.5 L 59.3125 -1.5 C 66.082031 -1.5 71.429688 -2.117188 75.359375 -3.359375 C 79.296875 -4.609375 82.085938 -6.875 83.734375 -10.15625 C 85.378906 -13.445312 86.203125 -18.128906 86.203125 -24.203125 L 87.6875 -24.203125 L 87.6875 0 L 3.890625 0 L 3.890625 -1.5 C 6.773438 -1.5 8.914062 -1.722656 10.3125 -2.171875 C 11.707031 -2.617188 12.601562 -3.535156 13 -4.921875 C 13.394531 -6.316406 13.59375 -8.460938 13.59375 -11.359375 L 13.59375 -93.21875 C 13.59375 -96.101562 13.394531 -98.242188 13 -99.640625 C 12.601562 -101.035156 11.707031 -101.957031 10.3125 -102.40625 C 8.914062 -102.851562 6.773438 -103.078125 3.890625 -103.078125 L 3.890625 -104.578125 L 87.6875 -104.578125 L 87.6875 -80.375 L 86.203125 -80.375 C 86.203125 -86.550781 85.378906 -91.253906 83.734375 -94.484375 C 82.085938 -97.722656 79.296875 -99.960938 75.359375 -101.203125 C 71.429688 -102.453125 66.082031 -103.078125 59.3125 -103.078125 Z M 27.78125 -103.078125 "/></g></g></g></g></g></g></g></svg>