<svg xmlns="http://www.w3.org/2000/svg" xmlns:xlink="http://www.w3.org/1999/xlink" width="500" zoomAndPan="magnify" viewBox="0 0 375 374.999991" height="500" preserveAspectRatio="xMidYMid meet" version="1.0"><defs><g/><clipPath id="a0077e2a93"><path d="M 7.539062 203.835938 L 136.378906 203.835938 L 136.378906 332.679688 L 7.539062 332.679688 Z M 7.539062 203.835938 " clip-rule="nonzero"/></clipPath><clipPath id="9e11de75b4"><path d="M 71.957031 203.835938 C 36.378906 203.835938 7.539062 232.679688 7.539062 268.257812 C 7.539062 303.835938 36.378906 332.679688 71.957031 332.679688 C 107.539062 332.679688 136.378906 303.835938 136.378906 268.257812 C 136.378906 232.679688 107.539062 203.835938 71.957031 203.835938 Z M 71.957031 203.835938 " clip-rule="nonzero"/></clipPath><clipPath id="106e222017"><path d="M 0.539062 0.835938 L 129.378906 0.835938 L 129.378906 129.679688 L 0.539062 129.679688 Z M 0.539062 0.835938 " clip-rule="nonzero"/></clipPath><clipPath id="a0ff305198"><path d="M 64.957031 0.835938 C 29.378906 0.835938 0.539062 29.679688 0.539062 65.257812 C 0.539062 100.835938 29.378906 129.679688 64.957031 129.679688 C 100.539062 129.679688 129.378906 100.835938 129.378906 65.257812 C 129.378906 29.679688 100.539062 0.835938 64.957031 0.835938 Z M 64.957031 0.835938 " clip-rule="nonzero"/></clipPath><clipPath id="99e0630528"><rect x="0" width="130" y="0" height="130"/></clipPath><clipPath id="9f0ac621b6"><path d="M 185 190.671875 L 196 190.671875 L 196 204 L 185 204 Z M 185 190.671875 " clip-rule="nonzero"/></clipPath><clipPath id="18e6d3cfad"><path d="M 185 204 L 196 204 L 196 216.921875 L 185 216.921875 Z M 185 204 " clip-rule="nonzero"/></clipPath><clipPath id="8aef559d77"><path d="M 191 198 L 203.878906 198 L 203.878906 209 L 191 209 Z M 191 198 " clip-rule="nonzero"/></clipPath><clipPath id="ec5a155dac"><path d="M 177.628906 198 L 191 198 L 191 209 L 177.628906 209 Z M 177.628906 198 " clip-rule="nonzero"/></clipPath><clipPath id="f9a8938b94"><path d="M 33 45.769531 L 74 45.769531 L 74 98 L 33 98 Z M 33 45.769531 " clip-rule="nonzero"/></clipPath><clipPath id="cb9c2d2ea8"><path d="M 33 100 L 74 100 L 74 151.257812 L 33 151.257812 Z M 33 100 " clip-rule="nonzero"/></clipPath><clipPath id="9cab9a54fe"><path d="M 55 78 L 106.210938 78 L 106.210938 120 L 55 120 Z M 55 78 " clip-rule="nonzero"/></clipPath><clipPath id="47dda07715"><path d="M 0.71875 78 L 53 78 L 53 120 L 0.71875 120 Z M 0.71875 78 " clip-rule="nonzero"/></clipPath><clipPath id="7cd8b8e0c7"><path d="M 46 80.125 L 61 80.125 L 61 99 L 46 99 Z M 46 80.125 " clip-rule="nonzero"/></clipPath><clipPath id="c1130c7040"><path d="M 46 99 L 61 99 L 61 117.09375 L 46 117.09375 Z M 46 99 " clip-rule="nonzero"/></clipPath><clipPath id="f7d3f8d005"><path d="M 54 91 L 72.042969 91 L 72.042969 106 L 54 106 Z M 54 91 " clip-rule="nonzero"/></clipPath><clipPath id="ba2161046e"><path d="M 35.078125 91 L 54 91 L 54 106 L 35.078125 106 Z M 35.078125 91 " clip-rule="nonzero"/></clipPath><clipPath id="4e513693e7"><path d="M 139 45.769531 L 180 45.769531 L 180 98 L 139 98 Z M 139 45.769531 " clip-rule="nonzero"/></clipPath><clipPath id="54de6a130d"><path d="M 139 100 L 180 100 L 180 151.257812 L 139 151.257812 Z M 139 100 " clip-rule="nonzero"/></clipPath><clipPath id="f85e1e1e17"><path d="M 160 78 L 211.992188 78 L 211.992188 120 L 160 120 Z M 160 78 " clip-rule="nonzero"/></clipPath><clipPath id="c17a29c293"><path d="M 106.5 78 L 158 78 L 158 120 L 106.5 120 Z M 106.5 78 " clip-rule="nonzero"/></clipPath><clipPath id="5df7858f69"><path d="M 152 80.125 L 167 80.125 L 167 99 L 152 99 Z M 152 80.125 " clip-rule="nonzero"/></clipPath><clipPath id="098a36bcf1"><path d="M 152 99 L 167 99 L 167 117.09375 L 152 117.09375 Z M 152 99 " clip-rule="nonzero"/></clipPath><clipPath id="2b82f01241"><path d="M 159 91 L 177.824219 91 L 177.824219 106 L 159 106 Z M 159 91 " clip-rule="nonzero"/></clipPath><clipPath id="e81f361373"><path d="M 140.855469 91 L 159 91 L 159 106 L 140.855469 106 Z M 140.855469 91 " clip-rule="nonzero"/></clipPath><clipPath id="ed6a07bc8f"><path d="M 92 0.5 L 121 0.5 L 121 37 L 92 37 Z M 92 0.5 " clip-rule="nonzero"/></clipPath><clipPath id="0b4e4be2bf"><path d="M 92 39 L 121 39 L 121 75.335938 L 92 75.335938 Z M 92 39 " clip-rule="nonzero"/></clipPath><clipPath id="9eab57ca01"><path d="M 107 23 L 143.761719 23 L 143.761719 53 L 107 53 Z M 107 23 " clip-rule="nonzero"/></clipPath><clipPath id="bd920dcde7"><path d="M 68.925781 23 L 106 23 L 106 53 L 68.925781 53 Z M 68.925781 23 " clip-rule="nonzero"/></clipPath><clipPath id="08ca92525d"><path d="M 101 24.910156 L 112 24.910156 L 112 38 L 101 38 Z M 101 24.910156 " clip-rule="nonzero"/></clipPath><clipPath id="76a193b246"><path d="M 101 38 L 112 38 L 112 51.058594 L 101 51.058594 Z M 101 38 " clip-rule="nonzero"/></clipPath><clipPath id="d6c80ea8d5"><path d="M 106 33 L 119.480469 33 L 119.480469 44 L 106 44 Z M 106 33 " clip-rule="nonzero"/></clipPath><clipPath id="c943d2ee2b"><path d="M 93.332031 33 L 107 33 L 107 44 L 93.332031 44 Z M 93.332031 33 " clip-rule="nonzero"/></clipPath><clipPath id="aa7b782801"><path d="M 92 121.664062 L 121 121.664062 L 121 159 L 92 159 Z M 92 121.664062 " clip-rule="nonzero"/></clipPath><clipPath id="b4730cb564"><path d="M 92 160 L 121 160 L 121 196.5 L 92 196.5 Z M 92 160 " clip-rule="nonzero"/></clipPath><clipPath id="a448d9f1c0"><path d="M 107 144 L 143.761719 144 L 143.761719 174 L 107 174 Z M 107 144 " clip-rule="nonzero"/></clipPath><clipPath id="0242516ce2"><path d="M 68.925781 144 L 106 144 L 106 174 L 68.925781 174 Z M 68.925781 144 " clip-rule="nonzero"/></clipPath><clipPath id="2adc1a2fa6"><path d="M 99 80.703125 L 114 80.703125 L 114 99 L 99 99 Z M 99 80.703125 " clip-rule="nonzero"/></clipPath><clipPath id="335c7e1e4d"><path d="M 99 99 L 114 99 L 114 116.769531 L 99 116.769531 Z M 99 99 " clip-rule="nonzero"/></clipPath><clipPath id="3b922b50e6"><path d="M 107 91 L 124.613281 91 L 124.613281 106 L 107 106 Z M 107 91 " clip-rule="nonzero"/></clipPath><clipPath id="acd7293bd8"><path d="M 88.546875 91 L 106 91 L 106 106 L 88.546875 106 Z M 88.546875 91 " clip-rule="nonzero"/></clipPath><clipPath id="cccf9b0af1"><rect x="0" width="213" y="0" height="197"/></clipPath><clipPath id="e967ba3b48"><path d="M 126 222.613281 L 135 222.613281 L 135 234 L 126 234 Z M 126 222.613281 " clip-rule="nonzero"/></clipPath><clipPath id="35830b191b"><path d="M 126 234 L 135 234 L 135 245.113281 L 126 245.113281 Z M 126 234 " clip-rule="nonzero"/></clipPath><clipPath id="da424b78d7"><path d="M 130 229 L 141.863281 229 L 141.863281 239 L 130 239 Z M 130 229 " clip-rule="nonzero"/></clipPath><clipPath id="fc59f13455"><path d="M 119.363281 229 L 131 229 L 131 239 L 119.363281 239 Z M 119.363281 229 " clip-rule="nonzero"/></clipPath><clipPath id="2e6e10f2f3"><path d="M 240 222.613281 L 249 222.613281 L 249 234 L 240 234 Z M 240 222.613281 " clip-rule="nonzero"/></clipPath><clipPath id="75cb241fe3"><path d="M 240 234 L 249 234 L 249 245.113281 L 240 245.113281 Z M 240 234 " clip-rule="nonzero"/></clipPath><clipPath id="ec5310566a"><path d="M 244 229 L 255.726562 229 L 255.726562 239 L 244 239 Z M 244 229 " clip-rule="nonzero"/></clipPath><clipPath id="d5f8520be5"><path d="M 233.226562 229 L 245 229 L 245 239 L 233.226562 239 Z M 233.226562 229 " clip-rule="nonzero"/></clipPath><clipPath id="6f7ed58471"><path d="M 47.871094 0.324219 L 128.671875 0.324219 L 128.671875 32.15625 L 47.871094 32.15625 Z M 47.871094 0.324219 " clip-rule="nonzero"/></clipPath><clipPath id="401decdfa2"><path d="M 47.871094 1 L 128.671875 1 L 128.671875 32 L 47.871094 32 Z M 47.871094 1 " clip-rule="nonzero"/></clipPath><clipPath id="7129a757ad"><rect x="0" width="145" y="0" height="33"/></clipPath><clipPath id="a572493c57"><rect x="0" width="351" y="0" height="104"/></clipPath></defs><g clip-path="url(#a0077e2a93)"><g clip-path="url(#9e11de75b4)"><g transform="matrix(1, 0, 0, 1, 7, 203)"><g clip-path="url(#99e0630528)"><g clip-path="url(#106e222017)"><g clip-path="url(#a0ff305198)"><path fill="#6a8e4e" d="M 0.539062 0.835938 L 129.378906 0.835938 L 129.378906 129.679688 L 0.539062 129.679688 Z M 0.539062 0.835938 " fill-opacity="1" fill-rule="nonzero"/></g></g></g></g></g></g><g clip-path="url(#9f0ac621b6)"><path fill="#2c473e" d="M 190.796875 190.671875 L 194.941406 194.816406 C 196.175781 196.050781 196.175781 198.058594 194.941406 199.292969 L 190.796875 203.4375 L 186.652344 199.292969 C 185.417969 198.058594 185.417969 196.050781 186.652344 194.816406 Z M 190.796875 190.671875 " fill-opacity="1" fill-rule="nonzero"/></g><path fill="#ffffff" d="M 190.796875 193.421875 L 193.566406 196.191406 C 194.800781 197.425781 194.800781 199.433594 193.566406 200.667969 L 190.796875 203.4375 L 188.027344 200.667969 C 186.789062 199.433594 186.789062 197.425781 188.027344 196.191406 Z M 190.796875 193.421875 " fill-opacity="1" fill-rule="nonzero"/><g clip-path="url(#18e6d3cfad)"><path fill="#2c473e" d="M 190.796875 217.003906 L 186.652344 212.859375 C 185.417969 211.625 185.417969 209.617188 186.652344 208.382812 L 190.796875 204.238281 L 194.941406 208.382812 C 196.175781 209.617188 196.175781 211.625 194.941406 212.859375 Z M 190.796875 217.003906 " fill-opacity="1" fill-rule="nonzero"/></g><path fill="#ffffff" d="M 190.796875 214.257812 L 188.027344 211.484375 C 186.789062 210.25 186.789062 208.242188 188.027344 207.007812 L 190.796875 204.238281 L 193.566406 207.007812 C 194.800781 208.242188 194.800781 210.25 193.566406 211.484375 Z M 190.796875 214.257812 " fill-opacity="1" fill-rule="nonzero"/><g clip-path="url(#8aef559d77)"><path fill="#2c473e" d="M 203.964844 203.839844 L 199.820312 207.980469 C 198.582031 209.21875 196.578125 209.21875 195.339844 207.980469 L 191.195312 203.839844 L 195.339844 199.695312 C 196.578125 198.457031 198.582031 198.457031 199.820312 199.695312 Z M 203.964844 203.839844 " fill-opacity="1" fill-rule="nonzero"/></g><path fill="#ffffff" d="M 201.214844 203.839844 L 198.445312 206.609375 C 197.207031 207.84375 195.203125 207.84375 193.964844 206.609375 L 191.195312 203.839844 L 193.964844 201.066406 C 195.203125 199.832031 197.207031 199.832031 198.445312 201.066406 Z M 201.214844 203.839844 " fill-opacity="1" fill-rule="nonzero"/><g clip-path="url(#ec5a155dac)"><path fill="#2c473e" d="M 177.628906 203.839844 L 181.773438 199.695312 C 183.011719 198.457031 185.015625 198.457031 186.253906 199.695312 L 190.398438 203.839844 L 186.253906 207.980469 C 185.015625 209.21875 183.011719 209.21875 181.773438 207.980469 Z M 177.628906 203.839844 " fill-opacity="1" fill-rule="nonzero"/></g><path fill="#ffffff" d="M 180.378906 203.839844 L 183.148438 201.066406 C 184.382812 199.832031 186.390625 199.832031 187.628906 201.066406 L 190.398438 203.839844 L 187.628906 206.609375 C 186.390625 207.84375 184.382812 207.84375 183.148438 206.609375 Z M 180.378906 203.839844 " fill-opacity="1" fill-rule="nonzero"/><g transform="matrix(1, 0, 0, 1, 81, 37)"><g clip-path="url(#cccf9b0af1)"><g clip-path="url(#f9a8938b94)"><path fill="#6a8e4e" d="M 53.609375 45.769531 L 70.257812 62.414062 C 75.222656 67.378906 75.222656 75.441406 70.257812 80.40625 L 53.609375 97.050781 L 36.960938 80.40625 C 32 75.441406 32 67.378906 36.960938 62.414062 Z M 53.609375 45.769531 " fill-opacity="1" fill-rule="nonzero"/></g><path fill="#2c473e" d="M 53.609375 56.8125 L 64.738281 67.9375 C 69.699219 72.902344 69.699219 80.960938 64.738281 85.925781 L 53.609375 97.050781 L 42.484375 85.925781 C 37.519531 80.960938 37.519531 72.902344 42.484375 67.9375 Z M 53.609375 56.8125 " fill-opacity="1" fill-rule="nonzero"/><g clip-path="url(#cb9c2d2ea8)"><path fill="#6a8e4e" d="M 53.609375 151.550781 L 36.964844 134.902344 C 32 129.9375 32 121.875 36.964844 116.910156 L 53.609375 100.265625 L 70.257812 116.910156 C 75.222656 121.875 75.222656 129.9375 70.257812 134.902344 Z M 53.609375 151.550781 " fill-opacity="1" fill-rule="nonzero"/></g><path fill="#2c473e" d="M 53.609375 140.507812 L 42.484375 129.378906 C 37.519531 124.417969 37.519531 116.355469 42.484375 111.390625 L 53.609375 100.265625 L 64.738281 111.390625 C 69.699219 116.355469 69.699219 124.417969 64.738281 129.378906 Z M 53.609375 140.507812 " fill-opacity="1" fill-rule="nonzero"/><g clip-path="url(#9cab9a54fe)"><path fill="#6a8e4e" d="M 106.5 98.660156 L 89.851562 115.304688 C 84.890625 120.269531 76.828125 120.269531 71.863281 115.304688 L 55.214844 98.660156 L 71.863281 82.011719 C 76.828125 77.046875 84.890625 77.046875 89.851562 82.011719 Z M 106.5 98.660156 " fill-opacity="1" fill-rule="nonzero"/></g><path fill="#2c473e" d="M 95.457031 98.660156 L 84.332031 109.785156 C 79.367188 114.75 71.308594 114.75 66.34375 109.785156 L 55.214844 98.660156 L 66.34375 87.53125 C 71.308594 82.566406 79.367188 82.566406 84.332031 87.53125 Z M 95.457031 98.660156 " fill-opacity="1" fill-rule="nonzero"/><g clip-path="url(#47dda07715)"><path fill="#6a8e4e" d="M 0.71875 98.660156 L 17.367188 82.011719 C 22.332031 77.046875 30.394531 77.046875 35.355469 82.011719 L 52.003906 98.660156 L 35.355469 115.304688 C 30.394531 120.269531 22.332031 120.269531 17.367188 115.304688 Z M 0.71875 98.660156 " fill-opacity="1" fill-rule="nonzero"/></g><path fill="#2c473e" d="M 11.761719 98.660156 L 22.890625 87.53125 C 27.851562 82.566406 35.914062 82.566406 40.878906 87.53125 L 52.003906 98.660156 L 40.878906 109.785156 C 35.914062 114.75 27.851562 114.75 22.890625 109.785156 Z M 11.761719 98.660156 " fill-opacity="1" fill-rule="nonzero"/><g clip-path="url(#7cd8b8e0c7)"><path fill="#2c473e" d="M 53.605469 80.125 L 59.4375 85.957031 C 61.175781 87.695312 61.175781 90.519531 59.4375 92.257812 L 53.605469 98.089844 L 47.773438 92.257812 C 46.035156 90.519531 46.035156 87.695312 47.773438 85.957031 Z M 53.605469 80.125 " fill-opacity="1" fill-rule="nonzero"/></g><path fill="#ffffff" d="M 53.605469 83.992188 L 57.5 87.890625 C 59.242188 89.628906 59.242188 92.453125 57.5 94.191406 L 53.605469 98.089844 L 49.707031 94.191406 C 47.96875 92.453125 47.96875 89.628906 49.707031 87.890625 Z M 53.605469 83.992188 " fill-opacity="1" fill-rule="nonzero"/><g clip-path="url(#c1130c7040)"><path fill="#2c473e" d="M 53.605469 117.179688 L 47.773438 111.347656 C 46.035156 109.609375 46.035156 106.785156 47.773438 105.046875 L 53.605469 99.214844 L 59.4375 105.046875 C 61.175781 106.785156 61.175781 109.609375 59.4375 111.347656 Z M 53.605469 117.179688 " fill-opacity="1" fill-rule="nonzero"/></g><path fill="#ffffff" d="M 53.605469 113.3125 L 49.707031 109.414062 C 47.96875 107.675781 47.96875 104.851562 49.707031 103.113281 L 53.605469 99.214844 L 57.5 103.113281 C 59.242188 104.851562 59.242188 107.675781 57.5 109.414062 Z M 53.605469 113.3125 " fill-opacity="1" fill-rule="nonzero"/><g clip-path="url(#f7d3f8d005)"><path fill="#2c473e" d="M 72.132812 98.652344 L 66.300781 104.484375 C 64.5625 106.222656 61.738281 106.222656 60 104.484375 L 54.167969 98.652344 L 60 92.820312 C 61.738281 91.082031 64.5625 91.082031 66.300781 92.820312 Z M 72.132812 98.652344 " fill-opacity="1" fill-rule="nonzero"/></g><path fill="#ffffff" d="M 68.261719 98.652344 L 64.367188 102.550781 C 62.628906 104.289062 59.804688 104.289062 58.066406 102.550781 L 54.167969 98.652344 L 58.066406 94.753906 C 59.804688 93.015625 62.628906 93.015625 64.367188 94.753906 Z M 68.261719 98.652344 " fill-opacity="1" fill-rule="nonzero"/><g clip-path="url(#ba2161046e)"><path fill="#2c473e" d="M 35.078125 98.652344 L 40.910156 92.820312 C 42.648438 91.082031 45.472656 91.082031 47.210938 92.820312 L 53.042969 98.652344 L 47.210938 104.484375 C 45.472656 106.222656 42.648438 106.222656 40.910156 104.484375 Z M 35.078125 98.652344 " fill-opacity="1" fill-rule="nonzero"/></g><path fill="#ffffff" d="M 38.945312 98.652344 L 42.84375 94.753906 C 44.582031 93.015625 47.40625 93.015625 49.144531 94.753906 L 53.042969 98.652344 L 49.144531 102.550781 C 47.40625 104.289062 44.582031 104.289062 42.84375 102.550781 Z M 38.945312 98.652344 " fill-opacity="1" fill-rule="nonzero"/><g clip-path="url(#4e513693e7)"><path fill="#6a8e4e" d="M 159.390625 45.769531 L 176.039062 62.414062 C 181.003906 67.378906 181.003906 75.441406 176.039062 80.40625 L 159.390625 97.050781 L 142.742188 80.40625 C 137.777344 75.441406 137.777344 67.378906 142.742188 62.414062 Z M 159.390625 45.769531 " fill-opacity="1" fill-rule="nonzero"/></g><path fill="#2c473e" d="M 159.390625 56.8125 L 170.515625 67.9375 C 175.480469 72.902344 175.480469 80.960938 170.515625 85.925781 L 159.390625 97.050781 L 148.265625 85.925781 C 143.300781 80.960938 143.300781 72.902344 148.265625 67.9375 Z M 159.390625 56.8125 " fill-opacity="1" fill-rule="nonzero"/><g clip-path="url(#54de6a130d)"><path fill="#6a8e4e" d="M 159.390625 151.550781 L 142.742188 134.902344 C 137.777344 129.9375 137.777344 121.875 142.742188 116.910156 L 159.390625 100.265625 L 176.039062 116.910156 C 181.003906 121.875 181.003906 129.9375 176.039062 134.902344 Z M 159.390625 151.550781 " fill-opacity="1" fill-rule="nonzero"/></g><path fill="#2c473e" d="M 159.390625 140.507812 L 148.265625 129.378906 C 143.300781 124.417969 143.300781 116.355469 148.265625 111.390625 L 159.390625 100.265625 L 170.515625 111.390625 C 175.480469 116.355469 175.480469 124.417969 170.515625 129.378906 Z M 159.390625 140.507812 " fill-opacity="1" fill-rule="nonzero"/><g clip-path="url(#f85e1e1e17)"><path fill="#6a8e4e" d="M 212.28125 98.660156 L 195.632812 115.304688 C 190.667969 120.269531 182.609375 120.269531 177.644531 115.304688 L 160.996094 98.660156 L 177.644531 82.011719 C 182.609375 77.046875 190.667969 77.046875 195.632812 82.011719 Z M 212.28125 98.660156 " fill-opacity="1" fill-rule="nonzero"/></g><path fill="#2c473e" d="M 201.238281 98.660156 L 190.113281 109.785156 C 185.148438 114.75 177.085938 114.75 172.121094 109.785156 L 160.996094 98.660156 L 172.121094 87.53125 C 177.085938 82.566406 185.148438 82.566406 190.113281 87.53125 Z M 201.238281 98.660156 " fill-opacity="1" fill-rule="nonzero"/><g clip-path="url(#c17a29c293)"><path fill="#6a8e4e" d="M 106.5 98.660156 L 123.148438 82.011719 C 128.113281 77.046875 136.171875 77.046875 141.136719 82.011719 L 157.785156 98.660156 L 141.136719 115.304688 C 136.171875 120.269531 128.113281 120.269531 123.148438 115.304688 Z M 106.5 98.660156 " fill-opacity="1" fill-rule="nonzero"/></g><path fill="#2c473e" d="M 117.542969 98.660156 L 128.667969 87.53125 C 133.632812 82.566406 141.695312 82.566406 146.660156 87.53125 L 157.785156 98.660156 L 146.660156 109.785156 C 141.695312 114.75 133.632812 114.75 128.667969 109.785156 Z M 117.542969 98.660156 " fill-opacity="1" fill-rule="nonzero"/><g clip-path="url(#5df7858f69)"><path fill="#2c473e" d="M 159.382812 80.125 L 165.214844 85.957031 C 166.957031 87.695312 166.957031 90.519531 165.214844 92.257812 L 159.382812 98.089844 L 153.554688 92.257812 C 151.8125 90.519531 151.8125 87.695312 153.554688 85.957031 Z M 159.382812 80.125 " fill-opacity="1" fill-rule="nonzero"/></g><path fill="#ffffff" d="M 159.382812 83.992188 L 163.28125 87.890625 C 165.019531 89.628906 165.019531 92.453125 163.28125 94.191406 L 159.382812 98.089844 L 155.488281 94.191406 C 153.75 92.453125 153.75 89.628906 155.488281 87.890625 Z M 159.382812 83.992188 " fill-opacity="1" fill-rule="nonzero"/><g clip-path="url(#098a36bcf1)"><path fill="#2c473e" d="M 159.382812 117.179688 L 153.554688 111.347656 C 151.8125 109.609375 151.8125 106.785156 153.554688 105.046875 L 159.382812 99.214844 L 165.214844 105.046875 C 166.957031 106.785156 166.957031 109.609375 165.214844 111.347656 Z M 159.382812 117.179688 " fill-opacity="1" fill-rule="nonzero"/></g><path fill="#ffffff" d="M 159.382812 113.3125 L 155.488281 109.414062 C 153.75 107.675781 153.75 104.851562 155.488281 103.113281 L 159.382812 99.214844 L 163.28125 103.113281 C 165.019531 104.851562 165.019531 107.675781 163.28125 109.414062 Z M 159.382812 113.3125 " fill-opacity="1" fill-rule="nonzero"/><g clip-path="url(#2b82f01241)"><path fill="#2c473e" d="M 177.910156 98.652344 L 172.082031 104.484375 C 170.339844 106.222656 167.519531 106.222656 165.777344 104.484375 L 159.945312 98.652344 L 165.777344 92.820312 C 167.519531 91.082031 170.339844 91.082031 172.082031 92.820312 Z M 177.910156 98.652344 " fill-opacity="1" fill-rule="nonzero"/></g><path fill="#ffffff" d="M 174.042969 98.652344 L 170.144531 102.550781 C 168.40625 104.289062 165.582031 104.289062 163.84375 102.550781 L 159.945312 98.652344 L 163.84375 94.753906 C 165.582031 93.015625 168.40625 93.015625 170.144531 94.753906 Z M 174.042969 98.652344 " fill-opacity="1" fill-rule="nonzero"/><g clip-path="url(#e81f361373)"><path fill="#2c473e" d="M 140.855469 98.652344 L 146.6875 92.820312 C 148.429688 91.082031 151.25 91.082031 152.992188 92.820312 L 158.820312 98.652344 L 152.992188 104.484375 C 151.25 106.222656 148.429688 106.222656 146.6875 104.484375 Z M 140.855469 98.652344 " fill-opacity="1" fill-rule="nonzero"/></g><path fill="#ffffff" d="M 144.726562 98.652344 L 148.621094 94.753906 C 150.363281 93.015625 153.1875 93.015625 154.925781 94.753906 L 158.820312 98.652344 L 154.925781 102.550781 C 153.1875 104.289062 150.363281 104.289062 148.621094 102.550781 Z M 144.726562 98.652344 " fill-opacity="1" fill-rule="nonzero"/><g clip-path="url(#ed6a07bc8f)"><path fill="#6a8e4e" d="M 106.5 0.5 L 118.328125 12.328125 C 121.855469 15.855469 121.855469 21.582031 118.328125 25.109375 L 106.5 36.933594 L 94.671875 25.109375 C 91.144531 21.582031 91.144531 15.855469 94.671875 12.328125 Z M 106.5 0.5 " fill-opacity="1" fill-rule="nonzero"/></g><path fill="#2c473e" d="M 106.5 8.34375 L 114.40625 16.25 C 117.929688 19.777344 117.929688 25.503906 114.40625 29.03125 L 106.5 36.933594 L 98.59375 29.03125 C 95.070312 25.503906 95.070312 19.777344 98.59375 16.25 Z M 106.5 8.34375 " fill-opacity="1" fill-rule="nonzero"/><g clip-path="url(#0b4e4be2bf)"><path fill="#6a8e4e" d="M 106.5 75.652344 L 94.671875 63.824219 C 91.144531 60.296875 91.144531 54.570312 94.671875 51.042969 L 106.5 39.214844 L 118.328125 51.042969 C 121.855469 54.570312 121.855469 60.296875 118.328125 63.824219 Z M 106.5 75.652344 " fill-opacity="1" fill-rule="nonzero"/></g><path fill="#2c473e" d="M 106.5 67.804688 L 98.59375 59.902344 C 95.070312 56.375 95.070312 50.648438 98.59375 47.121094 L 106.5 39.21875 L 114.40625 47.121094 C 117.929688 50.648438 117.929688 56.375 114.40625 59.902344 Z M 106.5 67.804688 " fill-opacity="1" fill-rule="nonzero"/><g clip-path="url(#9eab57ca01)"><path fill="#6a8e4e" d="M 144.074219 38.074219 L 132.25 49.902344 C 128.722656 53.429688 122.996094 53.429688 119.46875 49.902344 L 107.640625 38.074219 L 119.46875 26.25 C 122.996094 22.722656 128.722656 22.722656 132.25 26.25 Z M 144.074219 38.074219 " fill-opacity="1" fill-rule="nonzero"/></g><path fill="#2c473e" d="M 136.230469 38.074219 L 128.324219 45.980469 C 124.800781 49.507812 119.074219 49.507812 115.546875 45.980469 L 107.640625 38.074219 L 115.546875 30.171875 C 119.074219 26.644531 124.800781 26.644531 128.324219 30.171875 Z M 136.230469 38.074219 " fill-opacity="1" fill-rule="nonzero"/><g clip-path="url(#bd920dcde7)"><path fill="#6a8e4e" d="M 68.925781 38.074219 L 80.75 26.25 C 84.277344 22.722656 90.003906 22.722656 93.53125 26.25 L 105.359375 38.074219 L 93.53125 49.902344 C 90.003906 53.429688 84.277344 53.429688 80.75 49.902344 Z M 68.925781 38.074219 " fill-opacity="1" fill-rule="nonzero"/></g><path fill="#2c473e" d="M 76.769531 38.074219 L 84.675781 30.171875 C 88.199219 26.644531 93.925781 26.644531 97.453125 30.171875 L 105.359375 38.074219 L 97.453125 45.980469 C 93.925781 49.507812 88.199219 49.507812 84.675781 45.980469 Z M 76.769531 38.074219 " fill-opacity="1" fill-rule="nonzero"/><g clip-path="url(#08ca92525d)"><path fill="#2c473e" d="M 106.5 24.910156 L 110.644531 29.054688 C 111.878906 30.289062 111.878906 32.296875 110.644531 33.53125 L 106.5 37.675781 L 102.355469 33.53125 C 101.121094 32.296875 101.121094 30.289062 102.355469 29.054688 Z M 106.5 24.910156 " fill-opacity="1" fill-rule="nonzero"/></g><path fill="#ffffff" d="M 106.5 27.65625 L 109.269531 30.429688 C 110.503906 31.664062 110.503906 33.671875 109.269531 34.90625 L 106.5 37.675781 L 103.730469 34.90625 C 102.496094 33.671875 102.496094 31.664062 103.730469 30.429688 Z M 106.5 27.65625 " fill-opacity="1" fill-rule="nonzero"/><g clip-path="url(#76a193b246)"><path fill="#2c473e" d="M 106.5 51.242188 L 102.355469 47.097656 C 101.121094 45.863281 101.121094 43.855469 102.355469 42.621094 L 106.5 38.476562 L 110.644531 42.621094 C 111.878906 43.855469 111.878906 45.863281 110.644531 47.097656 Z M 106.5 51.242188 " fill-opacity="1" fill-rule="nonzero"/></g><path fill="#ffffff" d="M 106.5 48.492188 L 103.730469 45.722656 C 102.496094 44.488281 102.496094 42.480469 103.730469 41.246094 L 106.5 38.476562 L 109.269531 41.246094 C 110.503906 42.480469 110.503906 44.488281 109.269531 45.722656 Z M 106.5 48.492188 " fill-opacity="1" fill-rule="nonzero"/><g clip-path="url(#d6c80ea8d5)"><path fill="#2c473e" d="M 119.664062 38.074219 L 115.523438 42.21875 C 114.285156 43.457031 112.28125 43.457031 111.042969 42.21875 L 106.898438 38.074219 L 111.042969 33.929688 C 112.28125 32.695312 114.285156 32.695312 115.523438 33.929688 Z M 119.664062 38.074219 " fill-opacity="1" fill-rule="nonzero"/></g><path fill="#ffffff" d="M 116.917969 38.074219 L 114.148438 40.84375 C 112.910156 42.082031 110.90625 42.082031 109.667969 40.84375 L 106.898438 38.074219 L 109.667969 35.304688 C 110.90625 34.070312 112.910156 34.070312 114.148438 35.304688 Z M 116.917969 38.074219 " fill-opacity="1" fill-rule="nonzero"/><g clip-path="url(#c943d2ee2b)"><path fill="#2c473e" d="M 93.332031 38.074219 L 97.476562 33.929688 C 98.714844 32.695312 100.71875 32.695312 101.957031 33.929688 L 106.101562 38.074219 L 101.957031 42.21875 C 100.71875 43.457031 98.714844 43.457031 97.476562 42.21875 Z M 93.332031 38.074219 " fill-opacity="1" fill-rule="nonzero"/></g><path fill="#ffffff" d="M 96.082031 38.074219 L 98.851562 35.304688 C 100.085938 34.070312 102.09375 34.070312 103.332031 35.304688 L 106.101562 38.074219 L 103.332031 40.84375 C 102.09375 42.082031 100.085938 42.082031 98.851562 40.84375 Z M 96.082031 38.074219 " fill-opacity="1" fill-rule="nonzero"/><g clip-path="url(#aa7b782801)"><path fill="#6a8e4e" d="M 106.5 121.664062 L 118.328125 133.492188 C 121.855469 137.019531 121.855469 142.746094 118.328125 146.273438 L 106.5 158.097656 L 94.671875 146.273438 C 91.144531 142.746094 91.144531 137.019531 94.671875 133.492188 Z M 106.5 121.664062 " fill-opacity="1" fill-rule="nonzero"/></g><path fill="#2c473e" d="M 106.5 129.507812 L 114.40625 137.414062 C 117.929688 140.941406 117.929688 146.667969 114.40625 150.195312 L 106.5 158.097656 L 98.59375 150.195312 C 95.070312 146.667969 95.070312 140.941406 98.59375 137.414062 Z M 106.5 129.507812 " fill-opacity="1" fill-rule="nonzero"/><g clip-path="url(#b4730cb564)"><path fill="#6a8e4e" d="M 106.5 196.816406 L 94.671875 184.988281 C 91.144531 181.460938 91.144531 175.734375 94.671875 172.207031 L 106.5 160.382812 L 118.328125 172.207031 C 121.855469 175.734375 121.855469 181.460938 118.328125 184.988281 Z M 106.5 196.816406 " fill-opacity="1" fill-rule="nonzero"/></g><path fill="#2c473e" d="M 106.5 188.972656 L 98.59375 181.066406 C 95.070312 177.539062 95.070312 171.8125 98.59375 168.285156 L 106.5 160.382812 L 114.40625 168.285156 C 117.929688 171.8125 117.929688 177.539062 114.40625 181.066406 Z M 106.5 188.972656 " fill-opacity="1" fill-rule="nonzero"/><g clip-path="url(#a448d9f1c0)"><path fill="#6a8e4e" d="M 144.074219 159.238281 L 132.25 171.066406 C 128.722656 174.59375 122.996094 174.59375 119.46875 171.066406 L 107.640625 159.238281 L 119.46875 147.414062 C 122.996094 143.886719 128.722656 143.886719 132.25 147.414062 Z M 144.074219 159.238281 " fill-opacity="1" fill-rule="nonzero"/></g><path fill="#2c473e" d="M 136.230469 159.238281 L 128.324219 167.144531 C 124.800781 170.671875 119.074219 170.671875 115.546875 167.144531 L 107.640625 159.238281 L 115.546875 151.335938 C 119.074219 147.808594 124.800781 147.808594 128.324219 151.335938 Z M 136.230469 159.238281 " fill-opacity="1" fill-rule="nonzero"/><g clip-path="url(#0242516ce2)"><path fill="#6a8e4e" d="M 68.925781 159.238281 L 80.75 147.414062 C 84.277344 143.886719 90.003906 143.886719 93.53125 147.414062 L 105.359375 159.238281 L 93.53125 171.066406 C 90.003906 174.59375 84.277344 174.59375 80.75 171.066406 Z M 68.925781 159.238281 " fill-opacity="1" fill-rule="nonzero"/></g><path fill="#2c473e" d="M 76.769531 159.238281 L 84.675781 151.335938 C 88.199219 147.808594 93.925781 147.808594 97.453125 151.335938 L 105.359375 159.238281 L 97.453125 167.144531 C 93.925781 170.671875 88.199219 170.671875 84.675781 167.144531 Z M 76.769531 159.238281 " fill-opacity="1" fill-rule="nonzero"/><g clip-path="url(#2adc1a2fa6)"><path fill="#2c473e" d="M 106.496094 80.703125 L 112.144531 86.355469 C 113.832031 88.039062 113.832031 90.773438 112.144531 92.460938 L 106.496094 98.109375 L 100.847656 92.460938 C 99.160156 90.773438 99.160156 88.039062 100.847656 86.355469 Z M 106.496094 80.703125 " fill-opacity="1" fill-rule="nonzero"/></g><path fill="#ffffff" d="M 106.496094 84.453125 L 110.273438 88.226562 C 111.957031 89.914062 111.957031 92.648438 110.273438 94.332031 L 106.496094 98.109375 L 102.71875 94.332031 C 101.035156 92.648438 101.035156 89.914062 102.71875 88.226562 Z M 106.496094 84.453125 " fill-opacity="1" fill-rule="nonzero"/><g clip-path="url(#335c7e1e4d)"><path fill="#2c473e" d="M 106.496094 116.605469 L 100.847656 110.953125 C 99.160156 109.269531 99.160156 106.535156 100.847656 104.847656 L 106.496094 99.199219 L 112.144531 104.847656 C 113.832031 106.535156 113.832031 109.269531 112.144531 110.953125 Z M 106.496094 116.605469 " fill-opacity="1" fill-rule="nonzero"/></g><path fill="#ffffff" d="M 106.496094 112.855469 L 102.71875 109.082031 C 101.035156 107.394531 101.035156 104.660156 102.71875 102.976562 L 106.496094 99.199219 L 110.273438 102.976562 C 111.957031 104.660156 111.957031 107.394531 110.273438 109.082031 Z M 106.496094 112.855469 " fill-opacity="1" fill-rule="nonzero"/><g clip-path="url(#3b922b50e6)"><path fill="#2c473e" d="M 124.445312 98.652344 L 118.796875 104.304688 C 117.109375 105.988281 114.375 105.988281 112.691406 104.304688 L 107.042969 98.652344 L 112.691406 93.003906 C 114.375 91.320312 117.109375 91.320312 118.796875 93.003906 Z M 124.445312 98.652344 " fill-opacity="1" fill-rule="nonzero"/></g><path fill="#ffffff" d="M 120.699219 98.652344 L 116.921875 102.429688 C 115.238281 104.113281 112.503906 104.113281 110.816406 102.429688 L 107.042969 98.652344 L 110.816406 94.878906 C 112.503906 93.195312 115.238281 93.195312 116.921875 94.878906 Z M 120.699219 98.652344 " fill-opacity="1" fill-rule="nonzero"/><g clip-path="url(#acd7293bd8)"><path fill="#2c473e" d="M 88.546875 98.652344 L 94.195312 93.003906 C 95.882812 91.320312 98.617188 91.320312 100.300781 93.003906 L 105.953125 98.652344 L 100.300781 104.304688 C 98.617188 105.988281 95.882812 105.988281 94.195312 104.304688 Z M 88.546875 98.652344 " fill-opacity="1" fill-rule="nonzero"/></g><path fill="#ffffff" d="M 92.292969 98.652344 L 96.070312 94.878906 C 97.753906 93.195312 100.492188 93.195312 102.175781 94.878906 L 105.953125 98.652344 L 102.175781 102.429688 C 100.492188 104.113281 97.753906 104.113281 96.070312 102.429688 Z M 92.292969 98.652344 " fill-opacity="1" fill-rule="nonzero"/></g></g><g clip-path="url(#e967ba3b48)"><path fill="#6a8e4e" d="M 130.570312 222.613281 L 134.09375 226.140625 C 135.148438 227.191406 135.148438 228.898438 134.09375 229.949219 L 130.570312 233.476562 L 127.042969 229.949219 C 125.992188 228.898438 125.992188 227.191406 127.042969 226.140625 Z M 130.570312 222.613281 " fill-opacity="1" fill-rule="nonzero"/></g><path fill="#ffffff" d="M 130.570312 224.953125 L 132.925781 227.308594 C 133.976562 228.359375 133.976562 230.066406 132.925781 231.117188 L 130.570312 233.476562 L 128.210938 231.117188 C 127.160156 230.066406 127.160156 228.359375 128.210938 227.308594 Z M 130.570312 224.953125 " fill-opacity="1" fill-rule="nonzero"/><g clip-path="url(#35830b191b)"><path fill="#6a8e4e" d="M 130.570312 245.019531 L 127.042969 241.492188 C 125.992188 240.441406 125.992188 238.734375 127.042969 237.683594 L 130.570312 234.15625 L 134.09375 237.683594 C 135.148438 238.734375 135.148438 240.441406 134.09375 241.492188 Z M 130.570312 245.019531 " fill-opacity="1" fill-rule="nonzero"/></g><path fill="#ffffff" d="M 130.570312 242.679688 L 128.210938 240.324219 C 127.160156 239.273438 127.160156 237.566406 128.210938 236.511719 L 130.570312 234.15625 L 132.925781 236.511719 C 133.976562 237.566406 133.976562 239.273438 132.925781 240.324219 Z M 130.570312 242.679688 " fill-opacity="1" fill-rule="nonzero"/><g clip-path="url(#da424b78d7)"><path fill="#6a8e4e" d="M 141.773438 233.816406 L 138.246094 237.34375 C 137.195312 238.394531 135.488281 238.394531 134.433594 237.34375 L 130.910156 233.816406 L 134.433594 230.289062 C 135.488281 229.238281 137.195312 229.238281 138.246094 230.289062 Z M 141.773438 233.816406 " fill-opacity="1" fill-rule="nonzero"/></g><path fill="#ffffff" d="M 139.433594 233.816406 L 137.078125 236.171875 C 136.023438 237.226562 134.316406 237.226562 133.265625 236.171875 L 130.910156 233.816406 L 133.265625 231.460938 C 134.316406 230.40625 136.023438 230.40625 137.078125 231.460938 Z M 139.433594 233.816406 " fill-opacity="1" fill-rule="nonzero"/><g clip-path="url(#fc59f13455)"><path fill="#6a8e4e" d="M 119.363281 233.816406 L 122.890625 230.289062 C 123.941406 229.238281 125.648438 229.238281 126.703125 230.289062 L 130.226562 233.816406 L 126.703125 237.34375 C 125.648438 238.394531 123.941406 238.394531 122.890625 237.34375 Z M 119.363281 233.816406 " fill-opacity="1" fill-rule="nonzero"/></g><path fill="#ffffff" d="M 121.703125 233.816406 L 124.0625 231.460938 C 125.113281 230.40625 126.820312 230.40625 127.871094 231.460938 L 130.226562 233.816406 L 127.871094 236.171875 C 126.820312 237.226562 125.113281 237.226562 124.0625 236.171875 Z M 121.703125 233.816406 " fill-opacity="1" fill-rule="nonzero"/><g clip-path="url(#2e6e10f2f3)"><path fill="#6a8e4e" d="M 244.433594 222.613281 L 247.957031 226.140625 C 249.011719 227.191406 249.011719 228.898438 247.957031 229.949219 L 244.433594 233.476562 L 240.90625 229.949219 C 239.855469 228.898438 239.855469 227.191406 240.90625 226.140625 Z M 244.433594 222.613281 " fill-opacity="1" fill-rule="nonzero"/></g><path fill="#ffffff" d="M 244.433594 224.953125 L 246.789062 227.308594 C 247.839844 228.359375 247.839844 230.066406 246.789062 231.117188 L 244.433594 233.476562 L 242.074219 231.117188 C 241.023438 230.066406 241.023438 228.359375 242.074219 227.308594 Z M 244.433594 224.953125 " fill-opacity="1" fill-rule="nonzero"/><g clip-path="url(#75cb241fe3)"><path fill="#6a8e4e" d="M 244.433594 245.019531 L 240.90625 241.492188 C 239.855469 240.441406 239.855469 238.734375 240.90625 237.683594 L 244.433594 234.15625 L 247.957031 237.683594 C 249.011719 238.734375 249.011719 240.441406 247.957031 241.492188 Z M 244.433594 245.019531 " fill-opacity="1" fill-rule="nonzero"/></g><path fill="#ffffff" d="M 244.433594 242.679688 L 242.074219 240.324219 C 241.023438 239.273438 241.023438 237.566406 242.074219 236.511719 L 244.433594 234.15625 L 246.789062 236.511719 C 247.839844 237.566406 247.839844 239.273438 246.789062 240.324219 Z M 244.433594 242.679688 " fill-opacity="1" fill-rule="nonzero"/><g clip-path="url(#ec5310566a)"><path fill="#6a8e4e" d="M 255.636719 233.816406 L 252.109375 237.34375 C 251.058594 238.394531 249.351562 238.394531 248.296875 237.34375 L 244.773438 233.816406 L 248.296875 230.289062 C 249.351562 229.238281 251.058594 229.238281 252.109375 230.289062 Z M 255.636719 233.816406 " fill-opacity="1" fill-rule="nonzero"/></g><path fill="#ffffff" d="M 253.296875 233.816406 L 250.941406 236.171875 C 249.886719 237.226562 248.179688 237.226562 247.128906 236.171875 L 244.773438 233.816406 L 247.128906 231.460938 C 248.179688 230.40625 249.886719 230.40625 250.941406 231.460938 Z M 253.296875 233.816406 " fill-opacity="1" fill-rule="nonzero"/><g clip-path="url(#d5f8520be5)"><path fill="#6a8e4e" d="M 233.226562 233.816406 L 236.753906 230.289062 C 237.804688 229.238281 239.511719 229.238281 240.566406 230.289062 L 244.089844 233.816406 L 240.566406 237.34375 C 239.511719 238.394531 237.804688 238.394531 236.753906 237.34375 Z M 233.226562 233.816406 " fill-opacity="1" fill-rule="nonzero"/></g><path fill="#ffffff" d="M 235.566406 233.816406 L 237.921875 231.460938 C 238.976562 230.40625 240.683594 230.40625 241.734375 231.460938 L 244.089844 233.816406 L 241.734375 236.171875 C 240.683594 237.226562 238.976562 237.226562 237.921875 236.171875 Z M 235.566406 233.816406 " fill-opacity="1" fill-rule="nonzero"/><g transform="matrix(1, 0, 0, 1, 230, 300)"><g clip-path="url(#7129a757ad)"><g clip-path="url(#6f7ed58471)"><path fill="#6a8e4e" d="M 0.316406 17.472656 C 1.753906 16.230469 3.675781 15.742188 4.957031 14.304688 C 5.5 13.699219 5.976562 13.078125 6.4375 12.472656 C 7.976562 10.46875 9.378906 8.644531 12.328125 8.105469 C 12.398438 5.53125 14.195312 3.640625 16.449219 2.367188 C 18.746094 1.066406 21.523438 0.40625 23.363281 0.328125 C 23.367188 0.328125 23.386719 0.324219 23.421875 0.324219 L 152.511719 0.324219 C 152.546875 0.328125 152.566406 0.328125 152.570312 0.328125 C 154.410156 0.40625 157.191406 1.066406 159.484375 2.367188 C 161.738281 3.640625 163.539062 5.53125 163.605469 8.105469 C 166.554688 8.644531 167.957031 10.46875 169.496094 12.472656 C 169.90625 13.007812 170.324219 13.554688 170.792969 14.09375 C 170.644531 13.925781 170.527344 13.792969 170.976562 14.304688 C 170.914062 14.234375 170.851562 14.164062 170.792969 14.09375 C 170.875 14.1875 170.96875 14.292969 170.976562 14.304688 C 171.140625 14.484375 171.332031 14.664062 171.542969 14.832031 C 171.757812 15.003906 172.003906 15.183594 172.273438 15.359375 C 173.171875 15.953125 175.382812 17.226562 175.890625 17.472656 C 174.707031 18.25 172.792969 19.386719 171.730469 20.332031 C 171.238281 20.769531 170.785156 21.316406 170.308594 21.894531 C 168.882812 23.617188 167.253906 25.585938 163.554688 26.175781 C 163.46875 26.757812 163.3125 27.296875 163.089844 27.789062 C 162.824219 28.386719 162.472656 28.917969 162.046875 29.386719 C 159.929688 31.738281 156.042969 32.582031 152.691406 32.671875 L 23.238281 32.671875 C 22.597656 32.652344 21.933594 32.609375 21.261719 32.53125 C 20.597656 32.453125 19.925781 32.339844 19.261719 32.1875 C 15.898438 31.421875 12.890625 29.648438 12.378906 26.175781 C 8.679688 25.582031 7.054688 23.617188 5.625 21.894531 C 5.148438 21.316406 4.695312 20.769531 4.203125 20.332031 C 4.160156 20.292969 4.117188 20.257812 4.082031 20.222656 C 2.953125 19.246094 1.570312 18.300781 0.316406 17.472656 Z M 0.316406 17.472656 " fill-opacity="1" fill-rule="nonzero"/></g><g clip-path="url(#401decdfa2)"><path fill="#2c473e" d="M 3.164062 17.503906 C 3.835938 17.988281 4.492188 18.492188 5.113281 19.03125 C 5.160156 19.070312 5.207031 19.109375 5.25 19.152344 C 5.839844 19.671875 6.34375 20.285156 6.84375 20.886719 C 7.535156 21.722656 8.21875 22.539062 9.09375 23.195312 C 10.152344 23.984375 11.328125 24.40625 12.628906 24.617188 L 13.769531 24.796875 L 13.941406 25.945312 C 14.359375 28.800781 17.074219 30.070312 19.613281 30.648438 C 20.21875 30.789062 20.832031 30.890625 21.445312 30.960938 C 22.050781 31.03125 22.65625 31.074219 23.261719 31.09375 L 152.671875 31.09375 C 155.335938 31.019531 159.019531 30.386719 160.878906 28.328125 C 161.195312 27.976562 161.457031 27.582031 161.648438 27.148438 C 161.820312 26.761719 161.933594 26.359375 161.996094 25.941406 L 162.164062 24.796875 L 163.308594 24.617188 C 164.605469 24.40625 165.78125 23.984375 166.839844 23.191406 C 167.71875 22.539062 168.398438 21.722656 169.09375 20.886719 C 169.59375 20.28125 170.09375 19.671875 170.683594 19.152344 C 171.339844 18.566406 172.101562 18.042969 172.839844 17.558594 C 172.355469 17.273438 171.871094 16.984375 171.402344 16.675781 C 171.269531 16.585938 171.132812 16.496094 171 16.398438 L 170.757812 16.210938 C 170.757812 16.210938 170.03125 15.621094 169.910156 15.480469 L 169.789062 15.347656 C 169.707031 15.25 169.625 15.15625 169.542969 15.0625 C 169.523438 15.042969 169.503906 15.019531 169.488281 15 C 169.484375 14.992188 169.476562 14.988281 169.472656 14.980469 C 169.46875 14.980469 169.464844 14.976562 169.464844 14.972656 C 169.457031 14.964844 169.453125 14.960938 169.449219 14.953125 C 169.441406 14.945312 169.429688 14.933594 169.421875 14.921875 C 169.414062 14.910156 169.402344 14.898438 169.394531 14.886719 C 168.996094 14.414062 168.621094 13.925781 168.246094 13.433594 C 166.851562 11.617188 165.71875 10.097656 163.324219 9.660156 L 162.0625 9.429688 L 162.03125 8.148438 C 161.976562 6.109375 160.363281 4.675781 158.707031 3.738281 C 158.441406 3.589844 158.167969 3.449219 157.890625 3.316406 C 156.316406 2.574219 154.253906 1.980469 152.503906 1.902344 C 152.496094 1.902344 152.492188 1.902344 152.484375 1.902344 L 23.449219 1.902344 C 23.445312 1.902344 23.4375 1.902344 23.429688 1.902344 C 21.683594 1.980469 19.617188 2.574219 18.042969 3.316406 C 17.765625 3.449219 17.492188 3.589844 17.226562 3.738281 C 15.570312 4.675781 13.960938 6.109375 13.90625 8.148438 L 13.871094 9.429688 L 12.609375 9.660156 C 10.214844 10.09375 9.085938 11.617188 7.691406 13.433594 C 7.1875 14.089844 6.683594 14.738281 6.132812 15.355469 C 5.714844 15.828125 5.230469 16.226562 4.710938 16.585938 C 4.210938 16.925781 3.6875 17.214844 3.164062 17.503906 Z M 3.164062 17.503906 " fill-opacity="1" fill-rule="evenodd"/></g><g fill="#ffffff" fill-opacity="1"><g transform="translate(57.197436, 22.011488)"><g><path d="M 14.390625 0.203125 L 10.5625 -9.296875 L 7.078125 0.203125 L 6.484375 0.203125 L 1.59375 -11.984375 C 1.53125 -12.140625 1.460938 -12.242188 1.390625 -12.296875 C 1.328125 -12.359375 1.222656 -12.398438 1.078125 -12.421875 L 0.40625 -12.5 L 0.40625 -12.859375 L 6.4375 -12.859375 L 6.4375 -12.5 L 5.71875 -12.421875 C 5.539062 -12.398438 5.453125 -12.300781 5.453125 -12.125 C 5.453125 -12.09375 5.46875 -12.023438 5.5 -11.921875 L 8.28125 -4.65625 L 10.25 -10.09375 L 9.5 -11.984375 C 9.4375 -12.140625 9.367188 -12.242188 9.296875 -12.296875 C 9.234375 -12.359375 9.128906 -12.398438 8.984375 -12.421875 L 8.34375 -12.5 L 8.34375 -12.859375 L 14.375 -12.859375 L 14.375 -12.5 L 13.609375 -12.421875 C 13.441406 -12.398438 13.359375 -12.300781 13.359375 -12.125 C 13.359375 -12.09375 13.367188 -12.023438 13.390625 -11.921875 L 16.1875 -4.65625 L 18.859375 -12 C 18.890625 -12.09375 18.90625 -12.160156 18.90625 -12.203125 C 18.90625 -12.335938 18.8125 -12.410156 18.625 -12.421875 L 17.859375 -12.5 L 17.859375 -12.859375 L 20.65625 -12.859375 L 20.65625 -12.5 L 19.96875 -12.421875 C 19.820312 -12.410156 19.71875 -12.375 19.65625 -12.3125 C 19.59375 -12.25 19.523438 -12.140625 19.453125 -11.984375 L 14.96875 0.203125 Z M 14.390625 0.203125 "/></g></g></g><g fill="#ffffff" fill-opacity="1"><g transform="translate(79.235008, 22.011488)"><g><path d="M 1.15625 -0.515625 C 1.34375 -0.546875 1.460938 -0.585938 1.515625 -0.640625 C 1.566406 -0.691406 1.59375 -0.785156 1.59375 -0.921875 L 1.59375 -11.9375 C 1.59375 -12.070312 1.566406 -12.164062 1.515625 -12.21875 C 1.460938 -12.269531 1.34375 -12.3125 1.15625 -12.34375 L 0.484375 -12.5 L 0.484375 -12.859375 L 11.796875 -12.859375 L 11.796875 -9.28125 L 11.34375 -9.28125 C 11.082031 -10.070312 10.835938 -10.671875 10.609375 -11.078125 C 10.378906 -11.484375 10.0625 -11.789062 9.65625 -12 C 9.257812 -12.207031 8.691406 -12.3125 7.953125 -12.3125 L 5.34375 -12.3125 L 5.34375 -6.859375 L 10.09375 -6.859375 L 10.09375 -6.296875 L 5.34375 -6.296875 L 5.34375 -0.546875 L 8.140625 -0.546875 C 8.859375 -0.546875 9.425781 -0.65625 9.84375 -0.875 C 10.257812 -1.101562 10.585938 -1.425781 10.828125 -1.84375 C 11.066406 -2.257812 11.316406 -2.863281 11.578125 -3.65625 L 12.046875 -3.65625 L 12.046875 0 L 0.484375 0 L 0.484375 -0.375 Z M 1.15625 -0.515625 "/></g></g></g><g fill="#ffffff" fill-opacity="1"><g transform="translate(93.449478, 22.011488)"><g><path d="M 1.59375 -11.9375 C 1.59375 -12.070312 1.566406 -12.164062 1.515625 -12.21875 C 1.460938 -12.269531 1.34375 -12.3125 1.15625 -12.34375 L 0.484375 -12.5 L 0.484375 -12.859375 L 6.578125 -12.859375 L 6.578125 -12.5 L 5.78125 -12.328125 C 5.601562 -12.296875 5.484375 -12.253906 5.421875 -12.203125 C 5.367188 -12.148438 5.34375 -12.054688 5.34375 -11.921875 L 5.34375 -0.546875 L 7.65625 -0.546875 C 8.382812 -0.546875 8.945312 -0.65625 9.34375 -0.875 C 9.75 -1.101562 10.066406 -1.414062 10.296875 -1.8125 C 10.523438 -2.21875 10.78125 -2.832031 11.0625 -3.65625 L 11.578125 -3.65625 L 11.578125 0 L 0.484375 0 L 0.484375 -0.375 L 1.15625 -0.515625 C 1.34375 -0.546875 1.460938 -0.585938 1.515625 -0.640625 C 1.566406 -0.691406 1.59375 -0.785156 1.59375 -0.921875 Z M 1.59375 -11.9375 "/></g></g></g><g fill="#ffffff" fill-opacity="1"><g transform="translate(106.709006, 22.011488)"><g><path d="M 1.59375 -11.9375 C 1.59375 -12.070312 1.566406 -12.164062 1.515625 -12.21875 C 1.460938 -12.269531 1.34375 -12.3125 1.15625 -12.34375 L 0.484375 -12.5 L 0.484375 -12.859375 L 6.578125 -12.859375 L 6.578125 -12.5 L 5.78125 -12.328125 C 5.601562 -12.296875 5.484375 -12.253906 5.421875 -12.203125 C 5.367188 -12.148438 5.34375 -12.054688 5.34375 -11.921875 L 5.34375 -0.546875 L 7.65625 -0.546875 C 8.382812 -0.546875 8.945312 -0.65625 9.34375 -0.875 C 9.75 -1.101562 10.066406 -1.414062 10.296875 -1.8125 C 10.523438 -2.21875 10.78125 -2.832031 11.0625 -3.65625 L 11.578125 -3.65625 L 11.578125 0 L 0.484375 0 L 0.484375 -0.375 L 1.15625 -0.515625 C 1.34375 -0.546875 1.460938 -0.585938 1.515625 -0.640625 C 1.566406 -0.691406 1.59375 -0.785156 1.59375 -0.921875 Z M 1.59375 -11.9375 "/></g></g></g></g></g><g transform="matrix(1, 0, 0, 1, 12, 223)"><g clip-path="url(#a572493c57)"><g fill="#000000" fill-opacity="0.2392"><g transform="translate(2.223592, 68.393427)"><g><path d="M 0.515625 -35.9375 L 30.390625 -35.9375 L 30.390625 -25.671875 L 29.875 -25.671875 C 29.875 -29.160156 29.0625 -31.644531 27.4375 -33.125 C 25.8125 -34.613281 23.269531 -35.378906 19.8125 -35.421875 L 19.8125 -3.390625 C 19.8125 -2.160156 19.988281 -1.375 20.34375 -1.03125 C 20.707031 -0.6875 21.503906 -0.515625 22.734375 -0.515625 L 22.734375 0 L 8.21875 0 L 8.21875 -0.515625 C 9.445312 -0.515625 10.234375 -0.6875 10.578125 -1.03125 C 10.921875 -1.375 11.09375 -2.160156 11.09375 -3.390625 L 11.09375 -35.421875 C 7.664062 -35.378906 5.128906 -34.601562 3.484375 -33.09375 C 1.847656 -31.59375 1.03125 -29.117188 1.03125 -25.671875 L 0.515625 -25.671875 Z M 0.515625 -35.9375 "/></g></g></g><g fill="#000000" fill-opacity="0.2392"><g transform="translate(29.93711, 68.393427)"><g><path d="M 0.828125 -35.9375 L 15.296875 -35.9375 L 15.296875 -35.421875 C 14.066406 -35.421875 13.28125 -35.25 12.9375 -34.90625 C 12.59375 -34.5625 12.421875 -33.773438 12.421875 -32.546875 L 12.421875 -18.265625 L 26.171875 -18.265625 L 26.171875 -32.546875 C 26.171875 -33.773438 26 -34.5625 25.65625 -34.90625 C 25.320312 -35.25 24.535156 -35.421875 23.296875 -35.421875 L 23.296875 -35.9375 L 37.78125 -35.9375 L 37.78125 -35.421875 C 36.550781 -35.421875 35.765625 -35.25 35.421875 -34.90625 C 35.078125 -34.5625 34.90625 -33.773438 34.90625 -32.546875 L 34.90625 -3.390625 C 34.90625 -2.160156 35.078125 -1.375 35.421875 -1.03125 C 35.765625 -0.6875 36.550781 -0.515625 37.78125 -0.515625 L 37.78125 0 L 23.296875 0 L 23.296875 -0.515625 C 24.535156 -0.515625 25.320312 -0.6875 25.65625 -1.03125 C 26 -1.375 26.171875 -2.160156 26.171875 -3.390625 L 26.171875 -17.703125 L 12.421875 -17.703125 L 12.421875 -3.390625 C 12.421875 -2.160156 12.59375 -1.375 12.9375 -1.03125 C 13.28125 -0.6875 14.066406 -0.515625 15.296875 -0.515625 L 15.296875 0 L 0.828125 0 L 0.828125 -0.515625 C 2.054688 -0.515625 2.84375 -0.6875 3.1875 -1.03125 C 3.53125 -1.375 3.703125 -2.160156 3.703125 -3.390625 L 3.703125 -32.546875 C 3.703125 -33.773438 3.53125 -34.5625 3.1875 -34.90625 C 2.84375 -35.25 2.054688 -35.421875 0.828125 -35.421875 Z M 0.828125 -35.9375 "/></g></g></g><g fill="#000000" fill-opacity="0.2392"><g transform="translate(65.349058, 68.393427)"><g><path d="M 8.3125 -35.9375 L 22.640625 -35.9375 L 31.671875 -4.921875 C 32.179688 -3.148438 32.71875 -1.972656 33.28125 -1.390625 C 33.851562 -0.804688 34.769531 -0.515625 36.03125 -0.515625 L 36.03125 0 L 18.015625 0 L 18.015625 -0.515625 C 19.585938 -0.515625 20.738281 -0.753906 21.46875 -1.234375 C 22.207031 -1.710938 22.578125 -2.582031 22.578125 -3.84375 C 22.578125 -4.800781 22.375 -6.019531 21.96875 -7.5 L 20.484375 -12.53125 L 7.640625 -12.53125 L 6.515625 -8.984375 C 5.972656 -7.035156 5.703125 -5.460938 5.703125 -4.265625 C 5.703125 -2.828125 6.09375 -1.84375 6.875 -1.3125 C 7.664062 -0.78125 8.898438 -0.515625 10.578125 -0.515625 L 10.578125 0 L 0.515625 0 L 0.515625 -0.515625 C 1.296875 -0.515625 1.960938 -0.703125 2.515625 -1.078125 C 3.066406 -1.453125 3.582031 -2.109375 4.0625 -3.046875 C 4.539062 -3.992188 5.050781 -5.335938 5.59375 -7.078125 L 13.34375 -33.984375 C 12.800781 -34.523438 12.125 -34.898438 11.3125 -35.109375 C 10.507812 -35.316406 9.507812 -35.421875 8.3125 -35.421875 Z M 20.28125 -13.140625 L 15.09375 -30.6875 C 14.71875 -31.925781 14.269531 -32.882812 13.75 -33.5625 L 9.546875 -18.84375 C 9.335938 -18.082031 9.234375 -17.378906 9.234375 -16.734375 C 9.234375 -14.335938 10.828125 -13.140625 14.015625 -13.140625 Z M 20.28125 -13.140625 "/></g></g></g><g fill="#000000" fill-opacity="0.2392"><g transform="translate(98.605452, 68.393427)"><g><path d="M 0.828125 -35.9375 L 15.296875 -35.9375 L 15.296875 -35.421875 C 14.066406 -35.421875 13.28125 -35.25 12.9375 -34.90625 C 12.59375 -34.5625 12.421875 -33.773438 12.421875 -32.546875 L 12.421875 -3.390625 C 12.421875 -2.160156 12.59375 -1.375 12.9375 -1.03125 C 13.28125 -0.6875 14.066406 -0.515625 15.296875 -0.515625 L 15.296875 0 L 0.828125 0 L 0.828125 -0.515625 C 2.054688 -0.515625 2.84375 -0.6875 3.1875 -1.03125 C 3.53125 -1.375 3.703125 -2.160156 3.703125 -3.390625 L 3.703125 -32.546875 C 3.703125 -33.773438 3.53125 -34.5625 3.1875 -34.90625 C 2.84375 -35.25 2.054688 -35.421875 0.828125 -35.421875 Z M 0.828125 -35.9375 "/></g></g></g><g fill="#000000" fill-opacity="0.2392"><g transform="translate(111.537992, 68.393427)"><g/></g></g><g fill="#000000" fill-opacity="0.2392"><g transform="translate(123.042704, 68.393427)"><g><path d="M 1.28125 -35.9375 L 10.15625 -35.9375 L 22.484375 -6.5625 L 34.640625 -35.9375 L 42.90625 -35.9375 L 42.90625 -35.421875 C 41.914062 -35.421875 41.179688 -35.34375 40.703125 -35.1875 C 40.222656 -35.03125 39.90625 -34.710938 39.75 -34.234375 C 39.59375 -33.753906 39.515625 -33.019531 39.515625 -32.03125 L 39.515625 -3.796875 C 39.515625 -2.835938 39.59375 -2.125 39.75 -1.65625 C 39.90625 -1.195312 40.222656 -0.890625 40.703125 -0.734375 C 41.179688 -0.585938 41.914062 -0.515625 42.90625 -0.515625 L 42.90625 0 L 31.3125 0 L 31.3125 -0.515625 C 32.300781 -0.515625 33.035156 -0.585938 33.515625 -0.734375 C 33.992188 -0.890625 34.3125 -1.195312 34.46875 -1.65625 C 34.625 -2.125 34.703125 -2.835938 34.703125 -3.796875 L 34.703125 -34.546875 L 20.375 0.515625 L 19.859375 0.515625 L 6.875 -31.359375 C 6.394531 -32.453125 5.914062 -33.289062 5.4375 -33.875 L 5.4375 -4 C 5.4375 -2.976562 5.515625 -2.21875 5.671875 -1.71875 C 5.828125 -1.21875 6.160156 -0.890625 6.671875 -0.734375 C 7.179688 -0.585938 7.96875 -0.515625 9.03125 -0.515625 L 9.03125 0 L 1.328125 0 L 1.328125 -0.515625 C 2.390625 -0.515625 3.175781 -0.585938 3.6875 -0.734375 C 4.207031 -0.890625 4.539062 -1.21875 4.6875 -1.71875 C 4.84375 -2.21875 4.921875 -2.976562 4.921875 -4 L 4.921875 -34.390625 C 4.484375 -34.765625 3.972656 -35.03125 3.390625 -35.1875 C 2.804688 -35.34375 2.101562 -35.421875 1.28125 -35.421875 Z M 1.28125 -35.9375 "/></g></g></g><g fill="#000000" fill-opacity="0.2392"><g transform="translate(163.894868, 68.393427)"><g><path d="M 9.859375 -35.9375 L 19.859375 -35.9375 L 29.25 -5.03125 C 29.632812 -3.757812 30.019531 -2.800781 30.40625 -2.15625 C 30.800781 -1.507812 31.296875 -1.070312 31.890625 -0.84375 C 32.492188 -0.625 33.289062 -0.515625 34.28125 -0.515625 L 34.28125 0 L 19.859375 0 L 19.859375 -0.515625 C 21.503906 -0.515625 22.691406 -0.6875 23.421875 -1.03125 C 24.160156 -1.375 24.53125 -2.054688 24.53125 -3.078125 C 24.53125 -3.867188 24.328125 -4.945312 23.921875 -6.3125 L 22.015625 -12.53125 L 8.3125 -12.53125 L 6.5625 -7.078125 C 6.050781 -5.441406 5.796875 -4.175781 5.796875 -3.28125 C 5.796875 -2.1875 6.179688 -1.453125 6.953125 -1.078125 C 7.722656 -0.703125 8.960938 -0.515625 10.671875 -0.515625 L 10.671875 0 L 0.515625 0 L 0.515625 -0.515625 C 1.503906 -0.515625 2.289062 -0.660156 2.875 -0.953125 C 3.457031 -1.242188 3.96875 -1.789062 4.40625 -2.59375 C 4.851562 -3.394531 5.332031 -4.566406 5.84375 -6.109375 L 14.421875 -34.34375 C 13.941406 -34.75 13.34375 -35.03125 12.625 -35.1875 C 11.90625 -35.34375 10.984375 -35.421875 9.859375 -35.421875 Z M 21.8125 -13.140625 L 16.265625 -31 C 15.859375 -32.332031 15.378906 -33.328125 14.828125 -33.984375 L 10.0625 -18.0625 C 9.789062 -17.144531 9.65625 -16.410156 9.65625 -15.859375 C 9.65625 -14.046875 10.988281 -13.140625 13.65625 -13.140625 Z M 21.8125 -13.140625 "/></g></g></g><g fill="#000000" fill-opacity="0.2392"><g transform="translate(195.303636, 68.393427)"><g><path d="M 17.25 -36.4375 C 19.269531 -36.4375 21.097656 -36.171875 22.734375 -35.640625 C 24.378906 -35.117188 25.6875 -34.332031 26.65625 -33.28125 C 27.632812 -32.238281 28.125 -30.929688 28.125 -29.359375 C 28.125 -28.503906 27.859375 -27.816406 27.328125 -27.296875 C 26.796875 -26.785156 26.101562 -26.53125 25.25 -26.53125 C 24.394531 -26.53125 23.71875 -26.785156 23.21875 -27.296875 C 22.726562 -27.816406 22.484375 -28.503906 22.484375 -29.359375 C 22.484375 -30.148438 22.726562 -30.828125 23.21875 -31.390625 C 23.71875 -31.953125 24.394531 -32.234375 25.25 -32.234375 C 26.144531 -32.234375 26.847656 -31.835938 27.359375 -31.046875 C 26.847656 -32.691406 25.664062 -33.914062 23.8125 -34.71875 C 21.96875 -35.53125 19.78125 -35.9375 17.25 -35.9375 C 14.238281 -35.9375 11.925781 -35.410156 10.3125 -34.359375 C 8.707031 -33.316406 7.90625 -31.566406 7.90625 -29.109375 C 7.90625 -26.910156 8.695312 -25.1875 10.28125 -23.9375 C 11.875 -22.695312 14.210938 -21.492188 17.296875 -20.328125 C 20.484375 -19.054688 22.929688 -17.875 24.640625 -16.78125 C 26.347656 -15.6875 27.535156 -14.503906 28.203125 -13.234375 C 28.867188 -11.972656 29.203125 -10.453125 29.203125 -8.671875 C 29.203125 -7.203125 28.925781 -5.875 28.375 -4.6875 C 27.832031 -3.507812 26.929688 -2.53125 25.671875 -1.75 C 23.273438 -0.238281 19.613281 0.515625 14.6875 0.515625 C 12.351562 0.515625 10.28125 0.21875 8.46875 -0.375 C 6.65625 -0.976562 5.234375 -1.878906 4.203125 -3.078125 C 3.179688 -4.273438 2.671875 -5.78125 2.671875 -7.59375 C 2.671875 -8.445312 2.914062 -9.125 3.40625 -9.625 C 3.90625 -10.125 4.582031 -10.375 5.4375 -10.375 C 6.15625 -10.375 6.8125 -10.15625 7.40625 -9.71875 C 8.007812 -9.289062 8.3125 -8.582031 8.3125 -7.59375 C 8.3125 -6.632812 8.007812 -5.914062 7.40625 -5.4375 C 6.8125 -4.957031 6.15625 -4.71875 5.4375 -4.71875 C 4.476562 -4.71875 3.78125 -5.0625 3.34375 -5.75 C 3.851562 -3.800781 5.113281 -2.351562 7.125 -1.40625 C 9.144531 -0.46875 11.664062 0 14.6875 0 C 18.175781 0 20.738281 -0.625 22.375 -1.875 C 24.019531 -3.125 24.84375 -4.828125 24.84375 -6.984375 C 24.84375 -8.285156 24.582031 -9.40625 24.0625 -10.34375 C 23.550781 -11.28125 22.628906 -12.148438 21.296875 -12.953125 C 19.960938 -13.765625 18.046875 -14.628906 15.546875 -15.546875 C 12.710938 -16.679688 10.410156 -17.796875 8.640625 -18.890625 C 6.878906 -19.984375 5.585938 -21.207031 4.765625 -22.5625 C 3.953125 -23.914062 3.546875 -25.546875 3.546875 -27.453125 C 3.546875 -28.960938 3.789062 -30.273438 4.28125 -31.390625 C 4.78125 -32.503906 5.578125 -33.4375 6.671875 -34.1875 C 7.796875 -35.007812 9.238281 -35.585938 11 -35.921875 C 12.769531 -36.265625 14.851562 -36.4375 17.25 -36.4375 Z M 17.25 -36.4375 "/></g></g></g><g fill="#000000" fill-opacity="0.2392"><g transform="translate(223.838319, 68.393427)"><g><path d="M 17.25 -36.4375 C 19.269531 -36.4375 21.097656 -36.171875 22.734375 -35.640625 C 24.378906 -35.117188 25.6875 -34.332031 26.65625 -33.28125 C 27.632812 -32.238281 28.125 -30.929688 28.125 -29.359375 C 28.125 -28.503906 27.859375 -27.816406 27.328125 -27.296875 C 26.796875 -26.785156 26.101562 -26.53125 25.25 -26.53125 C 24.394531 -26.53125 23.71875 -26.785156 23.21875 -27.296875 C 22.726562 -27.816406 22.484375 -28.503906 22.484375 -29.359375 C 22.484375 -30.148438 22.726562 -30.828125 23.21875 -31.390625 C 23.71875 -31.953125 24.394531 -32.234375 25.25 -32.234375 C 26.144531 -32.234375 26.847656 -31.835938 27.359375 -31.046875 C 26.847656 -32.691406 25.664062 -33.914062 23.8125 -34.71875 C 21.96875 -35.53125 19.78125 -35.9375 17.25 -35.9375 C 14.238281 -35.9375 11.925781 -35.410156 10.3125 -34.359375 C 8.707031 -33.316406 7.90625 -31.566406 7.90625 -29.109375 C 7.90625 -26.910156 8.695312 -25.1875 10.28125 -23.9375 C 11.875 -22.695312 14.210938 -21.492188 17.296875 -20.328125 C 20.484375 -19.054688 22.929688 -17.875 24.640625 -16.78125 C 26.347656 -15.6875 27.535156 -14.503906 28.203125 -13.234375 C 28.867188 -11.972656 29.203125 -10.453125 29.203125 -8.671875 C 29.203125 -7.203125 28.925781 -5.875 28.375 -4.6875 C 27.832031 -3.507812 26.929688 -2.53125 25.671875 -1.75 C 23.273438 -0.238281 19.613281 0.515625 14.6875 0.515625 C 12.351562 0.515625 10.28125 0.21875 8.46875 -0.375 C 6.65625 -0.976562 5.234375 -1.878906 4.203125 -3.078125 C 3.179688 -4.273438 2.671875 -5.78125 2.671875 -7.59375 C 2.671875 -8.445312 2.914062 -9.125 3.40625 -9.625 C 3.90625 -10.125 4.582031 -10.375 5.4375 -10.375 C 6.15625 -10.375 6.8125 -10.15625 7.40625 -9.71875 C 8.007812 -9.289062 8.3125 -8.582031 8.3125 -7.59375 C 8.3125 -6.632812 8.007812 -5.914062 7.40625 -5.4375 C 6.8125 -4.957031 6.15625 -4.71875 5.4375 -4.71875 C 4.476562 -4.71875 3.78125 -5.0625 3.34375 -5.75 C 3.851562 -3.800781 5.113281 -2.351562 7.125 -1.40625 C 9.144531 -0.46875 11.664062 0 14.6875 0 C 18.175781 0 20.738281 -0.625 22.375 -1.875 C 24.019531 -3.125 24.84375 -4.828125 24.84375 -6.984375 C 24.84375 -8.285156 24.582031 -9.40625 24.0625 -10.34375 C 23.550781 -11.28125 22.628906 -12.148438 21.296875 -12.953125 C 19.960938 -13.765625 18.046875 -14.628906 15.546875 -15.546875 C 12.710938 -16.679688 10.410156 -17.796875 8.640625 -18.890625 C 6.878906 -19.984375 5.585938 -21.207031 4.765625 -22.5625 C 3.953125 -23.914062 3.546875 -25.546875 3.546875 -27.453125 C 3.546875 -28.960938 3.789062 -30.273438 4.28125 -31.390625 C 4.78125 -32.503906 5.578125 -33.4375 6.671875 -34.1875 C 7.796875 -35.007812 9.238281 -35.585938 11 -35.921875 C 12.769531 -36.265625 14.851562 -36.4375 17.25 -36.4375 Z M 17.25 -36.4375 "/></g></g></g><g fill="#000000" fill-opacity="0.2392"><g transform="translate(252.373002, 68.393427)"><g><path d="M 9.859375 -35.9375 L 19.859375 -35.9375 L 29.25 -5.03125 C 29.632812 -3.757812 30.019531 -2.800781 30.40625 -2.15625 C 30.800781 -1.507812 31.296875 -1.070312 31.890625 -0.84375 C 32.492188 -0.625 33.289062 -0.515625 34.28125 -0.515625 L 34.28125 0 L 19.859375 0 L 19.859375 -0.515625 C 21.503906 -0.515625 22.691406 -0.6875 23.421875 -1.03125 C 24.160156 -1.375 24.53125 -2.054688 24.53125 -3.078125 C 24.53125 -3.867188 24.328125 -4.945312 23.921875 -6.3125 L 22.015625 -12.53125 L 8.3125 -12.53125 L 6.5625 -7.078125 C 6.050781 -5.441406 5.796875 -4.175781 5.796875 -3.28125 C 5.796875 -2.1875 6.179688 -1.453125 6.953125 -1.078125 C 7.722656 -0.703125 8.960938 -0.515625 10.671875 -0.515625 L 10.671875 0 L 0.515625 0 L 0.515625 -0.515625 C 1.503906 -0.515625 2.289062 -0.660156 2.875 -0.953125 C 3.457031 -1.242188 3.96875 -1.789062 4.40625 -2.59375 C 4.851562 -3.394531 5.332031 -4.566406 5.84375 -6.109375 L 14.421875 -34.34375 C 13.941406 -34.75 13.34375 -35.03125 12.625 -35.1875 C 11.90625 -35.34375 10.984375 -35.421875 9.859375 -35.421875 Z M 21.8125 -13.140625 L 16.265625 -31 C 15.859375 -32.332031 15.378906 -33.328125 14.828125 -33.984375 L 10.0625 -18.0625 C 9.789062 -17.144531 9.65625 -16.410156 9.65625 -15.859375 C 9.65625 -14.046875 10.988281 -13.140625 13.65625 -13.140625 Z M 21.8125 -13.140625 "/></g></g></g><g fill="#000000" fill-opacity="0.2392"><g transform="translate(283.78177, 68.393427)"><g><path d="M 2.671875 -17.96875 C 2.671875 -21.144531 3.082031 -23.9375 3.90625 -26.34375 C 4.726562 -28.757812 5.957031 -30.722656 7.59375 -32.234375 C 9.207031 -33.742188 11.140625 -34.820312 13.390625 -35.46875 C 15.648438 -36.113281 18.164062 -36.4375 20.9375 -36.4375 C 23.4375 -36.4375 25.566406 -36.066406 27.328125 -35.328125 C 29.085938 -34.597656 30.4375 -33.609375 31.375 -32.359375 C 32.320312 -31.109375 32.796875 -29.710938 32.796875 -28.171875 C 32.796875 -27.253906 32.503906 -26.503906 31.921875 -25.921875 C 31.335938 -25.335938 30.585938 -25.046875 29.671875 -25.046875 C 28.742188 -25.046875 27.988281 -25.335938 27.40625 -25.921875 C 26.820312 -26.503906 26.53125 -27.253906 26.53125 -28.171875 C 26.53125 -29.097656 26.820312 -29.851562 27.40625 -30.4375 C 27.988281 -31.019531 28.742188 -31.3125 29.671875 -31.3125 C 30.660156 -31.3125 31.410156 -30.914062 31.921875 -30.125 C 31.378906 -31.800781 30.175781 -33.1875 28.3125 -34.28125 C 26.445312 -35.382812 23.988281 -35.9375 20.9375 -35.9375 C 18.238281 -35.9375 15.878906 -35.316406 13.859375 -34.078125 C 11.835938 -32.847656 10.269531 -30.921875 9.15625 -28.296875 C 8.050781 -25.679688 7.5 -22.304688 7.5 -18.171875 C 7.5 -13.828125 8.019531 -10.316406 9.0625 -7.640625 C 10.101562 -4.972656 11.554688 -3.03125 13.421875 -1.8125 C 15.285156 -0.601562 17.453125 0 19.921875 0 C 21.734375 0 23.21875 -0.144531 24.375 -0.4375 C 25.539062 -0.726562 26.65625 -1.195312 27.71875 -1.84375 L 27.71875 -14.0625 C 27.71875 -15.050781 27.613281 -15.785156 27.40625 -16.265625 C 27.195312 -16.742188 26.734375 -17.0625 26.015625 -17.21875 C 25.304688 -17.375 24.160156 -17.453125 22.578125 -17.453125 L 22.578125 -17.96875 L 35.984375 -17.96875 L 35.984375 -17.453125 C 34.992188 -17.453125 34.257812 -17.375 33.78125 -17.21875 C 33.300781 -17.0625 32.988281 -16.742188 32.84375 -16.265625 C 32.707031 -15.785156 32.640625 -15.050781 32.640625 -14.0625 L 32.59375 0.25 L 32.078125 0.25 L 29.828125 -2.109375 C 28.523438 -1.253906 27.09375 -0.601562 25.53125 -0.15625 C 23.976562 0.289062 22.109375 0.515625 19.921875 0.515625 C 16.429688 0.515625 13.390625 -0.140625 10.796875 -1.453125 C 8.210938 -2.773438 6.210938 -4.804688 4.796875 -7.546875 C 3.378906 -10.285156 2.671875 -13.757812 2.671875 -17.96875 Z M 2.671875 -17.96875 "/></g></g></g><g fill="#000000" fill-opacity="0.2392"><g transform="translate(318.06461, 68.393427)"><g><path d="M 9.546875 -35.421875 L 9.546875 -18.265625 L 19.8125 -18.265625 C 21.5625 -18.265625 22.851562 -18.582031 23.6875 -19.21875 C 24.53125 -19.851562 24.953125 -21.195312 24.953125 -23.25 L 25.453125 -23.25 L 25.453125 -12.671875 L 24.953125 -12.671875 C 24.953125 -14.722656 24.53125 -16.066406 23.6875 -16.703125 C 22.851562 -17.335938 21.5625 -17.65625 19.8125 -17.65625 L 9.546875 -17.65625 L 9.546875 -0.515625 L 20.375 -0.515625 C 22.707031 -0.515625 24.546875 -0.726562 25.890625 -1.15625 C 27.242188 -1.582031 28.203125 -2.359375 28.765625 -3.484375 C 29.328125 -4.617188 29.609375 -6.226562 29.609375 -8.3125 L 30.125 -8.3125 L 30.125 0 L 1.328125 0 L 1.328125 -0.515625 C 2.328125 -0.515625 3.066406 -0.585938 3.546875 -0.734375 C 4.023438 -0.890625 4.332031 -1.207031 4.46875 -1.6875 C 4.601562 -2.164062 4.671875 -2.90625 4.671875 -3.90625 L 4.671875 -32.03125 C 4.671875 -33.019531 4.601562 -33.753906 4.46875 -34.234375 C 4.332031 -34.710938 4.023438 -35.03125 3.546875 -35.1875 C 3.066406 -35.34375 2.328125 -35.421875 1.328125 -35.421875 L 1.328125 -35.9375 L 30.125 -35.9375 L 30.125 -27.609375 L 29.609375 -27.609375 C 29.609375 -29.734375 29.328125 -31.351562 28.765625 -32.46875 C 28.203125 -33.582031 27.242188 -34.351562 25.890625 -34.78125 C 24.546875 -35.207031 22.707031 -35.421875 20.375 -35.421875 Z M 9.546875 -35.421875 "/></g></g></g><g fill="#ffffff" fill-opacity="1"><g transform="translate(1.242916, 67.377909)"><g><path d="M 0.515625 -35.9375 L 30.390625 -35.9375 L 30.390625 -25.671875 L 29.875 -25.671875 C 29.875 -29.160156 29.0625 -31.644531 27.4375 -33.125 C 25.8125 -34.613281 23.269531 -35.378906 19.8125 -35.421875 L 19.8125 -3.390625 C 19.8125 -2.160156 19.988281 -1.375 20.34375 -1.03125 C 20.707031 -0.6875 21.503906 -0.515625 22.734375 -0.515625 L 22.734375 0 L 8.21875 0 L 8.21875 -0.515625 C 9.445312 -0.515625 10.234375 -0.6875 10.578125 -1.03125 C 10.921875 -1.375 11.09375 -2.160156 11.09375 -3.390625 L 11.09375 -35.421875 C 7.664062 -35.378906 5.128906 -34.601562 3.484375 -33.09375 C 1.847656 -31.59375 1.03125 -29.117188 1.03125 -25.671875 L 0.515625 -25.671875 Z M 0.515625 -35.9375 "/></g></g></g><g fill="#ffffff" fill-opacity="1"><g transform="translate(28.956434, 67.377909)"><g><path d="M 0.828125 -35.9375 L 15.296875 -35.9375 L 15.296875 -35.421875 C 14.066406 -35.421875 13.28125 -35.25 12.9375 -34.90625 C 12.59375 -34.5625 12.421875 -33.773438 12.421875 -32.546875 L 12.421875 -18.265625 L 26.171875 -18.265625 L 26.171875 -32.546875 C 26.171875 -33.773438 26 -34.5625 25.65625 -34.90625 C 25.320312 -35.25 24.535156 -35.421875 23.296875 -35.421875 L 23.296875 -35.9375 L 37.78125 -35.9375 L 37.78125 -35.421875 C 36.550781 -35.421875 35.765625 -35.25 35.421875 -34.90625 C 35.078125 -34.5625 34.90625 -33.773438 34.90625 -32.546875 L 34.90625 -3.390625 C 34.90625 -2.160156 35.078125 -1.375 35.421875 -1.03125 C 35.765625 -0.6875 36.550781 -0.515625 37.78125 -0.515625 L 37.78125 0 L 23.296875 0 L 23.296875 -0.515625 C 24.535156 -0.515625 25.320312 -0.6875 25.65625 -1.03125 C 26 -1.375 26.171875 -2.160156 26.171875 -3.390625 L 26.171875 -17.703125 L 12.421875 -17.703125 L 12.421875 -3.390625 C 12.421875 -2.160156 12.59375 -1.375 12.9375 -1.03125 C 13.28125 -0.6875 14.066406 -0.515625 15.296875 -0.515625 L 15.296875 0 L 0.828125 0 L 0.828125 -0.515625 C 2.054688 -0.515625 2.84375 -0.6875 3.1875 -1.03125 C 3.53125 -1.375 3.703125 -2.160156 3.703125 -3.390625 L 3.703125 -32.546875 C 3.703125 -33.773438 3.53125 -34.5625 3.1875 -34.90625 C 2.84375 -35.25 2.054688 -35.421875 0.828125 -35.421875 Z M 0.828125 -35.9375 "/></g></g></g><g fill="#ffffff" fill-opacity="1"><g transform="translate(64.368382, 67.377909)"><g><path d="M 8.3125 -35.9375 L 22.640625 -35.9375 L 31.671875 -4.921875 C 32.179688 -3.148438 32.71875 -1.972656 33.28125 -1.390625 C 33.851562 -0.804688 34.769531 -0.515625 36.03125 -0.515625 L 36.03125 0 L 18.015625 0 L 18.015625 -0.515625 C 19.585938 -0.515625 20.738281 -0.753906 21.46875 -1.234375 C 22.207031 -1.710938 22.578125 -2.582031 22.578125 -3.84375 C 22.578125 -4.800781 22.375 -6.019531 21.96875 -7.5 L 20.484375 -12.53125 L 7.640625 -12.53125 L 6.515625 -8.984375 C 5.972656 -7.035156 5.703125 -5.460938 5.703125 -4.265625 C 5.703125 -2.828125 6.09375 -1.84375 6.875 -1.3125 C 7.664062 -0.78125 8.898438 -0.515625 10.578125 -0.515625 L 10.578125 0 L 0.515625 0 L 0.515625 -0.515625 C 1.296875 -0.515625 1.960938 -0.703125 2.515625 -1.078125 C 3.066406 -1.453125 3.582031 -2.109375 4.0625 -3.046875 C 4.539062 -3.992188 5.050781 -5.335938 5.59375 -7.078125 L 13.34375 -33.984375 C 12.800781 -34.523438 12.125 -34.898438 11.3125 -35.109375 C 10.507812 -35.316406 9.507812 -35.421875 8.3125 -35.421875 Z M 20.28125 -13.140625 L 15.09375 -30.6875 C 14.71875 -31.925781 14.269531 -32.882812 13.75 -33.5625 L 9.546875 -18.84375 C 9.335938 -18.082031 9.234375 -17.378906 9.234375 -16.734375 C 9.234375 -14.335938 10.828125 -13.140625 14.015625 -13.140625 Z M 20.28125 -13.140625 "/></g></g></g><g fill="#ffffff" fill-opacity="1"><g transform="translate(97.624776, 67.377909)"><g><path d="M 0.828125 -35.9375 L 15.296875 -35.9375 L 15.296875 -35.421875 C 14.066406 -35.421875 13.28125 -35.25 12.9375 -34.90625 C 12.59375 -34.5625 12.421875 -33.773438 12.421875 -32.546875 L 12.421875 -3.390625 C 12.421875 -2.160156 12.59375 -1.375 12.9375 -1.03125 C 13.28125 -0.6875 14.066406 -0.515625 15.296875 -0.515625 L 15.296875 0 L 0.828125 0 L 0.828125 -0.515625 C 2.054688 -0.515625 2.84375 -0.6875 3.1875 -1.03125 C 3.53125 -1.375 3.703125 -2.160156 3.703125 -3.390625 L 3.703125 -32.546875 C 3.703125 -33.773438 3.53125 -34.5625 3.1875 -34.90625 C 2.84375 -35.25 2.054688 -35.421875 0.828125 -35.421875 Z M 0.828125 -35.9375 "/></g></g></g><g fill="#ffffff" fill-opacity="1"><g transform="translate(110.557316, 67.377909)"><g/></g></g><g fill="#ffffff" fill-opacity="1"><g transform="translate(122.062028, 67.377909)"><g><path d="M 1.28125 -35.9375 L 10.15625 -35.9375 L 22.484375 -6.5625 L 34.640625 -35.9375 L 42.90625 -35.9375 L 42.90625 -35.421875 C 41.914062 -35.421875 41.179688 -35.34375 40.703125 -35.1875 C 40.222656 -35.03125 39.90625 -34.710938 39.75 -34.234375 C 39.59375 -33.753906 39.515625 -33.019531 39.515625 -32.03125 L 39.515625 -3.796875 C 39.515625 -2.835938 39.59375 -2.125 39.75 -1.65625 C 39.90625 -1.195312 40.222656 -0.890625 40.703125 -0.734375 C 41.179688 -0.585938 41.914062 -0.515625 42.90625 -0.515625 L 42.90625 0 L 31.3125 0 L 31.3125 -0.515625 C 32.300781 -0.515625 33.035156 -0.585938 33.515625 -0.734375 C 33.992188 -0.890625 34.3125 -1.195312 34.46875 -1.65625 C 34.625 -2.125 34.703125 -2.835938 34.703125 -3.796875 L 34.703125 -34.546875 L 20.375 0.515625 L 19.859375 0.515625 L 6.875 -31.359375 C 6.394531 -32.453125 5.914062 -33.289062 5.4375 -33.875 L 5.4375 -4 C 5.4375 -2.976562 5.515625 -2.21875 5.671875 -1.71875 C 5.828125 -1.21875 6.160156 -0.890625 6.671875 -0.734375 C 7.179688 -0.585938 7.96875 -0.515625 9.03125 -0.515625 L 9.03125 0 L 1.328125 0 L 1.328125 -0.515625 C 2.390625 -0.515625 3.175781 -0.585938 3.6875 -0.734375 C 4.207031 -0.890625 4.539062 -1.21875 4.6875 -1.71875 C 4.84375 -2.21875 4.921875 -2.976562 4.921875 -4 L 4.921875 -34.390625 C 4.484375 -34.765625 3.972656 -35.03125 3.390625 -35.1875 C 2.804688 -35.34375 2.101562 -35.421875 1.28125 -35.421875 Z M 1.28125 -35.9375 "/></g></g></g><g fill="#ffffff" fill-opacity="1"><g transform="translate(162.914192, 67.377909)"><g><path d="M 9.859375 -35.9375 L 19.859375 -35.9375 L 29.25 -5.03125 C 29.632812 -3.757812 30.019531 -2.800781 30.40625 -2.15625 C 30.800781 -1.507812 31.296875 -1.070312 31.890625 -0.84375 C 32.492188 -0.625 33.289062 -0.515625 34.28125 -0.515625 L 34.28125 0 L 19.859375 0 L 19.859375 -0.515625 C 21.503906 -0.515625 22.691406 -0.6875 23.421875 -1.03125 C 24.160156 -1.375 24.53125 -2.054688 24.53125 -3.078125 C 24.53125 -3.867188 24.328125 -4.945312 23.921875 -6.3125 L 22.015625 -12.53125 L 8.3125 -12.53125 L 6.5625 -7.078125 C 6.050781 -5.441406 5.796875 -4.175781 5.796875 -3.28125 C 5.796875 -2.1875 6.179688 -1.453125 6.953125 -1.078125 C 7.722656 -0.703125 8.960938 -0.515625 10.671875 -0.515625 L 10.671875 0 L 0.515625 0 L 0.515625 -0.515625 C 1.503906 -0.515625 2.289062 -0.660156 2.875 -0.953125 C 3.457031 -1.242188 3.96875 -1.789062 4.40625 -2.59375 C 4.851562 -3.394531 5.332031 -4.566406 5.84375 -6.109375 L 14.421875 -34.34375 C 13.941406 -34.75 13.34375 -35.03125 12.625 -35.1875 C 11.90625 -35.34375 10.984375 -35.421875 9.859375 -35.421875 Z M 21.8125 -13.140625 L 16.265625 -31 C 15.859375 -32.332031 15.378906 -33.328125 14.828125 -33.984375 L 10.0625 -18.0625 C 9.789062 -17.144531 9.65625 -16.410156 9.65625 -15.859375 C 9.65625 -14.046875 10.988281 -13.140625 13.65625 -13.140625 Z M 21.8125 -13.140625 "/></g></g></g><g fill="#ffffff" fill-opacity="1"><g transform="translate(194.32296, 67.377909)"><g><path d="M 17.25 -36.4375 C 19.269531 -36.4375 21.097656 -36.171875 22.734375 -35.640625 C 24.378906 -35.117188 25.6875 -34.332031 26.65625 -33.28125 C 27.632812 -32.238281 28.125 -30.929688 28.125 -29.359375 C 28.125 -28.503906 27.859375 -27.816406 27.328125 -27.296875 C 26.796875 -26.785156 26.101562 -26.53125 25.25 -26.53125 C 24.394531 -26.53125 23.71875 -26.785156 23.21875 -27.296875 C 22.726562 -27.816406 22.484375 -28.503906 22.484375 -29.359375 C 22.484375 -30.148438 22.726562 -30.828125 23.21875 -31.390625 C 23.71875 -31.953125 24.394531 -32.234375 25.25 -32.234375 C 26.144531 -32.234375 26.847656 -31.835938 27.359375 -31.046875 C 26.847656 -32.691406 25.664062 -33.914062 23.8125 -34.71875 C 21.96875 -35.53125 19.78125 -35.9375 17.25 -35.9375 C 14.238281 -35.9375 11.925781 -35.410156 10.3125 -34.359375 C 8.707031 -33.316406 7.90625 -31.566406 7.90625 -29.109375 C 7.90625 -26.910156 8.695312 -25.1875 10.28125 -23.9375 C 11.875 -22.695312 14.210938 -21.492188 17.296875 -20.328125 C 20.484375 -19.054688 22.929688 -17.875 24.640625 -16.78125 C 26.347656 -15.6875 27.535156 -14.503906 28.203125 -13.234375 C 28.867188 -11.972656 29.203125 -10.453125 29.203125 -8.671875 C 29.203125 -7.203125 28.925781 -5.875 28.375 -4.6875 C 27.832031 -3.507812 26.929688 -2.53125 25.671875 -1.75 C 23.273438 -0.238281 19.613281 0.515625 14.6875 0.515625 C 12.351562 0.515625 10.28125 0.21875 8.46875 -0.375 C 6.65625 -0.976562 5.234375 -1.878906 4.203125 -3.078125 C 3.179688 -4.273438 2.671875 -5.78125 2.671875 -7.59375 C 2.671875 -8.445312 2.914062 -9.125 3.40625 -9.625 C 3.90625 -10.125 4.582031 -10.375 5.4375 -10.375 C 6.15625 -10.375 6.8125 -10.15625 7.40625 -9.71875 C 8.007812 -9.289062 8.3125 -8.582031 8.3125 -7.59375 C 8.3125 -6.632812 8.007812 -5.914062 7.40625 -5.4375 C 6.8125 -4.957031 6.15625 -4.71875 5.4375 -4.71875 C 4.476562 -4.71875 3.78125 -5.0625 3.34375 -5.75 C 3.851562 -3.800781 5.113281 -2.351562 7.125 -1.40625 C 9.144531 -0.46875 11.664062 0 14.6875 0 C 18.175781 0 20.738281 -0.625 22.375 -1.875 C 24.019531 -3.125 24.84375 -4.828125 24.84375 -6.984375 C 24.84375 -8.285156 24.582031 -9.40625 24.0625 -10.34375 C 23.550781 -11.28125 22.628906 -12.148438 21.296875 -12.953125 C 19.960938 -13.765625 18.046875 -14.628906 15.546875 -15.546875 C 12.710938 -16.679688 10.410156 -17.796875 8.640625 -18.890625 C 6.878906 -19.984375 5.585938 -21.207031 4.765625 -22.5625 C 3.953125 -23.914062 3.546875 -25.546875 3.546875 -27.453125 C 3.546875 -28.960938 3.789062 -30.273438 4.28125 -31.390625 C 4.78125 -32.503906 5.578125 -33.4375 6.671875 -34.1875 C 7.796875 -35.007812 9.238281 -35.585938 11 -35.921875 C 12.769531 -36.265625 14.851562 -36.4375 17.25 -36.4375 Z M 17.25 -36.4375 "/></g></g></g><g fill="#ffffff" fill-opacity="1"><g transform="translate(222.857643, 67.377909)"><g><path d="M 17.25 -36.4375 C 19.269531 -36.4375 21.097656 -36.171875 22.734375 -35.640625 C 24.378906 -35.117188 25.6875 -34.332031 26.65625 -33.28125 C 27.632812 -32.238281 28.125 -30.929688 28.125 -29.359375 C 28.125 -28.503906 27.859375 -27.816406 27.328125 -27.296875 C 26.796875 -26.785156 26.101562 -26.53125 25.25 -26.53125 C 24.394531 -26.53125 23.71875 -26.785156 23.21875 -27.296875 C 22.726562 -27.816406 22.484375 -28.503906 22.484375 -29.359375 C 22.484375 -30.148438 22.726562 -30.828125 23.21875 -31.390625 C 23.71875 -31.953125 24.394531 -32.234375 25.25 -32.234375 C 26.144531 -32.234375 26.847656 -31.835938 27.359375 -31.046875 C 26.847656 -32.691406 25.664062 -33.914062 23.8125 -34.71875 C 21.96875 -35.53125 19.78125 -35.9375 17.25 -35.9375 C 14.238281 -35.9375 11.925781 -35.410156 10.3125 -34.359375 C 8.707031 -33.316406 7.90625 -31.566406 7.90625 -29.109375 C 7.90625 -26.910156 8.695312 -25.1875 10.28125 -23.9375 C 11.875 -22.695312 14.210938 -21.492188 17.296875 -20.328125 C 20.484375 -19.054688 22.929688 -17.875 24.640625 -16.78125 C 26.347656 -15.6875 27.535156 -14.503906 28.203125 -13.234375 C 28.867188 -11.972656 29.203125 -10.453125 29.203125 -8.671875 C 29.203125 -7.203125 28.925781 -5.875 28.375 -4.6875 C 27.832031 -3.507812 26.929688 -2.53125 25.671875 -1.75 C 23.273438 -0.238281 19.613281 0.515625 14.6875 0.515625 C 12.351562 0.515625 10.28125 0.21875 8.46875 -0.375 C 6.65625 -0.976562 5.234375 -1.878906 4.203125 -3.078125 C 3.179688 -4.273438 2.671875 -5.78125 2.671875 -7.59375 C 2.671875 -8.445312 2.914062 -9.125 3.40625 -9.625 C 3.90625 -10.125 4.582031 -10.375 5.4375 -10.375 C 6.15625 -10.375 6.8125 -10.15625 7.40625 -9.71875 C 8.007812 -9.289062 8.3125 -8.582031 8.3125 -7.59375 C 8.3125 -6.632812 8.007812 -5.914062 7.40625 -5.4375 C 6.8125 -4.957031 6.15625 -4.71875 5.4375 -4.71875 C 4.476562 -4.71875 3.78125 -5.0625 3.34375 -5.75 C 3.851562 -3.800781 5.113281 -2.351562 7.125 -1.40625 C 9.144531 -0.46875 11.664062 0 14.6875 0 C 18.175781 0 20.738281 -0.625 22.375 -1.875 C 24.019531 -3.125 24.84375 -4.828125 24.84375 -6.984375 C 24.84375 -8.285156 24.582031 -9.40625 24.0625 -10.34375 C 23.550781 -11.28125 22.628906 -12.148438 21.296875 -12.953125 C 19.960938 -13.765625 18.046875 -14.628906 15.546875 -15.546875 C 12.710938 -16.679688 10.410156 -17.796875 8.640625 -18.890625 C 6.878906 -19.984375 5.585938 -21.207031 4.765625 -22.5625 C 3.953125 -23.914062 3.546875 -25.546875 3.546875 -27.453125 C 3.546875 -28.960938 3.789062 -30.273438 4.28125 -31.390625 C 4.78125 -32.503906 5.578125 -33.4375 6.671875 -34.1875 C 7.796875 -35.007812 9.238281 -35.585938 11 -35.921875 C 12.769531 -36.265625 14.851562 -36.4375 17.25 -36.4375 Z M 17.25 -36.4375 "/></g></g></g><g fill="#ffffff" fill-opacity="1"><g transform="translate(251.392326, 67.377909)"><g><path d="M 9.859375 -35.9375 L 19.859375 -35.9375 L 29.25 -5.03125 C 29.632812 -3.757812 30.019531 -2.800781 30.40625 -2.15625 C 30.800781 -1.507812 31.296875 -1.070312 31.890625 -0.84375 C 32.492188 -0.625 33.289062 -0.515625 34.28125 -0.515625 L 34.28125 0 L 19.859375 0 L 19.859375 -0.515625 C 21.503906 -0.515625 22.691406 -0.6875 23.421875 -1.03125 C 24.160156 -1.375 24.53125 -2.054688 24.53125 -3.078125 C 24.53125 -3.867188 24.328125 -4.945312 23.921875 -6.3125 L 22.015625 -12.53125 L 8.3125 -12.53125 L 6.5625 -7.078125 C 6.050781 -5.441406 5.796875 -4.175781 5.796875 -3.28125 C 5.796875 -2.1875 6.179688 -1.453125 6.953125 -1.078125 C 7.722656 -0.703125 8.960938 -0.515625 10.671875 -0.515625 L 10.671875 0 L 0.515625 0 L 0.515625 -0.515625 C 1.503906 -0.515625 2.289062 -0.660156 2.875 -0.953125 C 3.457031 -1.242188 3.96875 -1.789062 4.40625 -2.59375 C 4.851562 -3.394531 5.332031 -4.566406 5.84375 -6.109375 L 14.421875 -34.34375 C 13.941406 -34.75 13.34375 -35.03125 12.625 -35.1875 C 11.90625 -35.34375 10.984375 -35.421875 9.859375 -35.421875 Z M 21.8125 -13.140625 L 16.265625 -31 C 15.859375 -32.332031 15.378906 -33.328125 14.828125 -33.984375 L 10.0625 -18.0625 C 9.789062 -17.144531 9.65625 -16.410156 9.65625 -15.859375 C 9.65625 -14.046875 10.988281 -13.140625 13.65625 -13.140625 Z M 21.8125 -13.140625 "/></g></g></g><g fill="#ffffff" fill-opacity="1"><g transform="translate(282.801094, 67.377909)"><g><path d="M 2.671875 -17.96875 C 2.671875 -21.144531 3.082031 -23.9375 3.90625 -26.34375 C 4.726562 -28.757812 5.957031 -30.722656 7.59375 -32.234375 C 9.207031 -33.742188 11.140625 -34.820312 13.390625 -35.46875 C 15.648438 -36.113281 18.164062 -36.4375 20.9375 -36.4375 C 23.4375 -36.4375 25.566406 -36.066406 27.328125 -35.328125 C 29.085938 -34.597656 30.4375 -33.609375 31.375 -32.359375 C 32.320312 -31.109375 32.796875 -29.710938 32.796875 -28.171875 C 32.796875 -27.253906 32.503906 -26.503906 31.921875 -25.921875 C 31.335938 -25.335938 30.585938 -25.046875 29.671875 -25.046875 C 28.742188 -25.046875 27.988281 -25.335938 27.40625 -25.921875 C 26.820312 -26.503906 26.53125 -27.253906 26.53125 -28.171875 C 26.53125 -29.097656 26.820312 -29.851562 27.40625 -30.4375 C 27.988281 -31.019531 28.742188 -31.3125 29.671875 -31.3125 C 30.660156 -31.3125 31.410156 -30.914062 31.921875 -30.125 C 31.378906 -31.800781 30.175781 -33.1875 28.3125 -34.28125 C 26.445312 -35.382812 23.988281 -35.9375 20.9375 -35.9375 C 18.238281 -35.9375 15.878906 -35.316406 13.859375 -34.078125 C 11.835938 -32.847656 10.269531 -30.921875 9.15625 -28.296875 C 8.050781 -25.679688 7.5 -22.304688 7.5 -18.171875 C 7.5 -13.828125 8.019531 -10.316406 9.0625 -7.640625 C 10.101562 -4.972656 11.554688 -3.03125 13.421875 -1.8125 C 15.285156 -0.601562 17.453125 0 19.921875 0 C 21.734375 0 23.21875 -0.144531 24.375 -0.4375 C 25.539062 -0.726562 26.65625 -1.195312 27.71875 -1.84375 L 27.71875 -14.0625 C 27.71875 -15.050781 27.613281 -15.785156 27.40625 -16.265625 C 27.195312 -16.742188 26.734375 -17.0625 26.015625 -17.21875 C 25.304688 -17.375 24.160156 -17.453125 22.578125 -17.453125 L 22.578125 -17.96875 L 35.984375 -17.96875 L 35.984375 -17.453125 C 34.992188 -17.453125 34.257812 -17.375 33.78125 -17.21875 C 33.300781 -17.0625 32.988281 -16.742188 32.84375 -16.265625 C 32.707031 -15.785156 32.640625 -15.050781 32.640625 -14.0625 L 32.59375 0.25 L 32.078125 0.25 L 29.828125 -2.109375 C 28.523438 -1.253906 27.09375 -0.601562 25.53125 -0.15625 C 23.976562 0.289062 22.109375 0.515625 19.921875 0.515625 C 16.429688 0.515625 13.390625 -0.140625 10.796875 -1.453125 C 8.210938 -2.773438 6.210938 -4.804688 4.796875 -7.546875 C 3.378906 -10.285156 2.671875 -13.757812 2.671875 -17.96875 Z M 2.671875 -17.96875 "/></g></g></g><g fill="#ffffff" fill-opacity="1"><g transform="translate(317.083934, 67.377909)"><g><path d="M 9.546875 -35.421875 L 9.546875 -18.265625 L 19.8125 -18.265625 C 21.5625 -18.265625 22.851562 -18.582031 23.6875 -19.21875 C 24.53125 -19.851562 24.953125 -21.195312 24.953125 -23.25 L 25.453125 -23.25 L 25.453125 -12.671875 L 24.953125 -12.671875 C 24.953125 -14.722656 24.53125 -16.066406 23.6875 -16.703125 C 22.851562 -17.335938 21.5625 -17.65625 19.8125 -17.65625 L 9.546875 -17.65625 L 9.546875 -0.515625 L 20.375 -0.515625 C 22.707031 -0.515625 24.546875 -0.726562 25.890625 -1.15625 C 27.242188 -1.582031 28.203125 -2.359375 28.765625 -3.484375 C 29.328125 -4.617188 29.609375 -6.226562 29.609375 -8.3125 L 30.125 -8.3125 L 30.125 0 L 1.328125 0 L 1.328125 -0.515625 C 2.328125 -0.515625 3.066406 -0.585938 3.546875 -0.734375 C 4.023438 -0.890625 4.332031 -1.207031 4.46875 -1.6875 C 4.601562 -2.164062 4.671875 -2.90625 4.671875 -3.90625 L 4.671875 -32.03125 C 4.671875 -33.019531 4.601562 -33.753906 4.46875 -34.234375 C 4.332031 -34.710938 4.023438 -35.03125 3.546875 -35.1875 C 3.066406 -35.34375 2.328125 -35.421875 1.328125 -35.421875 L 1.328125 -35.9375 L 30.125 -35.9375 L 30.125 -27.609375 L 29.609375 -27.609375 C 29.609375 -29.734375 29.328125 -31.351562 28.765625 -32.46875 C 28.203125 -33.582031 27.242188 -34.351562 25.890625 -34.78125 C 24.546875 -35.207031 22.707031 -35.421875 20.375 -35.421875 Z M 9.546875 -35.421875 "/></g></g></g></g></g></svg>